<?xml version="1.0" encoding="utf-8"?>
<!-- Generator: Adobe Illustrator 22.1.0, SVG Export Plug-In . SVG Version: 6.00 Build 0)  -->
<svg version="1.1" id="Layer_1" xmlns="http://www.w3.org/2000/svg" xmlns:xlink="http://www.w3.org/1999/xlink" x="0px" y="0px"
	 width="328px" height="73px" viewBox="0 0 328 73" style="enable-background:new 0 0 328 73;" xml:space="preserve">
<style type="text/css">
	.st0{fill:#9D9FA2;}
	.st1{fill:#ED1944;}
	.st2{fill:url(#SVGID_1_);}
</style>
<title>Branding/Logo/Lexington/Primary</title>
<desc>Created with Sketch.</desc>
<g>
	<path d="M263.175,48.885h-1.947v5.361h-1.236v-5.361h-1.947v-1.004h5.13V48.885z M267.617,52.392l1.731-4.512h1.777v6.365h-1.159
		v-4.974h-0.031l-1.901,4.974h-0.865l-1.901-4.974h-0.031v4.974h-1.159V47.88h1.793L267.617,52.392z"/>
	<path class="st0" d="M66.628,21.631h7.022v4.941l0.129,0.13c2.211-3.707,6.048-5.983,10.469-5.983
		c7.283,0,11.899,3.902,11.899,11.444v23.084h-7.413V34.116c-0.129-5.267-2.21-7.542-6.567-7.542c-4.941,0-8.128,3.902-8.128,8.843
		v19.832h-7.413V21.631H66.628z"/>
	<path d="M89.451,21.631h5.527v-2.795c0-8.584,4.487-10.014,9.298-10.014c2.34,0,4.031,0.13,5.202,0.455v5.787
		c-0.975-0.261-1.95-0.391-3.446-0.391c-2.016,0-3.641,0.716-3.641,3.511v3.446h6.308v5.527h-6.308v28.091h-7.413V27.159h-5.527
		V21.631z"/>
	<path d="M141.211,55.248h-7.283v-4.682h-0.13c-1.82,3.382-5.851,5.592-9.559,5.592c-8.778,0-12.549-4.422-12.549-13.199V21.631
		h7.413v20.612c0,5.917,2.406,8.063,6.437,8.063c6.177,0,8.258-3.967,8.258-9.168V21.631h7.413V55.248z"/>
	<path d="M151.747,44.454c0.39,4.292,3.641,5.853,7.607,5.853c2.795,0,7.673-0.585,7.478-4.422
		c-0.195-3.901-5.592-4.356-10.989-5.592c-5.463-1.17-10.794-3.121-10.794-9.948c0-7.348,7.933-9.624,14.045-9.624
		c6.892,0,13.134,2.862,14.045,10.339h-7.738c-0.651-3.511-3.576-4.486-6.828-4.486c-2.146,0-6.113,0.521-6.113,3.447
		c0,3.64,5.462,4.162,10.924,5.397c5.397,1.236,10.859,3.185,10.859,9.818c0,7.998-8.063,10.924-15.021,10.924
		c-8.452,0-14.76-3.772-14.89-11.704h7.413V44.454z"/>
	<path d="M177.24,8.821h7.413v7.023h-7.413V8.821z M177.24,21.631h7.413v33.617h-7.413V21.631z"/>
	<path d="M188.294,38.407c0-10.274,6.177-17.687,16.972-17.687s16.971,7.413,16.971,17.687c0,10.339-6.177,17.752-16.971,17.752
		S188.294,48.746,188.294,38.407z M214.824,38.407c0-5.787-2.926-11.834-9.559-11.834c-6.633,0-9.559,6.047-9.559,11.834
		c0,5.853,2.926,11.899,9.559,11.899C211.899,50.307,214.824,44.26,214.824,38.407z"/>
	<path d="M225.555,21.631h7.022v4.941l0.129,0.13c2.211-3.707,6.048-5.983,10.469-5.983c7.283,0,11.899,3.902,11.899,11.444v23.084
		h-7.413V34.116c-0.129-5.267-2.21-7.542-6.567-7.542c-4.941,0-8.128,3.902-8.128,8.843v19.832h-7.413V21.631H225.555z"/>
	<g>
		<g>
			<polygon class="st1" points="29.697,14.366 47.116,14.366 47.116,43.068 52.774,52.089 52.774,8.709 26.125,8.709 			"/>
			<polygon class="st1" points="44.643,49.951 11.526,49.951 11.526,15.973 5.868,9.985 5.868,55.609 49.86,55.609 			"/>
		</g>
		<g>
			
				<linearGradient id="SVGID_1_" gradientUnits="userSpaceOnUse" x1="0" y1="46.1953" x2="52.7731" y2="46.1953" gradientTransform="matrix(1 0 0 -1 0 74)">
				<stop  offset="0" style="stop-color:#F58220"/>
				<stop  offset="0.4876" style="stop-color:#ED1B2E"/>
				<stop  offset="1" style="stop-color:#A31421"/>
			</linearGradient>
			<path class="st2" d="M0,0h17.357l35.417,55.609L0,0z"/>
		</g>
	</g>
</g>
</svg>
