<?xml version="1.0" encoding="utf-8"?>
<!-- Generator: Adobe Illustrator 22.1.0, SVG Export Plug-In . SVG Version: 6.00 Build 0)  -->
<svg version="1.1" id="Layer_1" xmlns="http://www.w3.org/2000/svg" xmlns:xlink="http://www.w3.org/1999/xlink" x="0px" y="0px"
	 width="328px" height="73px" viewBox="0 0 328 73" style="enable-background:new 0 0 328 73;" xml:space="preserve">
<style type="text/css">
	.st0{fill:none;}
	.st1{fill:#5C2F92;}
	.st2{fill:url(#SVGID_1_);}
</style>
<title>Branding/Logo/Lexington/Primary</title>
<desc>Created with Sketch.</desc>
<rect x="-88.405" y="-113.919" class="st0" width="324" height="90"/>
<g>
	<g>
		<path d="M319.81,49.585h-2.005v5.522h-1.273v-5.522h-2.005V48.55h5.285v1.035H319.81z M324.386,53.197l1.783-4.647H328v6.557
			h-1.194v-5.125h-0.032l-1.958,5.125h-0.891l-1.958-5.125h-0.032v5.125h-1.194V48.55h1.847L324.386,53.197z"/>
	</g>
	<g>
		<path d="M65.831,8.728h7.405v46.379h-7.405V8.728z"/>
		<path d="M84.212,40.231c0,5.262,2.858,9.938,9.029,9.938c4.287,0,6.886-1.883,8.184-5.585h7.015
			c-1.624,7.339-7.86,11.432-15.2,11.432c-10.523,0-16.433-7.339-16.433-17.669c0-9.548,6.236-17.733,16.239-17.733
			c10.588,0,17.083,9.549,15.85,19.617C108.896,40.231,84.212,40.231,84.212,40.231z M101.491,35.36
			c-0.259-4.677-3.443-8.899-8.444-8.899c-5.132,0-8.64,3.897-8.834,8.899H101.491z"/>
		<path d="M119.419,37.438l-11.627-15.914h8.964l7.015,10.328l7.34-10.328h8.574l-11.432,15.523l12.861,18.058h-8.899l-8.51-12.407
			l-8.249,12.407h-8.705L119.419,37.438z"/>
		<path d="M143.907,8.728h7.405v7.015h-7.405V8.728z M143.907,21.524h7.405v33.582h-7.405V21.524z"/>
		<path d="M156.508,21.524h7.015v4.937l0.129,0.13c2.21-3.702,6.042-5.977,10.458-5.977c7.276,0,11.887,3.897,11.887,11.433v23.059
			h-7.405v-21.11c-0.13-5.263-2.208-7.535-6.56-7.535c-4.938,0-8.119,3.897-8.119,8.834v19.812h-7.405V21.524H156.508z"/>
		<path d="M221.982,53.353c0,10.068-5.911,15.07-16.5,15.07c-6.756,0-14.355-2.598-15.005-10.458h7.405
			c0.909,4.222,4.287,4.938,8.054,4.938c5.977,0,8.64-3.053,8.64-8.575v-5.133h-0.13c-2.078,3.702-5.911,5.911-10.068,5.911
			c-10.652,0-15.07-8.055-15.07-17.669c0-9.029,5.651-16.824,15.2-16.824c4.222,0,8.055,1.754,9.938,5.522h0.13v-4.612h7.405V53.353
			z M214.578,37.568c0-5.782-2.598-11.107-9.029-11.107c-6.56,0-8.835,6.106-8.835,11.693c0,5.521,2.663,11.106,8.835,11.106
			C212.109,49.26,214.578,43.285,214.578,37.568z"/>
		<path d="M224.514,21.524h5.586V11.456h7.405v10.068h6.689v5.521h-6.689v17.928c0,3.053,0.259,4.612,3.572,4.612
			c1.039,0,2.079,0,3.117-0.259v5.716c-1.624,0.129-3.183,0.389-4.806,0.389c-7.73,0-9.158-2.987-9.288-8.574V27.046h-5.586
			L224.514,21.524L224.514,21.524z"/>
		<path d="M245.105,38.283c0-10.264,6.171-17.669,16.953-17.669c10.782,0,16.954,7.405,16.954,17.669
			c0,10.328-6.172,17.733-16.954,17.733C251.276,56.016,245.105,48.611,245.105,38.283z M271.608,38.283
			c0-5.78-2.923-11.822-9.549-11.822c-6.625,0-9.548,6.042-9.548,11.822c0,5.847,2.922,11.886,9.548,11.886
			S271.608,44.13,271.608,38.283z"/>
		<path d="M282.325,21.524h7.015v4.937l0.129,0.13c2.21-3.702,6.042-5.977,10.458-5.977c7.276,0,11.887,3.897,11.887,11.433v23.059
			h-7.405v-21.11c-0.13-5.263-2.208-7.535-6.56-7.535c-4.938,0-8.119,3.897-8.119,8.834v19.812h-7.405V21.524H282.325z"/>
	</g>
	<g>
		<g>
			<polygon class="st1" points="29.728,14.348 47.126,14.348 47.126,42.303 52.777,51.313 52.777,8.698 26.161,8.698 			"/>
			<polygon class="st1" points="43.971,49.89 11.58,49.89 11.58,15.952 5.928,9.973 5.928,55.542 49.181,55.542 			"/>
		</g>
		<g>
			
				<linearGradient id="SVGID_1_" gradientUnits="userSpaceOnUse" x1="0.0685" y1="46.2297" x2="52.7773" y2="46.2297" gradientTransform="matrix(1 0 0 -1 0 74)">
				<stop  offset="0.1789" style="stop-color:#C12990"/>
				<stop  offset="0.688" style="stop-color:#6F2B90"/>
				<stop  offset="1" style="stop-color:#4E0B42"/>
			</linearGradient>
			<path class="st2" d="M0.069,0h17.336l35.373,55.541L0.069,0z"/>
		</g>
	</g>
</g>
</svg>
