<?xml version="1.0" encoding="utf-8"?>
<!-- Generator: Adobe Illustrator 22.1.0, SVG Export Plug-In . SVG Version: 6.00 Build 0)  -->
<svg version="1.1" id="Layer_1" xmlns="http://www.w3.org/2000/svg" xmlns:xlink="http://www.w3.org/1999/xlink" x="0px" y="0px"
	 width="328px" height="73px" viewBox="0 0 328 73" style="enable-background:new 0 0 328 73;" xml:space="preserve">
<style type="text/css">
	.st0{fill:#0072BC;}
	.st1{fill:url(#SVGID_1_);}
</style>
<title>Branding/Logo/Lexington/Primary</title>
<desc>Created with Sketch.</desc>
<g>
	<g>
		<g>
			<path d="M66.794,21.979h7.02v4.94l0.13,0.129c2.21-3.704,6.046-5.982,10.466-5.982c7.281,0,11.896,3.9,11.896,11.443v23.076
				h-7.41V34.459c-0.13-5.266-2.21-7.54-6.566-7.54c-4.942,0-8.127,3.9-8.127,8.841v19.827h-7.41
				C66.794,55.586,66.794,21.979,66.794,21.979z"/>
			<path d="M128.096,48.111c0,1.819,0.39,2.536,1.755,2.536c0.455,0,1.04,0,1.819-0.129v5.134c-1.105,0.391-3.446,0.846-4.68,0.846
				c-2.991,0-5.136-1.039-5.721-4.095c-2.925,2.862-7.671,4.095-11.636,4.095c-6.046,0-11.506-3.249-11.506-9.816
				c0-8.386,6.696-9.751,12.937-10.466c5.331-0.975,10.076-0.391,10.076-4.746c0-3.836-3.966-4.55-6.955-4.55
				c-4.161,0-7.086,1.69-7.411,5.33h-7.411c0.52-8.647,7.866-11.183,15.277-11.183c6.566,0,13.457,2.667,13.457,9.753v17.291
				H128.096z M120.684,38.75c-2.275,1.495-5.85,1.43-9.102,2.014c-3.185,0.522-6.046,1.69-6.046,5.591
				c0,3.316,4.225,4.291,6.826,4.291c3.25,0,8.321-1.69,8.321-6.371V38.75z"/>
			<path d="M140.122,44.797c0.39,4.289,3.64,5.85,7.606,5.85c2.795,0,7.671-0.584,7.475-4.42c-0.194-3.9-5.591-4.355-10.986-5.591
				c-5.46-1.171-10.791-3.12-10.791-9.947c0-7.344,7.931-9.622,14.042-9.622c6.891,0,13.132,2.862,14.042,10.337h-7.736
				c-0.65-3.511-3.575-4.485-6.826-4.485c-2.145,0-6.111,0.52-6.111,3.446c0,3.64,5.46,4.16,10.922,5.395
				c5.395,1.235,10.856,3.185,10.856,9.816c0,7.997-8.062,10.922-15.017,10.922c-8.451,0-14.757-3.769-14.887-11.7h7.41V44.797z"/>
			<path d="M171.001,44.797c0.39,4.289,3.64,5.85,7.606,5.85c2.795,0,7.671-0.584,7.475-4.42c-0.194-3.9-5.591-4.355-10.986-5.591
				c-5.46-1.171-10.791-3.12-10.791-9.947c0-7.344,7.931-9.622,14.042-9.622c6.891,0,13.132,2.862,14.042,10.337h-7.736
				c-0.65-3.511-3.575-4.485-6.826-4.485c-2.145,0-6.111,0.52-6.111,3.446c0,3.64,5.46,4.16,10.922,5.395
				c5.395,1.235,10.856,3.185,10.856,9.816c0,7.997-8.062,10.922-15.017,10.922c-8.451,0-14.757-3.769-14.887-11.7h7.41V44.797z"/>
			<path d="M224.438,48.111c0,1.819,0.39,2.536,1.755,2.536c0.455,0,1.04,0,1.819-0.129v5.134c-1.105,0.391-3.446,0.846-4.68,0.846
				c-2.991,0-5.136-1.039-5.721-4.095c-2.925,2.862-7.671,4.095-11.636,4.095c-6.046,0-11.506-3.249-11.506-9.816
				c0-8.386,6.696-9.751,12.937-10.466c5.331-0.975,10.076-0.391,10.076-4.746c0-3.836-3.966-4.55-6.955-4.55
				c-4.161,0-7.086,1.69-7.411,5.33h-7.411c0.52-8.647,7.866-11.183,15.277-11.183c6.566,0,13.457,2.667,13.457,9.753v17.291
				H224.438z M217.026,38.75c-2.275,1.495-5.85,1.43-9.102,2.014c-3.185,0.522-6.046,1.69-6.046,5.591
				c0,3.316,4.225,4.291,6.826,4.291c3.25,0,8.321-1.69,8.321-6.371V38.75z"/>
			<path d="M231.067,9.17h7.411v46.416h-7.411V9.17z"/>
		</g>
	</g>
	<g>
		<g>
			<path d="M246.387,50.228h-1.946v5.359h-1.235v-5.359h-1.946v-1.004h5.129v1.004H246.387z M250.827,53.734l1.73-4.51h1.776v6.362
				h-1.158v-4.972h-0.031l-1.9,4.972h-0.866l-1.9-4.972h-0.031v4.972h-1.159v-6.362h1.792L250.827,53.734z"/>
		</g>
	</g>
	<polygon class="st0" points="29.752,14.36 47.165,14.36 47.165,42.337 52.819,51.354 52.819,8.705 26.182,8.705 	"/>
	<polygon class="st0" points="44.006,49.93 11.59,49.93 11.59,15.965 5.934,9.981 5.934,55.585 49.22,55.585 	"/>
	<g>
		
			<linearGradient id="SVGID_1_" gradientUnits="userSpaceOnUse" x1="0.0685" y1="46.2075" x2="52.8195" y2="46.2075" gradientTransform="matrix(1 0 0 -1 0 74)">
			<stop  offset="0" style="stop-color:#52CAF5"/>
			<stop  offset="0.0163" style="stop-color:#52C3F0"/>
			<stop  offset="0.2574" style="stop-color:#3E83C0"/>
			<stop  offset="0.4519" style="stop-color:#315CA4"/>
			<stop  offset="0.5904" style="stop-color:#2B4395"/>
			<stop  offset="0.6599" style="stop-color:#2B3990"/>
			<stop  offset="1" style="stop-color:#1C155E"/>
		</linearGradient>
		<path class="st1" d="M0.069,0h17.35L52.82,55.585L0.069,0z"/>
	</g>
</g>
</svg>
