<?xml version="1.0" encoding="UTF-8"?>
<svg width="27px" height="20px" viewBox="0 0 27 20" version="1.1" xmlns="http://www.w3.org/2000/svg" xmlns:xlink="http://www.w3.org/1999/xlink">
    <defs></defs>
    <g id="Symbols" stroke="none" stroke-width="1" fill="none" fill-rule="evenodd">
        <g id="Header/Nassal/Mobile" transform="translate(-144.000000, -27.000000)" fill="#231F20">
            <g id="Group">
                <g transform="translate(144.000000, 20.000000)">
                    <g id="Contact-Icon/Black" transform="translate(0.000000, 7.000000)">
                        <g id="Shape">
                            <path d="M24.8972805,0 L2.10275045,0 C0.946562005,0 0,0.953622438 0,2.11843493 L0,17.8815651 C0,19.0463776 0.946562005,20 2.10275045,20 L24.8959635,20 C26.053436,20 26.998714,19.0463776 26.998714,17.8815651 L27,2.11843493 C27,0.952328829 26.053438,0 24.8972495,0 L24.8972805,0 Z M23.7668056,15.7229951 C24.0600324,16.000272 24.0741798,16.4641338 23.7989578,16.7608348 C23.6549157,16.9150198 23.4620146,16.9927624 23.2677966,16.9927624 C23.0890297,16.9927624 22.910276,16.9266822 22.768802,16.7932281 L16.7858716,11.136174 L14.1956829,13.680903 C14.0542122,13.8208384 13.8715867,13.8895092 13.6876672,13.8895092 C13.5089003,13.8895092 13.3288626,13.8234289 13.1886726,13.6899749 L10.2332262,10.8951811 L4.24140639,16.7827632 C4.09993571,16.9226985 3.91731015,16.9913693 3.73210665,16.9913693 C3.54305105,16.9913693 3.35400863,16.9162205 3.20996659,16.7698072 C2.92959986,16.4795742 2.93474257,16.0157323 3.22282732,15.7319674 L9.16855367,9.88982759 L3.23336296,4.27688884 C2.94013616,3.99961192 2.92470144,3.53575006 3.19992546,3.24034271 C3.47514947,2.94363179 3.93557698,2.93067579 4.23008123,3.20665579 L13.6762762,12.1378689 L22.7560282,3.21594324 C23.0428249,2.93218832 23.50452,2.93866632 23.786184,3.22890023 C24.0665507,3.51913315 24.061408,3.9829751 23.7733229,4.26673997 L17.8302305,10.1102066 L23.7668056,15.7229951 Z" fill-rule="nonzero"></path>
                        </g>
                    </g>
                </g>
            </g>
        </g>
    </g>
</svg>
