<!-- Generator: Adobe Illustrator 22.1.0, SVG Export Plug-In . SVG Version: 6.00 Build 0)  -->
<svg version="1.1" id="icon-grid-svg" xmlns="http://www.w3.org/2000/svg" xmlns:xlink="http://www.w3.org/1999/xlink" x="0px" y="0px"
   width="1600px" height="750px" viewBox="0 0 1600 750" style="enable-background:new 0 0 1600 750;" xml:space="preserve">
<style type="text/css">
.icon-path-line{fill:none;stroke:#FFFFFF;stroke-width:0.5;}
</style>
<g>
  <line class="icon-path-line" x1="731.4" y1="379.225" x2="731.4" y2="369.225"/>
  <line class="icon-path-line" x1="731.4" y1="539.225" x2="731.4" y2="529.225"/>
  <line class="icon-path-line" x1="731.4" y1="539.225" x2="731.4" y2="549.225"/>
  <line class="icon-path-line" x1="731.4" y1="579.225" x2="731.4" y2="569.225"/>
  <line class="icon-path-line" x1="731.4" y1="559.225" x2="731.4" y2="569.225"/>
  <polyline class="icon-path-line" points="704.795,551.203 731.4,593.6 731.4,579.225 	"/>
  <line class="icon-path-line" x1="731.4" y1="519.225" x2="731.4" y2="509.225"/>
  <line class="icon-path-line" x1="731.4" y1="419.225" x2="731.4" y2="409.225"/>
  <line class="icon-path-line" x1="731.4" y1="399.225" x2="731.4" y2="389.225"/>
  <line class="icon-path-line" x1="731.4" y1="439.225" x2="731.4" y2="429.225"/>
  <line class="icon-path-line" x1="731.4" y1="499.225" x2="731.4" y2="489.225"/>
  <line class="icon-path-line" x1="731.4" y1="479.225" x2="731.4" y2="469.225"/>
  <line class="icon-path-line" x1="731.4" y1="459.225" x2="731.4" y2="449.225"/>
  <line class="icon-path-line" x1="731.4" y1="559.225" x2="731.4" y2="549.225"/>
  <line class="icon-path-line" x1="563.42" y1="242.3" x2="553.926" y2="242.3"/>
  <line class="icon-path-line" x1="731.4" y1="519.225" x2="731.4" y2="529.225"/>
  <line class="icon-path-line" x1="572.915" y1="242.3" x2="563.42" y2="242.3"/>
  <line class="icon-path-line" x1="591.904" y1="242.3" x2="582.409" y2="242.3"/>
  <line class="icon-path-line" x1="544.431" y1="242.3" x2="534.937" y2="242.3"/>
  <line class="icon-path-line" x1="582.409" y1="242.3" x2="572.915" y2="242.3"/>
  <line class="icon-path-line" x1="553.926" y1="242.3" x2="544.431" y2="242.3"/>
  <line class="icon-path-line" x1="731.4" y1="479.225" x2="731.4" y2="489.225"/>
  <line class="icon-path-line" x1="731.4" y1="499.225" x2="731.4" y2="509.225"/>
  <line class="icon-path-line" x1="534.937" y1="242.3" x2="525.443" y2="242.3"/>
  <line class="icon-path-line" x1="731.4" y1="459.225" x2="731.4" y2="469.225"/>
  <line class="icon-path-line" x1="515.948" y1="242.3" x2="525.443" y2="242.3"/>
  <line class="icon-path-line" x1="678.5" y1="413.508" x2="678.5" y2="403.508"/>
  <polyline class="icon-path-line" points="505.017,230.787 512.3,242.3 515.948,242.3 	"/>
  <line class="icon-path-line" x1="731.4" y1="359.225" x2="731.4" y2="349.225"/>
  <line class="icon-path-line" x1="522.784" y1="189.5" x2="513.29" y2="189.5"/>
  <line class="icon-path-line" x1="503.795" y1="189.5" x2="494.301" y2="189.5"/>
  <line class="icon-path-line" x1="579.751" y1="189.5" x2="570.256" y2="189.5"/>
  <line class="icon-path-line" x1="598.74" y1="189.5" x2="589.245" y2="189.5"/>
  <line class="icon-path-line" x1="560.762" y1="189.5" x2="551.267" y2="189.5"/>
  <polyline class="icon-path-line" points="484.806,189.5 478.9,189.5 486.063,200.824 	"/>
  <line class="icon-path-line" x1="678.5" y1="493.508" x2="678.5" y2="503.508"/>
  <line class="icon-path-line" x1="678.5" y1="453.508" x2="678.5" y2="463.508"/>
  <line class="icon-path-line" x1="601.398" y1="242.3" x2="591.904" y2="242.3"/>
  <line class="icon-path-line" x1="617.728" y1="189.5" x2="608.234" y2="189.5"/>
  <line class="icon-path-line" x1="678.5" y1="473.508" x2="678.5" y2="483.508"/>
  <line class="icon-path-line" x1="678.5" y1="413.508" x2="678.5" y2="423.508"/>
  <line class="icon-path-line" x1="678.5" y1="433.508" x2="678.5" y2="443.508"/>
  <line class="icon-path-line" x1="541.773" y1="189.5" x2="532.279" y2="189.5"/>
  <line class="icon-path-line" x1="731.4" y1="279.225" x2="731.4" y2="269.225"/>
  <line class="icon-path-line" x1="731.4" y1="299.225" x2="731.4" y2="289.225"/>
  <line class="icon-path-line" x1="731.4" y1="239.225" x2="731.4" y2="229.225"/>
  <line class="icon-path-line" x1="731.4" y1="259.225" x2="731.4" y2="249.225"/>
  <line class="icon-path-line" x1="731.4" y1="319.225" x2="731.4" y2="309.225"/>
  <line class="icon-path-line" x1="731.4" y1="339.225" x2="731.4" y2="329.225"/>
  <line class="icon-path-line" x1="655.706" y1="189.5" x2="646.212" y2="189.5"/>
  <line class="icon-path-line" x1="674.695" y1="189.5" x2="665.201" y2="189.5"/>
  <line class="icon-path-line" x1="636.717" y1="189.5" x2="627.223" y2="189.5"/>
  <line class="icon-path-line" x1="693.684" y1="189.5" x2="684.189" y2="189.5"/>
  <line class="icon-path-line" x1="712.673" y1="189.5" x2="703.178" y2="189.5"/>
  <line class="icon-path-line" x1="731.4" y1="219.225" x2="731.4" y2="209.225"/>
  <polyline class="icon-path-line" points="731.4,199.225 731.4,189.5 722.167,189.5 	"/>
  <line class="icon-path-line" x1="678.5" y1="293.508" x2="678.5" y2="283.508"/>
  <line class="icon-path-line" x1="693.684" y1="189.5" x2="703.178" y2="189.5"/>
  <line class="icon-path-line" x1="712.673" y1="189.5" x2="722.167" y2="189.5"/>
  <line class="icon-path-line" x1="731.4" y1="199.225" x2="731.4" y2="209.225"/>
  <line class="icon-path-line" x1="636.717" y1="189.5" x2="646.212" y2="189.5"/>
  <line class="icon-path-line" x1="731.4" y1="219.225" x2="731.4" y2="229.225"/>
  <line class="icon-path-line" x1="655.706" y1="189.5" x2="665.201" y2="189.5"/>
  <line class="icon-path-line" x1="674.695" y1="189.5" x2="684.189" y2="189.5"/>
  <line class="icon-path-line" x1="731.4" y1="339.225" x2="731.4" y2="349.225"/>
  <line class="icon-path-line" x1="731.4" y1="299.225" x2="731.4" y2="309.225"/>
  <line class="icon-path-line" x1="731.4" y1="239.225" x2="731.4" y2="249.225"/>
  <line class="icon-path-line" x1="610.892" y1="242.3" x2="601.398" y2="242.3"/>
  <line class="icon-path-line" x1="731.4" y1="319.225" x2="731.4" y2="329.225"/>
  <line class="icon-path-line" x1="731.4" y1="279.225" x2="731.4" y2="289.225"/>
  <line class="icon-path-line" x1="731.4" y1="259.225" x2="731.4" y2="269.225"/>
  <line class="icon-path-line" x1="541.773" y1="189.5" x2="551.267" y2="189.5"/>
  <line class="icon-path-line" x1="678.5" y1="473.508" x2="678.5" y2="463.508"/>
  <line class="icon-path-line" x1="505.017" y1="230.787" x2="486.063" y2="200.824"/>
  <line class="icon-path-line" x1="598.74" y1="189.5" x2="608.234" y2="189.5"/>
  <line class="icon-path-line" x1="678.5" y1="453.508" x2="678.5" y2="443.508"/>
  <line class="icon-path-line" x1="678.5" y1="493.508" x2="678.5" y2="483.508"/>
  <polyline class="icon-path-line" points="686.287,521.71 678.5,509.3 678.5,503.508 	"/>
  <line class="icon-path-line" x1="678.5" y1="433.508" x2="678.5" y2="423.508"/>
  <line class="icon-path-line" x1="731.4" y1="359.225" x2="731.4" y2="369.225"/>
  <line class="icon-path-line" x1="560.762" y1="189.5" x2="570.256" y2="189.5"/>
  <line class="icon-path-line" x1="579.751" y1="189.5" x2="589.245" y2="189.5"/>
  <line class="icon-path-line" x1="503.795" y1="189.5" x2="513.29" y2="189.5"/>
  <line class="icon-path-line" x1="484.806" y1="189.5" x2="494.301" y2="189.5"/>
  <line class="icon-path-line" x1="522.784" y1="189.5" x2="532.279" y2="189.5"/>
  <line class="icon-path-line" x1="617.728" y1="189.5" x2="627.223" y2="189.5"/>
  <line class="icon-path-line" x1="678.5" y1="253.508" x2="678.5" y2="243.508"/>
  <line class="icon-path-line" x1="686.287" y1="521.71" x2="704.795" y2="551.203"/>
  <line class="icon-path-line" x1="678.5" y1="263.508" x2="678.5" y2="253.508"/>
  <polyline class="icon-path-line" points="678.5,243.508 678.5,242.3 677.353,242.3 	"/>
  <line class="icon-path-line" x1="678.5" y1="273.508" x2="678.5" y2="263.508"/>
  <line class="icon-path-line" x1="678.5" y1="283.508" x2="678.5" y2="273.508"/>
  <line class="icon-path-line" x1="677.353" y1="242.3" x2="667.859" y2="242.3"/>
  <line class="icon-path-line" x1="629.881" y1="242.3" x2="620.387" y2="242.3"/>
  <line class="icon-path-line" x1="620.387" y1="242.3" x2="610.892" y2="242.3"/>
  <line class="icon-path-line" x1="639.376" y1="242.3" x2="629.881" y2="242.3"/>
  <line class="icon-path-line" x1="648.87" y1="242.3" x2="639.376" y2="242.3"/>
  <line class="icon-path-line" x1="667.859" y1="242.3" x2="658.365" y2="242.3"/>
  <line class="icon-path-line" x1="658.365" y1="242.3" x2="648.87" y2="242.3"/>
  <line class="icon-path-line" x1="678.5" y1="383.508" x2="678.5" y2="373.508"/>
  <line class="icon-path-line" x1="678.5" y1="403.508" x2="678.5" y2="393.508"/>
  <line class="icon-path-line" x1="678.5" y1="393.508" x2="678.5" y2="383.508"/>
  <line class="icon-path-line" x1="678.5" y1="373.508" x2="678.5" y2="363.508"/>
  <line class="icon-path-line" x1="731.4" y1="379.225" x2="731.4" y2="389.225"/>
  <line class="icon-path-line" x1="731.4" y1="419.225" x2="731.4" y2="429.225"/>
  <line class="icon-path-line" x1="731.4" y1="439.225" x2="731.4" y2="449.225"/>
  <line class="icon-path-line" x1="678.5" y1="343.508" x2="678.5" y2="333.508"/>
  <line class="icon-path-line" x1="678.5" y1="323.508" x2="678.5" y2="313.508"/>
  <line class="icon-path-line" x1="678.5" y1="333.508" x2="678.5" y2="323.508"/>
  <line class="icon-path-line" x1="678.5" y1="313.508" x2="678.5" y2="303.508"/>
  <line class="icon-path-line" x1="678.5" y1="303.508" x2="678.5" y2="293.508"/>
  <line class="icon-path-line" x1="678.5" y1="353.508" x2="678.5" y2="343.508"/>
  <line class="icon-path-line" x1="678.5" y1="363.508" x2="678.5" y2="353.508"/>
  <line class="icon-path-line" x1="731.4" y1="399.225" x2="731.4" y2="409.225"/>
  <line class="icon-path-line" x1="722.167" y1="189.5" x2="731.4" y2="199.225"/>
  <line class="icon-path-line" x1="712.673" y1="189.5" x2="731.4" y2="209.225"/>
  <line class="icon-path-line" x1="703.178" y1="189.5" x2="731.4" y2="219.225"/>
  <line class="icon-path-line" x1="693.684" y1="189.5" x2="731.4" y2="229.225"/>
  <line class="icon-path-line" x1="684.189" y1="189.5" x2="731.4" y2="239.225"/>
  <line class="icon-path-line" x1="674.695" y1="189.5" x2="731.4" y2="249.225"/>
  <line class="icon-path-line" x1="665.201" y1="189.5" x2="731.4" y2="259.225"/>
  <line class="icon-path-line" x1="655.706" y1="189.5" x2="731.4" y2="269.225"/>
  <line class="icon-path-line" x1="646.212" y1="189.5" x2="731.4" y2="279.225"/>
  <line class="icon-path-line" x1="636.717" y1="189.5" x2="731.4" y2="289.225"/>
  <line class="icon-path-line" x1="731.4" y1="299.225" x2="678.5" y2="243.508"/>
  <line class="icon-path-line" x1="627.223" y1="189.5" x2="677.353" y2="242.3"/>
  <line class="icon-path-line" x1="617.728" y1="189.5" x2="667.859" y2="242.3"/>
  <line class="icon-path-line" x1="731.4" y1="309.225" x2="678.5" y2="253.508"/>
  <line class="icon-path-line" x1="608.234" y1="189.5" x2="658.365" y2="242.3"/>
  <line class="icon-path-line" x1="731.4" y1="319.225" x2="678.5" y2="263.508"/>
  <line class="icon-path-line" x1="598.74" y1="189.5" x2="648.87" y2="242.3"/>
  <line class="icon-path-line" x1="731.4" y1="329.225" x2="678.5" y2="273.508"/>
  <line class="icon-path-line" x1="731.4" y1="339.225" x2="678.5" y2="283.508"/>
  <line class="icon-path-line" x1="589.245" y1="189.5" x2="639.376" y2="242.3"/>
  <line class="icon-path-line" x1="731.4" y1="349.225" x2="678.5" y2="293.508"/>
  <line class="icon-path-line" x1="579.751" y1="189.5" x2="629.881" y2="242.3"/>
  <line class="icon-path-line" x1="570.256" y1="189.5" x2="620.387" y2="242.3"/>
  <line class="icon-path-line" x1="731.4" y1="359.225" x2="678.5" y2="303.508"/>
  <line class="icon-path-line" x1="731.4" y1="369.225" x2="678.5" y2="313.508"/>
  <line class="icon-path-line" x1="560.762" y1="189.5" x2="610.892" y2="242.3"/>
  <line class="icon-path-line" x1="551.267" y1="189.5" x2="601.398" y2="242.3"/>
  <line class="icon-path-line" x1="731.4" y1="379.225" x2="678.5" y2="323.508"/>
  <line class="icon-path-line" x1="731.4" y1="389.225" x2="678.5" y2="333.508"/>
  <line class="icon-path-line" x1="541.773" y1="189.5" x2="591.904" y2="242.3"/>
  <line class="icon-path-line" x1="731.4" y1="399.225" x2="678.5" y2="343.508"/>
  <line class="icon-path-line" x1="532.279" y1="189.5" x2="582.409" y2="242.3"/>
  <line class="icon-path-line" x1="731.4" y1="409.225" x2="678.5" y2="353.508"/>
  <line class="icon-path-line" x1="522.784" y1="189.5" x2="572.915" y2="242.3"/>
  <line class="icon-path-line" x1="513.29" y1="189.5" x2="563.42" y2="242.3"/>
  <line class="icon-path-line" x1="731.4" y1="419.225" x2="678.5" y2="363.508"/>
  <line class="icon-path-line" x1="731.4" y1="429.225" x2="678.5" y2="373.508"/>
  <line class="icon-path-line" x1="503.795" y1="189.5" x2="553.926" y2="242.3"/>
  <line class="icon-path-line" x1="731.4" y1="439.225" x2="678.5" y2="383.508"/>
  <line class="icon-path-line" x1="494.301" y1="189.5" x2="544.431" y2="242.3"/>
  <line class="icon-path-line" x1="484.806" y1="189.5" x2="534.937" y2="242.3"/>
  <line class="icon-path-line" x1="731.4" y1="449.225" x2="678.5" y2="393.508"/>
  <line class="icon-path-line" x1="486.063" y1="200.824" x2="525.443" y2="242.3"/>
  <line class="icon-path-line" x1="678.5" y1="403.508" x2="731.4" y2="459.225"/>
  <line class="icon-path-line" x1="515.948" y1="242.3" x2="505.017" y2="230.787"/>
  <line class="icon-path-line" x1="678.5" y1="413.508" x2="731.4" y2="469.225"/>
  <line class="icon-path-line" x1="678.5" y1="423.508" x2="731.4" y2="479.225"/>
  <line class="icon-path-line" x1="678.5" y1="433.508" x2="731.4" y2="489.225"/>
  <line class="icon-path-line" x1="678.5" y1="443.508" x2="731.4" y2="499.225"/>
  <line class="icon-path-line" x1="678.5" y1="453.508" x2="731.4" y2="509.225"/>
  <line class="icon-path-line" x1="678.5" y1="463.508" x2="731.4" y2="519.225"/>
  <line class="icon-path-line" x1="678.5" y1="473.508" x2="731.4" y2="529.225"/>
  <line class="icon-path-line" x1="678.5" y1="483.508" x2="731.4" y2="539.225"/>
  <line class="icon-path-line" x1="678.5" y1="493.508" x2="731.4" y2="549.225"/>
  <line class="icon-path-line" x1="678.5" y1="503.508" x2="731.4" y2="559.225"/>
  <line class="icon-path-line" x1="686.287" y1="521.71" x2="731.4" y2="569.225"/>
  <line class="icon-path-line" x1="704.795" y1="551.203" x2="731.4" y2="579.225"/>
  <line class="icon-path-line" x1="563.814" y1="582.3" x2="573.309" y2="582.3"/>
  <line class="icon-path-line" x1="661.417" y1="635.1" x2="672.81" y2="635.1"/>
  <polyline class="icon-path-line" points="684.224,635.1 696.6,635.1 647.7,582.3 634.094,582.3 	"/>
  <line class="icon-path-line" x1="592.298" y1="582.3" x2="601.792" y2="582.3"/>
  <line class="icon-path-line" x1="573.309" y1="582.3" x2="582.803" y2="582.3"/>
  <polyline class="icon-path-line" points="338.4,270.861 338.4,258.3 285.5,202.3 285.5,215.144 	"/>
  <line class="icon-path-line" x1="582.803" y1="582.3" x2="592.298" y2="582.3"/>
  <line class="icon-path-line" x1="421.398" y1="582.3" x2="430.892" y2="582.3"/>
  <line class="icon-path-line" x1="285.5" y1="215.144" x2="285.5" y2="227.166"/>
  <line class="icon-path-line" x1="487.859" y1="582.3" x2="497.353" y2="582.3"/>
  <line class="icon-path-line" x1="459.376" y1="582.3" x2="468.87" y2="582.3"/>
  <line class="icon-path-line" x1="468.87" y1="582.3" x2="478.365" y2="582.3"/>
  <line class="icon-path-line" x1="554.32" y1="582.3" x2="563.814" y2="582.3"/>
  <line class="icon-path-line" x1="449.881" y1="582.3" x2="459.376" y2="582.3"/>
  <line class="icon-path-line" x1="642.428" y1="635.1" x2="651.923" y2="635.1"/>
  <line class="icon-path-line" x1="430.892" y1="582.3" x2="440.387" y2="582.3"/>
  <line class="icon-path-line" x1="440.387" y1="582.3" x2="449.881" y2="582.3"/>
  <line class="icon-path-line" x1="478.365" y1="582.3" x2="487.859" y2="582.3"/>
  <line class="icon-path-line" x1="525.837" y1="582.3" x2="535.331" y2="582.3"/>
  <line class="icon-path-line" x1="535.331" y1="582.3" x2="544.826" y2="582.3"/>
  <line class="icon-path-line" x1="544.826" y1="582.3" x2="554.32" y2="582.3"/>
  <line class="icon-path-line" x1="516.342" y1="582.3" x2="525.837" y2="582.3"/>
  <line class="icon-path-line" x1="497.353" y1="582.3" x2="506.848" y2="582.3"/>
  <line class="icon-path-line" x1="319.618" y1="635.1" x2="329.112" y2="635.1"/>
  <line class="icon-path-line" x1="506.848" y1="582.3" x2="516.342" y2="582.3"/>
  <line class="icon-path-line" x1="285.5" y1="429.166" x2="285.5" y2="439.166"/>
  <line class="icon-path-line" x1="285.5" y1="409.166" x2="285.5" y2="419.166"/>
  <line class="icon-path-line" x1="285.5" y1="449.166" x2="285.5" y2="459.166"/>
  <line class="icon-path-line" x1="376.584" y1="635.1" x2="386.079" y2="635.1"/>
  <line class="icon-path-line" x1="285.5" y1="469.166" x2="285.5" y2="479.166"/>
  <line class="icon-path-line" x1="285.5" y1="389.166" x2="285.5" y2="399.166"/>
  <line class="icon-path-line" x1="285.5" y1="329.166" x2="285.5" y2="339.166"/>
  <line class="icon-path-line" x1="285.5" y1="489.166" x2="285.5" y2="499.166"/>
  <line class="icon-path-line" x1="285.5" y1="349.166" x2="285.5" y2="359.166"/>
  <line class="icon-path-line" x1="285.5" y1="369.166" x2="285.5" y2="379.166"/>
  <line class="icon-path-line" x1="285.5" y1="509.166" x2="285.5" y2="519.166"/>
  <polyline class="icon-path-line" points="285.5,629.166 285.5,635.1 291.134,635.1 	"/>
  <line class="icon-path-line" x1="357.595" y1="635.1" x2="367.09" y2="635.1"/>
  <line class="icon-path-line" x1="395.573" y1="635.1" x2="405.068" y2="635.1"/>
  <line class="icon-path-line" x1="285.5" y1="609.166" x2="285.5" y2="619.166"/>
  <line class="icon-path-line" x1="300.629" y1="635.1" x2="310.123" y2="635.1"/>
  <line class="icon-path-line" x1="601.792" y1="582.3" x2="611.287" y2="582.3"/>
  <line class="icon-path-line" x1="285.5" y1="589.166" x2="285.5" y2="599.166"/>
  <line class="icon-path-line" x1="285.5" y1="549.166" x2="285.5" y2="559.166"/>
  <line class="icon-path-line" x1="285.5" y1="529.166" x2="285.5" y2="539.166"/>
  <line class="icon-path-line" x1="285.5" y1="569.166" x2="285.5" y2="579.166"/>
  <line class="icon-path-line" x1="338.607" y1="635.1" x2="348.101" y2="635.1"/>
  <line class="icon-path-line" x1="634.094" y1="582.3" x2="622.68" y2="582.3"/>
  <line class="icon-path-line" x1="338.4" y1="270.861" x2="338.4" y2="282.883"/>
  <line class="icon-path-line" x1="285.5" y1="309.166" x2="285.5" y2="319.166"/>
  <line class="icon-path-line" x1="528.495" y1="635.1" x2="537.99" y2="635.1"/>
  <line class="icon-path-line" x1="547.484" y1="635.1" x2="556.978" y2="635.1"/>
  <line class="icon-path-line" x1="611.287" y1="582.3" x2="622.68" y2="582.3"/>
  <line class="icon-path-line" x1="585.462" y1="635.1" x2="594.956" y2="635.1"/>
  <line class="icon-path-line" x1="338.4" y1="282.883" x2="338.4" y2="294.883"/>
  <line class="icon-path-line" x1="623.439" y1="635.1" x2="632.934" y2="635.1"/>
  <line class="icon-path-line" x1="604.451" y1="635.1" x2="613.945" y2="635.1"/>
  <line class="icon-path-line" x1="566.473" y1="635.1" x2="575.967" y2="635.1"/>
  <line class="icon-path-line" x1="433.551" y1="635.1" x2="443.045" y2="635.1"/>
  <line class="icon-path-line" x1="509.506" y1="635.1" x2="519.001" y2="635.1"/>
  <line class="icon-path-line" x1="414.562" y1="635.1" x2="424.056" y2="635.1"/>
  <line class="icon-path-line" x1="285.5" y1="289.166" x2="285.5" y2="299.166"/>
  <line class="icon-path-line" x1="452.54" y1="635.1" x2="462.034" y2="635.1"/>
  <line class="icon-path-line" x1="285.5" y1="269.166" x2="285.5" y2="279.166"/>
  <line class="icon-path-line" x1="490.517" y1="635.1" x2="500.012" y2="635.1"/>
  <line class="icon-path-line" x1="285.5" y1="227.166" x2="285.5" y2="239.166"/>
  <line class="icon-path-line" x1="285.5" y1="249.166" x2="285.5" y2="259.166"/>
  <line class="icon-path-line" x1="471.529" y1="635.1" x2="481.023" y2="635.1"/>
  <line class="icon-path-line" x1="373.926" y1="582.3" x2="383.42" y2="582.3"/>
  <line class="icon-path-line" x1="319.618" y1="635.1" x2="310.123" y2="635.1"/>
  <line class="icon-path-line" x1="285.5" y1="609.166" x2="285.5" y2="599.166"/>
  <line class="icon-path-line" x1="285.5" y1="269.166" x2="285.5" y2="259.166"/>
  <line class="icon-path-line" x1="376.584" y1="635.1" x2="367.09" y2="635.1"/>
  <line class="icon-path-line" x1="357.595" y1="635.1" x2="348.101" y2="635.1"/>
  <line class="icon-path-line" x1="395.573" y1="635.1" x2="386.079" y2="635.1"/>
  <line class="icon-path-line" x1="338.4" y1="334.883" x2="338.4" y2="344.883"/>
  <line class="icon-path-line" x1="338.4" y1="384.883" x2="338.4" y2="394.883"/>
  <line class="icon-path-line" x1="338.4" y1="374.883" x2="338.4" y2="384.883"/>
  <line class="icon-path-line" x1="285.5" y1="629.166" x2="285.5" y2="619.166"/>
  <line class="icon-path-line" x1="338.607" y1="635.1" x2="329.112" y2="635.1"/>
  <line class="icon-path-line" x1="509.506" y1="635.1" x2="500.012" y2="635.1"/>
  <line class="icon-path-line" x1="547.484" y1="635.1" x2="537.99" y2="635.1"/>
  <line class="icon-path-line" x1="528.495" y1="635.1" x2="519.001" y2="635.1"/>
  <line class="icon-path-line" x1="566.473" y1="635.1" x2="556.978" y2="635.1"/>
  <line class="icon-path-line" x1="452.54" y1="635.1" x2="443.045" y2="635.1"/>
  <line class="icon-path-line" x1="414.562" y1="635.1" x2="405.068" y2="635.1"/>
  <line class="icon-path-line" x1="433.551" y1="635.1" x2="424.056" y2="635.1"/>
  <line class="icon-path-line" x1="490.517" y1="635.1" x2="481.023" y2="635.1"/>
  <line class="icon-path-line" x1="471.529" y1="635.1" x2="462.034" y2="635.1"/>
  <line class="icon-path-line" x1="338.4" y1="354.883" x2="338.4" y2="364.883"/>
  <line class="icon-path-line" x1="285.5" y1="389.166" x2="285.5" y2="379.166"/>
  <line class="icon-path-line" x1="285.5" y1="369.166" x2="285.5" y2="359.166"/>
  <line class="icon-path-line" x1="285.5" y1="409.166" x2="285.5" y2="399.166"/>
  <line class="icon-path-line" x1="285.5" y1="449.166" x2="285.5" y2="439.166"/>
  <line class="icon-path-line" x1="285.5" y1="469.166" x2="285.5" y2="459.166"/>
  <line class="icon-path-line" x1="285.5" y1="429.166" x2="285.5" y2="419.166"/>
  <line class="icon-path-line" x1="285.5" y1="309.166" x2="285.5" y2="299.166"/>
  <line class="icon-path-line" x1="285.5" y1="289.166" x2="285.5" y2="279.166"/>
  <line class="icon-path-line" x1="285.5" y1="249.166" x2="285.5" y2="239.166"/>
  <line class="icon-path-line" x1="285.5" y1="329.166" x2="285.5" y2="319.166"/>
  <line class="icon-path-line" x1="285.5" y1="349.166" x2="285.5" y2="339.166"/>
  <line class="icon-path-line" x1="585.462" y1="635.1" x2="575.967" y2="635.1"/>
  <line class="icon-path-line" x1="285.5" y1="569.166" x2="285.5" y2="559.166"/>
  <line class="icon-path-line" x1="285.5" y1="489.166" x2="285.5" y2="479.166"/>
  <line class="icon-path-line" x1="338.4" y1="364.883" x2="338.4" y2="374.883"/>
  <line class="icon-path-line" x1="285.5" y1="589.166" x2="285.5" y2="579.166"/>
  <line class="icon-path-line" x1="338.4" y1="344.883" x2="338.4" y2="354.883"/>
  <line class="icon-path-line" x1="285.5" y1="509.166" x2="285.5" y2="499.166"/>
  <line class="icon-path-line" x1="285.5" y1="529.166" x2="285.5" y2="519.166"/>
  <line class="icon-path-line" x1="285.5" y1="549.166" x2="285.5" y2="539.166"/>
  <line class="icon-path-line" x1="300.629" y1="635.1" x2="291.134" y2="635.1"/>
  <line class="icon-path-line" x1="364.431" y1="582.3" x2="373.926" y2="582.3"/>
  <line class="icon-path-line" x1="354.937" y1="582.3" x2="364.431" y2="582.3"/>
  <line class="icon-path-line" x1="338.4" y1="424.883" x2="338.4" y2="434.883"/>
  <line class="icon-path-line" x1="338.4" y1="474.883" x2="338.4" y2="484.883"/>
  <line class="icon-path-line" x1="338.4" y1="514.883" x2="338.4" y2="524.883"/>
  <line class="icon-path-line" x1="338.4" y1="544.883" x2="338.4" y2="554.883"/>
  <line class="icon-path-line" x1="338.4" y1="504.883" x2="338.4" y2="514.883"/>
  <line class="icon-path-line" x1="345.443" y1="582.3" x2="354.937" y2="582.3"/>
  <line class="icon-path-line" x1="338.4" y1="414.883" x2="338.4" y2="424.883"/>
  <line class="icon-path-line" x1="392.915" y1="582.3" x2="402.409" y2="582.3"/>
  <line class="icon-path-line" x1="338.4" y1="484.883" x2="338.4" y2="494.883"/>
  <line class="icon-path-line" x1="338.4" y1="454.883" x2="338.4" y2="464.883"/>
  <line class="icon-path-line" x1="383.42" y1="582.3" x2="392.915" y2="582.3"/>
  <line class="icon-path-line" x1="338.4" y1="464.883" x2="338.4" y2="474.883"/>
  <line class="icon-path-line" x1="338.4" y1="494.883" x2="338.4" y2="504.883"/>
  <line class="icon-path-line" x1="338.4" y1="324.883" x2="338.4" y2="334.883"/>
  <line class="icon-path-line" x1="338.4" y1="404.883" x2="338.4" y2="414.883"/>
  <line class="icon-path-line" x1="338.4" y1="444.883" x2="338.4" y2="454.883"/>
  <line class="icon-path-line" x1="338.4" y1="434.883" x2="338.4" y2="444.883"/>
  <line class="icon-path-line" x1="642.428" y1="635.1" x2="632.934" y2="635.1"/>
  <line class="icon-path-line" x1="411.904" y1="582.3" x2="421.398" y2="582.3"/>
  <line class="icon-path-line" x1="661.417" y1="635.1" x2="651.923" y2="635.1"/>
  <line class="icon-path-line" x1="684.224" y1="635.1" x2="672.81" y2="635.1"/>
  <line class="icon-path-line" x1="338.4" y1="304.883" x2="338.4" y2="314.883"/>
  <line class="icon-path-line" x1="604.451" y1="635.1" x2="594.956" y2="635.1"/>
  <polyline class="icon-path-line" points="338.4,574.883 338.4,582.3 345.443,582.3 	"/>
  <line class="icon-path-line" x1="338.4" y1="294.883" x2="338.4" y2="304.883"/>
  <line class="icon-path-line" x1="623.439" y1="635.1" x2="613.945" y2="635.1"/>
  <line class="icon-path-line" x1="402.409" y1="582.3" x2="411.904" y2="582.3"/>
  <line class="icon-path-line" x1="338.4" y1="524.883" x2="338.4" y2="534.883"/>
  <line class="icon-path-line" x1="338.4" y1="314.883" x2="338.4" y2="324.883"/>
  <line class="icon-path-line" x1="338.4" y1="564.883" x2="338.4" y2="574.883"/>
  <line class="icon-path-line" x1="338.4" y1="554.883" x2="338.4" y2="564.883"/>
  <line class="icon-path-line" x1="338.4" y1="534.883" x2="338.4" y2="544.883"/>
  <line class="icon-path-line" x1="338.4" y1="394.883" x2="338.4" y2="404.883"/>
  <line class="icon-path-line" x1="634.094" y1="582.3" x2="684.224" y2="635.1"/>
  <line class="icon-path-line" x1="285.5" y1="215.144" x2="338.4" y2="270.861"/>
  <line class="icon-path-line" x1="672.81" y1="635.1" x2="622.68" y2="582.3"/>
  <line class="icon-path-line" x1="285.5" y1="227.166" x2="338.4" y2="282.883"/>
  <line class="icon-path-line" x1="661.417" y1="635.1" x2="611.287" y2="582.3"/>
  <line class="icon-path-line" x1="338.4" y1="294.883" x2="285.5" y2="239.166"/>
  <line class="icon-path-line" x1="285.5" y1="249.166" x2="338.4" y2="304.883"/>
  <line class="icon-path-line" x1="651.923" y1="635.1" x2="601.792" y2="582.3"/>
  <line class="icon-path-line" x1="642.428" y1="635.1" x2="592.298" y2="582.3"/>
  <line class="icon-path-line" x1="285.5" y1="259.166" x2="338.4" y2="314.883"/>
  <line class="icon-path-line" x1="632.934" y1="635.1" x2="582.803" y2="582.3"/>
  <line class="icon-path-line" x1="285.5" y1="269.166" x2="338.4" y2="324.883"/>
  <line class="icon-path-line" x1="623.439" y1="635.1" x2="573.309" y2="582.3"/>
  <line class="icon-path-line" x1="285.5" y1="279.166" x2="338.4" y2="334.883"/>
  <line class="icon-path-line" x1="285.5" y1="289.166" x2="338.4" y2="344.883"/>
  <line class="icon-path-line" x1="613.945" y1="635.1" x2="563.814" y2="582.3"/>
  <line class="icon-path-line" x1="604.451" y1="635.1" x2="554.32" y2="582.3"/>
  <line class="icon-path-line" x1="285.5" y1="299.166" x2="338.4" y2="354.883"/>
  <line class="icon-path-line" x1="285.5" y1="309.166" x2="338.4" y2="364.883"/>
  <line class="icon-path-line" x1="594.956" y1="635.1" x2="544.826" y2="582.3"/>
  <line class="icon-path-line" x1="285.5" y1="319.166" x2="338.4" y2="374.883"/>
  <line class="icon-path-line" x1="585.462" y1="635.1" x2="535.331" y2="582.3"/>
  <line class="icon-path-line" x1="575.967" y1="635.1" x2="525.837" y2="582.3"/>
  <line class="icon-path-line" x1="285.5" y1="329.166" x2="338.4" y2="384.883"/>
  <line class="icon-path-line" x1="566.473" y1="635.1" x2="516.342" y2="582.3"/>
  <line class="icon-path-line" x1="285.5" y1="339.166" x2="338.4" y2="394.883"/>
  <line class="icon-path-line" x1="556.978" y1="635.1" x2="506.848" y2="582.3"/>
  <line class="icon-path-line" x1="285.5" y1="349.166" x2="338.4" y2="404.883"/>
  <line class="icon-path-line" x1="285.5" y1="359.166" x2="338.4" y2="414.883"/>
  <line class="icon-path-line" x1="547.484" y1="635.1" x2="497.353" y2="582.3"/>
  <line class="icon-path-line" x1="537.99" y1="635.1" x2="487.859" y2="582.3"/>
  <line class="icon-path-line" x1="285.5" y1="369.166" x2="338.4" y2="424.883"/>
  <line class="icon-path-line" x1="285.5" y1="379.166" x2="338.4" y2="434.883"/>
  <line class="icon-path-line" x1="528.495" y1="635.1" x2="478.365" y2="582.3"/>
  <line class="icon-path-line" x1="519.001" y1="635.1" x2="468.87" y2="582.3"/>
  <line class="icon-path-line" x1="285.5" y1="389.166" x2="338.4" y2="444.883"/>
  <line class="icon-path-line" x1="285.5" y1="399.166" x2="338.4" y2="454.883"/>
  <line class="icon-path-line" x1="509.506" y1="635.1" x2="459.376" y2="582.3"/>
  <line class="icon-path-line" x1="285.5" y1="409.166" x2="338.4" y2="464.883"/>
  <line class="icon-path-line" x1="500.012" y1="635.1" x2="449.881" y2="582.3"/>
  <line class="icon-path-line" x1="490.517" y1="635.1" x2="440.387" y2="582.3"/>
  <line class="icon-path-line" x1="285.5" y1="419.166" x2="338.4" y2="474.883"/>
  <line class="icon-path-line" x1="285.5" y1="429.166" x2="338.4" y2="484.883"/>
  <line class="icon-path-line" x1="481.023" y1="635.1" x2="430.892" y2="582.3"/>
  <line class="icon-path-line" x1="285.5" y1="439.166" x2="338.4" y2="494.883"/>
  <line class="icon-path-line" x1="471.529" y1="635.1" x2="421.398" y2="582.3"/>
  <line class="icon-path-line" x1="462.034" y1="635.1" x2="411.904" y2="582.3"/>
  <line class="icon-path-line" x1="285.5" y1="449.166" x2="338.4" y2="504.883"/>
  <line class="icon-path-line" x1="452.54" y1="635.1" x2="402.409" y2="582.3"/>
  <line class="icon-path-line" x1="285.5" y1="459.166" x2="338.4" y2="514.883"/>
  <line class="icon-path-line" x1="285.5" y1="469.166" x2="338.4" y2="524.883"/>
  <line class="icon-path-line" x1="443.045" y1="635.1" x2="392.915" y2="582.3"/>
  <line class="icon-path-line" x1="285.5" y1="479.166" x2="338.4" y2="534.883"/>
  <line class="icon-path-line" x1="433.551" y1="635.1" x2="383.42" y2="582.3"/>
  <line class="icon-path-line" x1="424.056" y1="635.1" x2="373.926" y2="582.3"/>
  <line class="icon-path-line" x1="285.5" y1="489.166" x2="338.4" y2="544.883"/>
  <line class="icon-path-line" x1="414.562" y1="635.1" x2="364.431" y2="582.3"/>
  <line class="icon-path-line" x1="285.5" y1="499.166" x2="338.4" y2="554.883"/>
  <line class="icon-path-line" x1="285.5" y1="509.166" x2="338.4" y2="564.883"/>
  <line class="icon-path-line" x1="405.068" y1="635.1" x2="354.937" y2="582.3"/>
  <line class="icon-path-line" x1="395.573" y1="635.1" x2="345.443" y2="582.3"/>
  <line class="icon-path-line" x1="285.5" y1="519.166" x2="338.4" y2="574.883"/>
  <line class="icon-path-line" x1="386.079" y1="635.1" x2="285.5" y2="529.166"/>
  <line class="icon-path-line" x1="376.584" y1="635.1" x2="285.5" y2="539.166"/>
  <line class="icon-path-line" x1="367.09" y1="635.1" x2="285.5" y2="549.166"/>
  <line class="icon-path-line" x1="357.595" y1="635.1" x2="285.5" y2="559.166"/>
  <line class="icon-path-line" x1="348.101" y1="635.1" x2="285.5" y2="569.166"/>
  <line class="icon-path-line" x1="338.607" y1="635.1" x2="285.5" y2="579.166"/>
  <line class="icon-path-line" x1="329.112" y1="635.1" x2="285.5" y2="589.166"/>
  <line class="icon-path-line" x1="319.618" y1="635.1" x2="285.5" y2="599.166"/>
  <line class="icon-path-line" x1="310.123" y1="635.1" x2="285.5" y2="609.166"/>
  <line class="icon-path-line" x1="300.629" y1="635.1" x2="285.5" y2="619.166"/>
  <line class="icon-path-line" x1="291.134" y1="635.1" x2="285.5" y2="629.166"/>
</g>
</svg>
