<?xml version="1.0" encoding="utf-8"?>
<!-- Generator: Adobe Illustrator 22.1.0, SVG Export Plug-In . SVG Version: 6.00 Build 0)  -->
<svg version="1.1" id="Layer_1" xmlns="http://www.w3.org/2000/svg" xmlns:xlink="http://www.w3.org/1999/xlink" x="0px" y="0px"
	 width="324px" height="90px" viewBox="0 0 324 90" style="enable-background:new 0 0 324 90;" xml:space="preserve">
<style type="text/css">
	.st0{fill:#0072BC;}
	.st1{fill:url(#SVGID_1_);}
	.st2{fill:none;}
</style>
<g>
	<g>
		<g>
			<path d="M106.879,39.402h6.359v4.475l0.118,0.117c2.002-3.355,5.476-5.418,9.48-5.418c6.595,0,10.775,3.533,10.775,10.365v20.902
				H126.9V50.707c-0.118-4.77-2.002-6.83-5.947-6.83c-4.476,0-7.361,3.533-7.361,8.008v17.959h-6.712V39.402z"/>
			<path d="M162.406,63.072c0,1.648,0.353,2.297,1.59,2.297c0.412,0,0.942,0,1.648-0.117v4.65c-1.001,0.354-3.121,0.766-4.239,0.766
				c-2.709,0-4.652-0.941-5.182-3.709c-2.649,2.592-6.948,3.709-10.54,3.709c-5.476,0-10.422-2.943-10.422-8.891
				c0-7.596,6.065-8.832,11.718-9.48c4.829-0.883,9.127-0.354,9.127-4.299c0-3.475-3.592-4.121-6.3-4.121
				c-3.769,0-6.418,1.531-6.713,4.828h-6.713c0.471-7.832,7.125-10.129,13.838-10.129c5.947,0,12.189,2.416,12.189,8.834V63.072z
				 M155.693,54.593c-2.061,1.354-5.299,1.295-8.244,1.824c-2.885,0.473-5.476,1.531-5.476,5.064c0,3.004,3.827,3.887,6.183,3.887
				c2.944,0,7.537-1.531,7.537-5.771V54.593z"/>
			<path d="M173.299,60.07c0.353,3.885,3.297,5.299,6.889,5.299c2.532,0,6.948-0.529,6.771-4.004
				c-0.176-3.533-5.064-3.945-9.951-5.064c-4.946-1.061-9.774-2.826-9.774-9.01c0-6.652,7.184-8.715,12.719-8.715
				c6.242,0,11.895,2.592,12.719,9.363h-7.007c-0.589-3.18-3.238-4.062-6.183-4.062c-1.943,0-5.535,0.471-5.535,3.121
				c0,3.297,4.946,3.768,9.893,4.887c4.887,1.119,9.833,2.885,9.833,8.891c0,7.244-7.302,9.893-13.602,9.893
				c-7.655,0-13.367-3.414-13.484-10.598H173.299z"/>
			<path d="M201.268,60.07c0.353,3.885,3.297,5.299,6.889,5.299c2.532,0,6.948-0.529,6.771-4.004
				c-0.176-3.533-5.064-3.945-9.951-5.064c-4.946-1.061-9.774-2.826-9.774-9.01c0-6.652,7.184-8.715,12.719-8.715
				c6.242,0,11.895,2.592,12.719,9.363h-7.007c-0.589-3.18-3.238-4.062-6.183-4.062c-1.943,0-5.535,0.471-5.535,3.121
				c0,3.297,4.946,3.768,9.893,4.887c4.887,1.119,9.833,2.885,9.833,8.891c0,7.244-7.302,9.893-13.602,9.893
				c-7.655,0-13.367-3.414-13.484-10.598H201.268z"/>
			<path d="M249.67,63.072c0,1.648,0.353,2.297,1.59,2.297c0.412,0,0.942,0,1.648-0.117v4.65c-1.001,0.354-3.121,0.766-4.239,0.766
				c-2.709,0-4.652-0.941-5.182-3.709c-2.649,2.592-6.948,3.709-10.54,3.709c-5.476,0-10.422-2.943-10.422-8.891
				c0-7.596,6.065-8.832,11.718-9.48c4.829-0.883,9.127-0.354,9.127-4.299c0-3.475-3.592-4.121-6.3-4.121
				c-3.769,0-6.418,1.531-6.713,4.828h-6.713c0.471-7.832,7.125-10.129,13.838-10.129c5.947,0,12.189,2.416,12.189,8.834V63.072z
				 M242.957,54.593c-2.061,1.354-5.299,1.295-8.244,1.824c-2.885,0.473-5.476,1.531-5.476,5.064c0,3.004,3.827,3.887,6.183,3.887
				c2.944,0,7.537-1.531,7.537-5.771V54.593z"/>
			<path d="M255.676,27.8h6.713v42.043h-6.713V27.8z"/>
		</g>
	</g>
	<g>
		<g>
			<path d="M269.552,64.99h-1.763v4.854h-1.119V64.99h-1.763v-0.909h4.646V64.99z M273.574,68.165l1.567-4.085h1.609v5.763h-1.049
				V65.34h-0.028l-1.721,4.504h-0.784l-1.721-4.504h-0.028v4.504h-1.049v-5.763h1.623L273.574,68.165z"/>
		</g>
	</g>
	<polygon class="st0" points="73.328,32.501 89.099,32.501 89.099,57.842 94.222,66.01 94.222,27.379 70.094,27.379 	"/>
	<polygon class="st0" points="86.239,64.72 56.876,64.72 56.876,33.955 51.753,28.535 51.753,69.843 90.962,69.843 	"/>
	<g>
		<linearGradient id="SVGID_1_" gradientUnits="userSpaceOnUse" x1="46.4405" y1="44.6684" x2="94.2219" y2="44.6684">
			<stop  offset="0" style="stop-color:#52CAF5"/>
			<stop  offset="0.0163" style="stop-color:#52C3F0"/>
			<stop  offset="0.2574" style="stop-color:#3E83C0"/>
			<stop  offset="0.4519" style="stop-color:#315CA4"/>
			<stop  offset="0.5904" style="stop-color:#2B4395"/>
			<stop  offset="0.6599" style="stop-color:#2B3990"/>
			<stop  offset="1" style="stop-color:#1C155E"/>
		</linearGradient>
		<path class="st1" d="M46.44,19.494h15.715l32.066,50.348L46.44,19.494z"/>
	</g>
</g>
<rect x="-0.405" y="0.081" class="st2" width="324" height="90"/>
</svg>
