<?xml version="1.0" encoding="utf-8"?>
<!-- Generator: Adobe Illustrator 22.1.0, SVG Export Plug-In . SVG Version: 6.00 Build 0)  -->
<svg version="1.1" id="Layer_1" xmlns="http://www.w3.org/2000/svg" xmlns:xlink="http://www.w3.org/1999/xlink" x="0px" y="0px"
	 width="297.274px" height="62.026px" viewBox="0 0 297.274 62.026" style="enable-background:new 0 0 297.274 62.026;"
	 xml:space="preserve">
<style type="text/css">
	.st0{fill:#5C2F92;}
	.st1{fill:url(#SVGID_1_);}
</style>
<g>
	<g>
		<path d="M289.85,44.948h-1.818v5.006h-1.154v-5.006h-1.818V44.01h4.791V44.948z M293.998,48.223l1.616-4.213h1.66v5.944h-1.082
			v-4.646h-0.029l-1.775,4.646h-0.808l-1.775-4.646h-0.029v4.646h-1.082V44.01h1.674L293.998,48.223z"/>
	</g>
	<g>
		<path d="M59.614,7.912h6.713v42.043h-6.713V7.912z"/>
		<path d="M76.278,36.47c0,4.77,2.591,9.009,8.185,9.009c3.886,0,6.242-1.707,7.419-5.063h6.359
			c-1.472,6.653-7.125,10.363-13.779,10.363c-9.539,0-14.897-6.653-14.897-16.017c0-8.655,5.653-16.075,14.721-16.075
			c9.598,0,15.486,8.656,14.368,17.783H76.278z M91.941,32.054c-0.235-4.24-3.121-8.067-7.655-8.067
			c-4.652,0-7.832,3.533-8.008,8.067H91.941z"/>
		<path d="M108.193,33.938l-10.54-14.426h8.126l6.359,9.362l6.654-9.362h7.772l-10.363,14.072l11.659,16.37h-8.067l-7.714-11.247
			l-7.478,11.247H96.71L108.193,33.938z"/>
		<path d="M130.391,7.912h6.713v6.359h-6.713V7.912z M130.391,19.512h6.713v30.442h-6.713V19.512z"/>
		<path d="M141.814,19.512h6.359v4.475l0.117,0.118c2.003-3.356,5.477-5.418,9.48-5.418c6.596,0,10.776,3.533,10.776,10.364v20.903
			h-6.713V30.818c-0.118-4.771-2.002-6.831-5.947-6.831c-4.476,0-7.36,3.533-7.36,8.008v17.96h-6.713V19.512z"/>
		<path d="M201.168,48.365c0,9.127-5.358,13.661-14.957,13.661c-6.124,0-13.013-2.355-13.602-9.48h6.713
			c0.824,3.827,3.886,4.476,7.301,4.476c5.418,0,7.832-2.768,7.832-7.773v-4.651h-0.118c-1.884,3.356-5.358,5.358-9.127,5.358
			c-9.656,0-13.661-7.302-13.661-16.017c0-8.185,5.123-15.251,13.779-15.251c3.827,0,7.302,1.59,9.009,5.006h0.118v-4.181h6.713
			V48.365z M194.455,34.056c0-5.241-2.355-10.069-8.185-10.069c-5.947,0-8.009,5.535-8.009,10.6c0,5.005,2.414,10.068,8.009,10.068
			C192.218,44.655,194.455,39.238,194.455,34.056z"/>
		<path d="M203.463,19.512h5.064v-9.127h6.713v9.127h6.064v5.005h-6.064v16.252c0,2.768,0.235,4.181,3.238,4.181
			c0.942,0,1.885,0,2.826-0.235v5.182c-1.472,0.117-2.885,0.353-4.357,0.353c-7.007,0-8.302-2.708-8.42-7.772V24.517h-5.064V19.512z
			"/>
		<path d="M222.129,34.704c0-9.304,5.594-16.017,15.368-16.017s15.369,6.713,15.369,16.017c0,9.362-5.595,16.075-15.369,16.075
			S222.129,44.066,222.129,34.704z M246.153,34.704c0-5.24-2.65-10.717-8.656-10.717s-8.655,5.477-8.655,10.717
			c0,5.3,2.649,10.775,8.655,10.775S246.153,40.003,246.153,34.704z"/>
		<path d="M255.868,19.512h6.359v4.475l0.117,0.118c2.003-3.356,5.477-5.418,9.48-5.418c6.596,0,10.776,3.533,10.776,10.364v20.903
			h-6.713V30.818c-0.118-4.771-2.002-6.831-5.947-6.831c-4.476,0-7.36,3.533-7.36,8.008v17.96h-6.713V19.512z"/>
	</g>
	<g>
		<g>
			<polygon class="st0" points="26.887,13.007 42.659,13.007 42.659,38.348 47.781,46.516 47.781,7.885 23.653,7.885 			"/>
			<polygon class="st0" points="39.798,45.226 10.436,45.226 10.436,14.461 5.313,9.041 5.313,50.348 44.521,50.348 			"/>
		</g>
		<g>
			<linearGradient id="SVGID_1_" gradientUnits="userSpaceOnUse" x1="0" y1="25.1742" x2="47.7814" y2="25.1742">
				<stop  offset="0.1789" style="stop-color:#C12990"/>
				<stop  offset="0.688" style="stop-color:#6F2B90"/>
				<stop  offset="1" style="stop-color:#4E0B42"/>
			</linearGradient>
			<path class="st1" d="M0,0h15.715l32.066,50.348L0,0z"/>
		</g>
	</g>
</g>
</svg>
