<?xml version="1.0" encoding="utf-8"?>
<!-- Generator: Adobe Illustrator 22.1.0, SVG Export Plug-In . SVG Version: 6.00 Build 0)  -->
<svg version="1.1" id="Layer_1" xmlns="http://www.w3.org/2000/svg" xmlns:xlink="http://www.w3.org/1999/xlink" x="0px" y="0px"
	 width="324px" height="90px" viewBox="0 0 324 90" style="enable-background:new 0 0 324 90;" xml:space="preserve">
<style type="text/css">
	.st0{fill:#9D9FA2;}
	.st1{fill:#ED1944;}
	.st2{fill:url(#SVGID_1_);}
</style>
<g>
	<path d="M287.724,63.836h-1.763v4.854h-1.119v-4.854h-1.763v-0.909h4.645V63.836z M291.746,67.012l1.567-4.085h1.609v5.763
		l-1.049,0v-4.504h-0.028l-1.721,4.504h-0.783l-1.721-4.504h-0.028v4.504h-1.049v-5.763h1.623L291.746,67.012z"/>
	<path class="st0" d="M109.766,39.16h6.358v4.474l0.117,0.118c2.002-3.356,5.476-5.417,9.479-5.417
		c6.594,0,10.774,3.533,10.774,10.362v20.901h-6.712V50.464c-0.117-4.769-2.001-6.829-5.946-6.829c-4.474,0-7.359,3.533-7.359,8.007
		v17.956h-6.712V39.16z"/>
	<path d="M130.43,39.16h5.004v-2.531c0-7.772,4.063-9.067,8.419-9.067c2.119,0,3.65,0.118,4.71,0.412v5.24
		c-0.883-0.236-1.766-0.354-3.12-0.354c-1.825,0-3.297,0.648-3.297,3.179v3.12h5.711v5.004h-5.711v25.434h-6.712V44.165h-5.004
		V39.16z"/>
	<path d="M177.295,69.598h-6.594V65.36h-0.118c-1.648,3.062-5.298,5.063-8.655,5.063c-7.948,0-11.362-4.004-11.362-11.951V39.16
		h6.712v18.663c0,5.357,2.178,7.3,5.828,7.3c5.593,0,7.477-3.592,7.477-8.301V39.16h6.712V69.598z"/>
	<path d="M186.835,59.825c0.353,3.886,3.297,5.299,6.888,5.299c2.531,0,6.947-0.53,6.771-4.004c-0.177-3.532-5.063-3.944-9.95-5.063
		c-4.946-1.059-9.773-2.826-9.773-9.007c0-6.653,7.183-8.714,12.717-8.714c6.24,0,11.892,2.591,12.717,9.361h-7.006
		c-0.589-3.179-3.238-4.062-6.182-4.062c-1.943,0-5.535,0.472-5.535,3.121c0,3.296,4.946,3.768,9.891,4.887
		c4.887,1.119,9.832,2.884,9.832,8.889c0,7.242-7.3,9.891-13.6,9.891c-7.653,0-13.364-3.415-13.482-10.597H186.835z"/>
	<path d="M209.916,27.562h6.712v6.359h-6.712V27.562z M209.916,39.16h6.712v30.438h-6.712V39.16z"/>
	<path d="M219.925,54.35c0-9.302,5.593-16.014,15.367-16.014s15.366,6.712,15.366,16.014c0,9.361-5.593,16.073-15.366,16.073
		S219.925,63.711,219.925,54.35z M243.946,54.35c0-5.24-2.649-10.715-8.655-10.715s-8.655,5.475-8.655,10.715
		c0,5.299,2.649,10.774,8.655,10.774S243.946,59.649,243.946,54.35z"/>
	<path d="M253.663,39.16h6.358v4.474l0.117,0.118c2.002-3.356,5.476-5.417,9.479-5.417c6.594,0,10.774,3.533,10.774,10.362v20.901
		h-6.712V50.464c-0.117-4.769-2.001-6.829-5.946-6.829c-4.474,0-7.359,3.533-7.359,8.007v17.956h-6.712V39.16z"/>
	<g>
		<g>
			<polygon class="st1" points="76.327,32.582 92.099,32.582 92.099,58.57 97.222,66.738 97.222,27.46 73.093,27.46 			"/>
			<polygon class="st1" points="89.86,64.802 59.875,64.802 59.875,34.036 54.752,28.616 54.752,69.925 94.583,69.925 			"/>
		</g>
		<g>
			<linearGradient id="SVGID_1_" gradientUnits="userSpaceOnUse" x1="49.4394" y1="44.7497" x2="97.222" y2="44.7497">
				<stop  offset="0" style="stop-color:#F58220"/>
				<stop  offset="0.4876" style="stop-color:#ED1B2E"/>
				<stop  offset="1" style="stop-color:#A31421"/>
			</linearGradient>
			<path class="st2" d="M49.439,19.575h15.715l32.067,50.35L49.439,19.575z"/>
		</g>
	</g>
</g>
</svg>
