<?xml version="1.0" encoding="utf-8"?>
<!-- Generator: Adobe Illustrator 22.1.0, SVG Export Plug-In . SVG Version: 6.00 Build 0)  -->
<svg version="1.1" id="Layer_1" xmlns="http://www.w3.org/2000/svg" xmlns:xlink="http://www.w3.org/1999/xlink" x="0px" y="0px"
	 width="324px" height="90px" viewBox="0 0 324 90" style="enable-background:new 0 0 324 90;" xml:space="preserve">
<style type="text/css">
	.st0{fill:none;}
	.st1{fill:#5C2F92;}
	.st2{fill:url(#SVGID_1_);}
</style>
<rect x="-0.405" y="0.081" class="st0" width="324" height="90"/>
<g>
	<g>
		<path d="M305.251,64.443h-1.818v5.006h-1.154v-5.006h-1.818v-0.938h4.791V64.443z M309.399,67.718l1.616-4.213h1.66v5.944h-1.082
			v-4.646h-0.029l-1.775,4.646h-0.808l-1.775-4.646h-0.029v4.646h-1.082v-5.944h1.674L309.399,67.718z"/>
	</g>
	<g>
		<path d="M75.016,27.406h6.713v42.043h-6.713V27.406z"/>
		<path d="M91.679,55.964c0,4.77,2.591,9.009,8.185,9.009c3.886,0,6.242-1.707,7.419-5.063h6.359
			c-1.472,6.653-7.125,10.363-13.779,10.363c-9.539,0-14.897-6.653-14.897-16.017c0-8.655,5.653-16.075,14.721-16.075
			c9.598,0,15.486,8.656,14.368,17.783H91.679z M107.342,51.548c-0.235-4.24-3.121-8.067-7.655-8.067
			c-4.652,0-7.832,3.533-8.008,8.067H107.342z"/>
		<path d="M123.594,53.432l-10.54-14.426h8.126l6.359,9.362l6.654-9.362h7.772l-10.363,14.072l11.659,16.37h-8.067l-7.714-11.247
			l-7.478,11.247h-7.891L123.594,53.432z"/>
		<path d="M145.793,27.406h6.713v6.359h-6.713V27.406z M145.793,39.006h6.713v30.442h-6.713V39.006z"/>
		<path d="M157.216,39.006h6.359v4.475l0.117,0.118c2.003-3.356,5.477-5.418,9.48-5.418c6.596,0,10.776,3.533,10.776,10.364v20.903
			h-6.713V50.312c-0.118-4.771-2.002-6.831-5.947-6.831c-4.476,0-7.36,3.533-7.36,8.008v17.96h-6.713V39.006z"/>
		<path d="M216.569,67.859c0,9.127-5.358,13.661-14.957,13.661c-6.124,0-13.013-2.355-13.602-9.48h6.713
			c0.824,3.827,3.886,4.476,7.301,4.476c5.418,0,7.832-2.768,7.832-7.773V64.09h-0.118c-1.884,3.356-5.358,5.358-9.127,5.358
			c-9.656,0-13.661-7.302-13.661-16.017c0-8.185,5.123-15.251,13.779-15.251c3.827,0,7.302,1.59,9.009,5.006h0.118v-4.181h6.713
			V67.859z M209.857,53.55c0-5.241-2.355-10.069-8.185-10.069c-5.947,0-8.009,5.535-8.009,10.6c0,5.005,2.414,10.068,8.009,10.068
			C207.619,64.149,209.857,58.732,209.857,53.55z"/>
		<path d="M218.864,39.006h5.064v-9.127h6.713v9.127h6.064v5.005h-6.064v16.252c0,2.768,0.235,4.181,3.238,4.181
			c0.942,0,1.885,0,2.826-0.235v5.182c-1.472,0.117-2.885,0.353-4.357,0.353c-7.007,0-8.302-2.708-8.42-7.772V44.011h-5.064V39.006z
			"/>
		<path d="M237.53,54.198c0-9.304,5.594-16.017,15.368-16.017s15.369,6.713,15.369,16.017c0,9.362-5.595,16.075-15.369,16.075
			S237.53,63.56,237.53,54.198z M261.555,54.198c0-5.24-2.65-10.717-8.656-10.717s-8.655,5.477-8.655,10.717
			c0,5.3,2.649,10.775,8.655,10.775S261.555,59.498,261.555,54.198z"/>
		<path d="M271.27,39.006h6.359v4.475l0.117,0.118c2.003-3.356,5.477-5.418,9.48-5.418c6.596,0,10.776,3.533,10.776,10.364v20.903
			h-6.713V50.312c-0.118-4.771-2.002-6.831-5.947-6.831c-4.476,0-7.36,3.533-7.36,8.008v17.96h-6.713V39.006z"/>
	</g>
	<g>
		<g>
			<polygon class="st1" points="42.289,32.501 58.06,32.501 58.06,57.842 63.183,66.01 63.183,27.379 39.055,27.379 			"/>
			<polygon class="st1" points="55.2,64.72 25.837,64.72 25.837,33.955 20.714,28.535 20.714,69.843 59.923,69.843 			"/>
		</g>
		<g>
			<linearGradient id="SVGID_1_" gradientUnits="userSpaceOnUse" x1="15.4016" y1="44.6684" x2="63.183" y2="44.6684">
				<stop  offset="0.1789" style="stop-color:#C12990"/>
				<stop  offset="0.688" style="stop-color:#6F2B90"/>
				<stop  offset="1" style="stop-color:#4E0B42"/>
			</linearGradient>
			<path class="st2" d="M15.402,19.494h15.715l32.066,50.348L15.402,19.494z"/>
		</g>
	</g>
</g>
</svg>
