<?xml version="1.0" encoding="utf-8"?>
<!-- Generator: Adobe Illustrator 22.1.0, SVG Export Plug-In . SVG Version: 6.00 Build 0)  -->
<svg version="1.1" id="Layer_1" xmlns="http://www.w3.org/2000/svg" xmlns:xlink="http://www.w3.org/1999/xlink" x="0px" y="0px"
	 width="230.31px" height="51.173px" viewBox="0 0 230.31 51.173" style="enable-background:new 0 0 230.31 51.173;"
	 xml:space="preserve">
<style type="text/css">
	.st0{fill:#0072BC;}
	.st1{fill:url(#SVGID_1_);}
</style>
<g>
	<g>
		<g>
			<path d="M60.439,19.908h6.359v4.475l0.118,0.117c2.002-3.355,5.476-5.418,9.48-5.418c6.595,0,10.775,3.533,10.775,10.365v20.902
				h-6.712V31.212c-0.118-4.77-2.002-6.83-5.947-6.83c-4.476,0-7.361,3.533-7.361,8.008v17.959h-6.712V19.908z"/>
			<path d="M115.965,43.578c0,1.648,0.353,2.297,1.59,2.297c0.412,0,0.942,0,1.648-0.117v4.65c-1.001,0.354-3.121,0.766-4.239,0.766
				c-2.709,0-4.652-0.941-5.182-3.709c-2.649,2.592-6.948,3.709-10.54,3.709c-5.476,0-10.422-2.943-10.422-8.891
				c0-7.596,6.065-8.832,11.718-9.48c4.829-0.883,9.127-0.354,9.127-4.299c0-3.475-3.592-4.121-6.3-4.121
				c-3.769,0-6.418,1.531-6.713,4.828h-6.713c0.471-7.832,7.125-10.129,13.838-10.129c5.947,0,12.189,2.416,12.189,8.834V43.578z
				 M109.252,35.099c-2.061,1.354-5.299,1.295-8.244,1.824c-2.885,0.473-5.476,1.531-5.476,5.064c0,3.004,3.827,3.887,6.183,3.887
				c2.944,0,7.537-1.531,7.537-5.771V35.099z"/>
			<path d="M126.858,40.576c0.353,3.885,3.297,5.299,6.889,5.299c2.532,0,6.948-0.529,6.771-4.004
				c-0.176-3.533-5.064-3.945-9.951-5.064c-4.946-1.061-9.774-2.826-9.774-9.01c0-6.652,7.184-8.715,12.719-8.715
				c6.242,0,11.895,2.592,12.719,9.363h-7.007c-0.589-3.18-3.238-4.062-6.183-4.062c-1.943,0-5.535,0.471-5.535,3.121
				c0,3.297,4.946,3.768,9.893,4.887c4.887,1.119,9.833,2.885,9.833,8.891c0,7.244-7.302,9.893-13.602,9.893
				c-7.655,0-13.367-3.414-13.484-10.598H126.858z"/>
			<path d="M154.828,40.576c0.353,3.885,3.297,5.299,6.889,5.299c2.532,0,6.948-0.529,6.771-4.004
				c-0.176-3.533-5.064-3.945-9.951-5.064c-4.946-1.061-9.774-2.826-9.774-9.01c0-6.652,7.184-8.715,12.719-8.715
				c6.242,0,11.895,2.592,12.719,9.363h-7.007c-0.589-3.18-3.238-4.062-6.183-4.062c-1.943,0-5.535,0.471-5.535,3.121
				c0,3.297,4.946,3.768,9.893,4.887c4.887,1.119,9.833,2.885,9.833,8.891c0,7.244-7.302,9.893-13.602,9.893
				c-7.655,0-13.367-3.414-13.484-10.598H154.828z"/>
			<path d="M203.23,43.578c0,1.648,0.353,2.297,1.59,2.297c0.412,0,0.942,0,1.648-0.117v4.65c-1.001,0.354-3.121,0.766-4.239,0.766
				c-2.709,0-4.652-0.941-5.182-3.709c-2.649,2.592-6.948,3.709-10.54,3.709c-5.476,0-10.422-2.943-10.422-8.891
				c0-7.596,6.065-8.832,11.718-9.48c4.829-0.883,9.127-0.354,9.127-4.299c0-3.475-3.592-4.121-6.3-4.121
				c-3.769,0-6.418,1.531-6.713,4.828h-6.713c0.471-7.832,7.125-10.129,13.838-10.129c5.947,0,12.189,2.416,12.189,8.834V43.578z
				 M196.517,35.099c-2.061,1.354-5.299,1.295-8.244,1.824c-2.885,0.473-5.476,1.531-5.476,5.064c0,3.004,3.827,3.887,6.183,3.887
				c2.944,0,7.537-1.531,7.537-5.771V35.099z"/>
			<path d="M209.235,8.306h6.713v42.043h-6.713V8.306z"/>
		</g>
	</g>
	<g>
		<g>
			<path d="M223.111,45.496h-1.763v4.854h-1.119v-4.854h-1.763v-0.909h4.646V45.496z M227.133,48.671l1.567-4.085h1.609v5.763
				h-1.049v-4.504h-0.028l-1.721,4.504h-0.784l-1.721-4.504h-0.028v4.504h-1.05v-5.763h1.623L227.133,48.671z"/>
		</g>
	</g>
	<polygon class="st0" points="26.887,13.007 42.659,13.007 42.659,38.348 47.781,46.516 47.781,7.885 23.653,7.885 	"/>
	<polygon class="st0" points="39.798,45.226 10.436,45.226 10.436,14.461 5.313,9.041 5.313,50.348 44.521,50.348 	"/>
	<g>
		<linearGradient id="SVGID_1_" gradientUnits="userSpaceOnUse" x1="0" y1="25.1742" x2="47.7814" y2="25.1742">
			<stop  offset="0" style="stop-color:#52CAF5"/>
			<stop  offset="0.0163" style="stop-color:#52C3F0"/>
			<stop  offset="0.2574" style="stop-color:#3E83C0"/>
			<stop  offset="0.4519" style="stop-color:#315CA4"/>
			<stop  offset="0.5904" style="stop-color:#2B4395"/>
			<stop  offset="0.6599" style="stop-color:#2B3990"/>
			<stop  offset="1" style="stop-color:#1C155E"/>
		</linearGradient>
		<path class="st1" d="M0,0h15.715l32.066,50.348L0,0z"/>
	</g>
</g>
</svg>
