<?xml version="1.0" encoding="utf-8"?>
<!-- Generator: Adobe Illustrator 22.1.0, SVG Export Plug-In . SVG Version: 6.00 Build 0)  -->
<svg version="1.1" id="logo" xmlns="http://www.w3.org/2000/svg" xmlns:xlink="http://www.w3.org/1999/xlink" x="0px" y="0px"
   width="297.274px" height="62.026px" viewBox="0 0 297.274 62.026" style="enable-background:new 0 0 297.274 62.026;"
   xml:space="preserve">
<style type="text/css">
  .st0{fill:#5C2F92;}
  .st1{fill:url(#lexington_gradient);}
  .st2{fill:#0072BC;}
  .st3{fill:url(#nassal_gradient);}
  .st4{fill:#9D9FA2;}
  .st5{fill:#ED1944;}
  .st6{fill:url(#nfusion_gradient);}
</style>
<defs>
<linearGradient id="lexington_gradient" gradientUnits="userSpaceOnUse" x1="0" y1="38.826" x2="47.781" y2="38.826" gradientTransform="matrix(1 0 0 -1 0 64)">
  <stop offset="0.1789" style="stop-color:#C12990" />
  <stop offset="0.688" style="stop-color:#6F2B90" />
  <stop offset="1" style="stop-color:#4E0B42" />
</linearGradient>
<linearGradient id="nassal_gradient" gradientUnits="userSpaceOnUse" x1="0" y1="38.826" x2="47.781" y2="38.826" gradientTransform="matrix(1 0 0 -1 0 64)">
  <stop offset="0" style="stop-color:#52CAF5" />
  <stop offset="0.0163" style="stop-color:#52C3F0" />
  <stop offset="0.2574" style="stop-color:#3E83C0" />
  <stop offset="0.4519" style="stop-color:#315CA4" />
  <stop offset="0.5904" style="stop-color:#2B4395" />
  <stop offset="0.6599" style="stop-color:#2B3990" />
  <stop offset="1" style="stop-color:#1C155E" />
</linearGradient>
<linearGradient id="nfusion_gradient" gradientUnits="userSpaceOnUse" x1="0" y1="38.825" x2="47.782" y2="38.825" gradientTransform="matrix(1 0 0 -1 0 64)">
  <stop offset="0" style="stop-color:#F58220" />
  <stop offset="0.4876" style="stop-color:#ED1B2E" />
  <stop offset="1" style="stop-color:#A31421" />
</linearGradient>
</defs>
<g id="lexington">
  <g id="wordmark_lexington" fill="var(--wordmarkColor)">
    <g fill="var(--wordmarkColor)">
      <path d="M289.85,44.948h-1.818v5.006h-1.154v-5.006h-1.818V44.01h4.791v0.938H289.85z M293.998,48.223l1.616-4.213h1.66v5.944
        h-1.082v-4.646h-0.029l-1.775,4.646h-0.808l-1.775-4.646h-0.029v4.646h-1.082V44.01h1.674L293.998,48.223z"/>
    </g>
    <g fill="var(--wordmarkColor)">
      <path d="M59.614,7.912h6.713v42.043h-6.713C59.614,49.955,59.614,7.912,59.614,7.912z"/>
      <path d="M76.278,36.47c0,4.77,2.591,9.009,8.185,9.009c3.886,0,6.242-1.707,7.419-5.063h6.359
        c-1.472,6.653-7.125,10.363-13.779,10.363c-9.539,0-14.897-6.653-14.897-16.017c0-8.655,5.653-16.075,14.721-16.075
        c9.598,0,15.486,8.656,14.368,17.783H76.278z M91.941,32.054c-0.235-4.24-3.121-8.067-7.655-8.067
        c-4.652,0-7.832,3.533-8.008,8.067H91.941z"/>
      <path d="M108.193,33.938l-10.54-14.426h8.126l6.359,9.362l6.654-9.362h7.772l-10.363,14.072l11.659,16.37h-8.067l-7.714-11.247
        l-7.478,11.247H96.71L108.193,33.938z"/>
      <path d="M130.391,7.912h6.713v6.359h-6.713V7.912z M130.391,19.512h6.713v30.442h-6.713V19.512z"/>
      <path d="M141.814,19.512h6.359v4.475l0.117,0.118c2.003-3.356,5.477-5.418,9.48-5.418c6.596,0,10.776,3.533,10.776,10.364v20.903
        h-6.713V30.818c-0.118-4.771-2.002-6.831-5.947-6.831c-4.476,0-7.36,3.533-7.36,8.008v17.96h-6.713V19.512H141.814z"/>
      <path d="M201.168,48.365c0,9.127-5.358,13.661-14.957,13.661c-6.124,0-13.013-2.355-13.602-9.48h6.713
        c0.824,3.827,3.886,4.476,7.301,4.476c5.418,0,7.832-2.768,7.832-7.773v-4.651h-0.118c-1.884,3.356-5.358,5.358-9.127,5.358
        c-9.656,0-13.661-7.302-13.661-16.017c0-8.185,5.123-15.251,13.779-15.251c3.827,0,7.302,1.59,9.009,5.006h0.118v-4.181h6.713
        V48.365z M194.455,34.056c0-5.241-2.355-10.069-8.185-10.069c-5.947,0-8.009,5.535-8.009,10.6c0,5.005,2.414,10.068,8.009,10.068
        C192.218,44.655,194.455,39.238,194.455,34.056z"/>
      <path d="M203.463,19.512h5.064v-9.127h6.713v9.127h6.064v5.005h-6.064v16.252c0,2.768,0.235,4.181,3.238,4.181
        c0.942,0,1.885,0,2.826-0.235v5.182c-1.472,0.117-2.885,0.353-4.357,0.353c-7.007,0-8.302-2.708-8.42-7.772V24.517h-5.064
        L203.463,19.512L203.463,19.512z"/>
      <path d="M222.129,34.704c0-9.304,5.594-16.017,15.368-16.017s15.369,6.713,15.369,16.017c0,9.362-5.595,16.075-15.369,16.075
        S222.129,44.066,222.129,34.704z M246.153,34.704c0-5.24-2.65-10.717-8.656-10.717s-8.655,5.477-8.655,10.717
        c0,5.3,2.649,10.775,8.655,10.775S246.153,40.003,246.153,34.704z"/>
      <path d="M255.868,19.512h6.359v4.475l0.117,0.118c2.003-3.356,5.477-5.418,9.48-5.418c6.596,0,10.776,3.533,10.776,10.364v20.903
        h-6.713V30.818c-0.118-4.771-2.002-6.831-5.947-6.831c-4.476,0-7.36,3.533-7.36,8.008v17.96h-6.713L255.868,19.512
        L255.868,19.512z"/>
    </g>
  </g>
  <g id="mark_lexingston">
    <g>
      <polygon fill="var(--brand)" points="26.887,13.007 42.659,13.007 42.659,38.348 47.781,46.516 47.781,7.885 23.653,7.885 			"/>
      <polygon fill="var(--brand)" points="39.798,45.226 10.436,45.226 10.436,14.461 5.313,9.041 5.313,50.348 44.521,50.348 			"/>
    </g>
    <g fill="url(#lexington_gradient)">


      <path fill="url(#lexington_gradient)" class="st1" d="M0,0h15.715l32.066,50.348L0,0z"/>
    </g>
  </g>
</g>
<g id="nassal">
  <g id="wordmark_nassal" fill="#00000">
    <g fill="var(--wordmarkColor)">
      <g fill="var(--wordmarkColor)">
        <path d="M60.439,19.908h6.359v4.475l0.118,0.117c2.002-3.355,5.476-5.418,9.48-5.418c6.595,0,10.775,3.533,10.775,10.365v20.902
          h-6.712V31.212c-0.118-4.77-2.002-6.83-5.947-6.83c-4.476,0-7.361,3.533-7.361,8.008v17.959h-6.712
          C60.439,50.349,60.439,19.908,60.439,19.908z"/>
        <path d="M115.965,43.578c0,1.648,0.353,2.297,1.59,2.297c0.412,0,0.942,0,1.648-0.117v4.65
          c-1.001,0.354-3.121,0.766-4.239,0.766c-2.709,0-4.652-0.941-5.182-3.709c-2.649,2.592-6.948,3.709-10.54,3.709
          c-5.476,0-10.422-2.943-10.422-8.891c0-7.596,6.065-8.832,11.718-9.48c4.829-0.883,9.127-0.354,9.127-4.299
          c0-3.475-3.592-4.121-6.3-4.121c-3.769,0-6.418,1.531-6.713,4.828h-6.713c0.471-7.832,7.125-10.129,13.838-10.129
          c5.947,0,12.189,2.416,12.189,8.834v15.662H115.965z M109.252,35.099c-2.061,1.354-5.299,1.295-8.244,1.824
          c-2.885,0.473-5.476,1.531-5.476,5.064c0,3.004,3.827,3.887,6.183,3.887c2.944,0,7.537-1.531,7.537-5.771V35.099z"/>
        <path d="M126.858,40.576c0.353,3.885,3.297,5.299,6.889,5.299c2.532,0,6.948-0.529,6.771-4.004
          c-0.176-3.533-5.064-3.945-9.951-5.064c-4.946-1.061-9.774-2.826-9.774-9.01c0-6.652,7.184-8.715,12.719-8.715
          c6.242,0,11.895,2.592,12.719,9.363h-7.007c-0.589-3.18-3.238-4.062-6.183-4.062c-1.943,0-5.535,0.471-5.535,3.121
          c0,3.297,4.946,3.768,9.893,4.887c4.887,1.119,9.833,2.885,9.833,8.891c0,7.244-7.302,9.893-13.602,9.893
          c-7.655,0-13.367-3.414-13.484-10.598L126.858,40.576L126.858,40.576z"/>
        <path d="M154.828,40.576c0.353,3.885,3.297,5.299,6.889,5.299c2.532,0,6.948-0.529,6.771-4.004
          c-0.176-3.533-5.064-3.945-9.951-5.064c-4.946-1.061-9.774-2.826-9.774-9.01c0-6.652,7.184-8.715,12.719-8.715
          c6.242,0,11.895,2.592,12.719,9.363h-7.007c-0.589-3.18-3.238-4.062-6.183-4.062c-1.943,0-5.535,0.471-5.535,3.121
          c0,3.297,4.946,3.768,9.893,4.887c4.887,1.119,9.833,2.885,9.833,8.891c0,7.244-7.302,9.893-13.602,9.893
          c-7.655,0-13.367-3.414-13.484-10.598L154.828,40.576L154.828,40.576z"/>
        <path d="M203.23,43.578c0,1.648,0.353,2.297,1.59,2.297c0.412,0,0.942,0,1.648-0.117v4.65c-1.001,0.354-3.121,0.766-4.239,0.766
          c-2.709,0-4.652-0.941-5.182-3.709c-2.649,2.592-6.948,3.709-10.54,3.709c-5.476,0-10.422-2.943-10.422-8.891
          c0-7.596,6.065-8.832,11.718-9.48c4.829-0.883,9.127-0.354,9.127-4.299c0-3.475-3.592-4.121-6.3-4.121
          c-3.769,0-6.418,1.531-6.713,4.828h-6.713c0.471-7.832,7.125-10.129,13.838-10.129c5.947,0,12.189,2.416,12.189,8.834
          L203.23,43.578L203.23,43.578z M196.517,35.099c-2.061,1.354-5.299,1.295-8.244,1.824c-2.885,0.473-5.476,1.531-5.476,5.064
          c0,3.004,3.827,3.887,6.183,3.887c2.944,0,7.537-1.531,7.537-5.771V35.099z"/>
        <path d="M209.235,8.306h6.713v42.043h-6.713V8.306z"/>
      </g>
    </g>
    <g fill="var(--wordmarkColor)">
      <g fill="var(--wordmarkColor)">
        <path d="M223.111,45.496h-1.763v4.854h-1.119v-4.854h-1.763v-0.909h4.646L223.111,45.496L223.111,45.496z M227.133,48.671
          l1.567-4.085h1.609v5.763h-1.049v-4.504h-0.028l-1.721,4.504h-0.784l-1.721-4.504h-0.028v4.504h-1.05v-5.763h1.623
          L227.133,48.671z"/>
      </g>
    </g>
  </g>
  <g id="mark_nassal">
    <polygon   fill="var(--brand)" points="26.887,13.007 42.659,13.007 42.659,38.348 47.781,46.516 47.781,7.885 23.653,7.885 		"/>
    <polygon  fill="var(--brand)" points="39.798,45.226 10.436,45.226 10.436,14.461 5.313,9.041 5.313,50.348 44.521,50.348 		"/>
    <g fill="url(#nassal_gradient)">


      <path fill="url(#nassal_gradient)" d="M0,0h15.715l32.066,50.348L0,0z"/>
    </g>
  </g>
</g>
<g id="nfusion">
  <g id="wordmark_nfusion" fill="var(--wordmarkColor)">
    <path d="M238.285,44.262h-1.763v4.854h-1.119v-4.854h-1.763v-0.909h4.645V44.262z M242.307,47.437l1.567-4.085h1.609v5.763h-1.049
      v-4.504h-0.028l-1.721,4.504h-0.783l-1.721-4.504h-0.028v4.504h-1.049v-5.763h1.623L242.307,47.437z"/>
    <path class="st4" d="M60.327,19.585h6.358v4.474l0.117,0.118c2.002-3.356,5.476-5.417,9.479-5.417
      c6.594,0,10.774,3.533,10.774,10.362v20.901h-6.712V30.889c-0.117-4.769-2.001-6.829-5.946-6.829
      c-4.474,0-7.359,3.533-7.359,8.007v17.956h-6.712V19.585H60.327z" fill="#9d9fa2"/>
    <path d="M80.991,19.585h5.004v-2.531c0-7.772,4.063-9.067,8.419-9.067c2.119,0,3.65,0.118,4.71,0.412v5.24
      c-0.883-0.236-1.766-0.354-3.12-0.354c-1.825,0-3.297,0.648-3.297,3.179v3.12h5.711v5.004h-5.711v25.434h-6.712V24.59h-5.004
      V19.585z"/>
    <path d="M127.856,50.023h-6.594v-4.239h-0.118c-1.648,3.062-5.298,5.063-8.655,5.063c-7.948,0-11.362-4.004-11.362-11.951V19.585
      h6.712v18.663c0,5.357,2.178,7.3,5.828,7.3c5.593,0,7.477-3.592,7.477-8.301V19.585h6.712V50.023z"/>
    <path d="M137.395,40.25c0.353,3.886,3.297,5.299,6.888,5.299c2.531,0,6.947-0.53,6.771-4.004c-0.177-3.532-5.063-3.944-9.95-5.063
      c-4.946-1.059-9.773-2.826-9.773-9.007c0-6.653,7.183-8.714,12.717-8.714c6.24,0,11.892,2.591,12.717,9.361h-7.006
      c-0.589-3.179-3.238-4.062-6.182-4.062c-1.943,0-5.535,0.472-5.535,3.121c0,3.296,4.945,3.768,9.891,4.887
      c4.887,1.119,9.832,2.884,9.832,8.889c0,7.242-7.3,9.891-13.6,9.891c-7.653,0-13.364-3.415-13.482-10.597L137.395,40.25
      L137.395,40.25z"/>
    <path d="M160.477,7.987h6.712v6.359h-6.712V7.987z M160.477,19.585h6.712v30.438h-6.712V19.585z"/>
    <path d="M170.486,34.775c0-9.302,5.593-16.014,15.367-16.014s15.366,6.712,15.366,16.014c0,9.361-5.593,16.073-15.366,16.073
      S170.486,44.136,170.486,34.775z M194.507,34.775c0-5.24-2.649-10.715-8.655-10.715s-8.655,5.475-8.655,10.715
      c0,5.299,2.649,10.774,8.655,10.774S194.507,40.074,194.507,34.775z"/>
    <path d="M204.223,19.585h6.358v4.474l0.117,0.118c2.002-3.356,5.476-5.417,9.479-5.417c6.594,0,10.774,3.533,10.774,10.362v20.901
      h-6.712V30.889c-0.117-4.769-2.001-6.829-5.946-6.829c-4.474,0-7.359,3.533-7.359,8.007v17.956h-6.712L204.223,19.585
      L204.223,19.585z"/>
  </g>
  <g id="mark_infusion">
    <g>
      <polygon fill="var(--brand)" points="26.888,13.007 42.66,13.007 42.66,38.995 47.783,47.163 47.783,7.885 23.654,7.885 			"/>
      <polygon fill="var(--brand)"  points="40.421,45.227 10.436,45.227 10.436,14.462 5.313,9.041 5.313,50.35 45.144,50.35 			"/>
    </g>
    <g fill="url(#nfusion_gradient)">
      <path fill="url(#nfusion_gradient)" d="M0,0h15.715l32.067,50.35L0,0z"/>
    </g>
  </g>
</g>
</svg>
