<?xml version="1.0" encoding="utf-8"?>
<!-- Generator: Adobe Illustrator 22.1.0, SVG Export Plug-In . SVG Version: 6.00 Build 0)  -->
<svg version="1.1" id="Layer_1" xmlns="http://www.w3.org/2000/svg" xmlns:xlink="http://www.w3.org/1999/xlink" x="0px" y="0px"
	 width="245.483px" height="50.848px" viewBox="0 0 245.483 50.848" style="enable-background:new 0 0 245.483 50.848;"
	 xml:space="preserve">
<style type="text/css">
	.st0{fill:#9D9FA2;}
	.st1{fill:#ED1944;}
	.st2{fill:url(#SVGID_1_);}
</style>
<g>
	<path d="M238.285,44.262h-1.763v4.854h-1.119v-4.854h-1.763v-0.909l4.645,0V44.262z M242.307,47.437l1.567-4.085h1.609v5.763
		h-1.049v-4.504h-0.028l-1.721,4.504h-0.783l-1.721-4.504h-0.028v4.504h-1.049l0-5.763h1.623L242.307,47.437z"/>
	<path class="st0" d="M60.327,19.585h6.358v4.474l0.117,0.118c2.002-3.356,5.476-5.417,9.479-5.417
		c6.594,0,10.774,3.533,10.774,10.362v20.901h-6.712V30.889c-0.117-4.769-2.001-6.829-5.946-6.829c-4.474,0-7.359,3.533-7.359,8.007
		v17.956h-6.712V19.585z"/>
	<path d="M80.991,19.585h5.004v-2.531c0-7.772,4.063-9.067,8.419-9.067c2.119,0,3.65,0.118,4.71,0.412v5.24
		c-0.883-0.236-1.766-0.354-3.12-0.354c-1.825,0-3.297,0.648-3.297,3.179v3.12h5.711v5.004h-5.711v25.434h-6.712V24.59h-5.004
		V19.585z"/>
	<path d="M127.856,50.023h-6.594v-4.239h-0.118c-1.648,3.062-5.298,5.063-8.655,5.063c-7.948,0-11.362-4.004-11.362-11.951V19.585
		h6.712v18.663c0,5.357,2.178,7.3,5.828,7.3c5.593,0,7.477-3.592,7.477-8.301V19.585h6.712V50.023z"/>
	<path d="M137.395,40.25c0.353,3.886,3.297,5.299,6.888,5.299c2.531,0,6.947-0.53,6.771-4.004c-0.177-3.532-5.063-3.944-9.95-5.063
		c-4.946-1.059-9.773-2.826-9.773-9.007c0-6.653,7.183-8.714,12.717-8.714c6.24,0,11.892,2.591,12.717,9.361h-7.006
		c-0.589-3.179-3.238-4.062-6.182-4.062c-1.943,0-5.535,0.472-5.535,3.121c0,3.296,4.945,3.768,9.891,4.887
		c4.887,1.119,9.832,2.884,9.832,8.889c0,7.242-7.3,9.891-13.6,9.891c-7.653,0-13.364-3.415-13.482-10.597H137.395z"/>
	<path d="M160.477,7.987h6.712v6.359h-6.712V7.987z M160.477,19.585h6.712v30.438h-6.712V19.585z"/>
	<path d="M170.486,34.775c0-9.302,5.593-16.014,15.367-16.014s15.366,6.712,15.366,16.014c0,9.361-5.593,16.073-15.366,16.073
		S170.486,44.136,170.486,34.775z M194.507,34.775c0-5.24-2.649-10.715-8.655-10.715s-8.655,5.475-8.655,10.715
		c0,5.299,2.649,10.774,8.655,10.774S194.507,40.074,194.507,34.775z"/>
	<path d="M204.223,19.585h6.358v4.474l0.117,0.118c2.002-3.356,5.476-5.417,9.479-5.417c6.594,0,10.774,3.533,10.774,10.362v20.901
		h-6.712V30.889c-0.117-4.769-2.001-6.829-5.946-6.829c-4.474,0-7.359,3.533-7.359,8.007v17.956h-6.712V19.585z"/>
	<g>
		<g>
			<polygon class="st1" points="26.888,13.007 42.66,13.007 42.66,38.995 47.783,47.163 47.783,7.885 23.654,7.885 			"/>
			<polygon class="st1" points="40.421,45.227 10.436,45.227 10.436,14.462 5.313,9.041 5.313,50.35 45.144,50.35 			"/>
		</g>
		<g>
			<linearGradient id="SVGID_1_" gradientUnits="userSpaceOnUse" x1="0" y1="25.1748" x2="47.7826" y2="25.1748">
				<stop  offset="0" style="stop-color:#F58220"/>
				<stop  offset="0.4876" style="stop-color:#ED1B2E"/>
				<stop  offset="1" style="stop-color:#A31421"/>
			</linearGradient>
			<path class="st2" d="M0,0h15.715l32.067,50.35L0,0z"/>
		</g>
	</g>
</g>
</svg>
