<?xml version="1.0" encoding="utf-8"?>
<!-- Generator: Adobe Illustrator 22.1.0, SVG Export Plug-In . SVG Version: 6.00 Build 0)  -->
<svg version="1.1" id="Layer_1" xmlns="http://www.w3.org/2000/svg" xmlns:xlink="http://www.w3.org/1999/xlink" x="0px" y="0px"
	 width="1600px" height="750px" viewBox="0 0 1600 750" enable-background="new 0 0 1600 750" xml:space="preserve">
<g id="g1">
	<path fill="#FFFFFF" d="M434.6,153.9l3.4-6.7l-0.8-0.4l-6,11.6l11.1-6.9l-0.6-0.8l-6.4,4l40.9-44.7h89.5v-1h-89.9L434.6,153.9z"/>
	<g>
		<path fill="#FFFFFF" d="M908.292,111.357c-0.884,0.373-1.777,0.559-2.678,0.559c-1.422,0-2.7-0.247-3.835-0.741
			c-1.136-0.494-2.094-1.174-2.873-2.041c-0.78-0.866-1.378-1.885-1.794-3.055s-0.624-2.431-0.624-3.783
			c0-1.386,0.208-2.673,0.624-3.861c0.416-1.187,1.014-2.223,1.794-3.107c0.779-0.884,1.737-1.577,2.873-2.08
			c1.135-0.502,2.413-0.754,3.835-0.754c0.953,0,1.876,0.143,2.769,0.429c0.893,0.286,1.698,0.707,2.418,1.261
			s1.313,1.239,1.781,2.054c0.468,0.815,0.754,1.751,0.858,2.808h-3.9c-0.243-1.04-0.711-1.82-1.404-2.34s-1.534-0.78-2.521-0.78
			c-0.919,0-1.699,0.178-2.34,0.533c-0.642,0.355-1.162,0.832-1.561,1.43c-0.398,0.598-0.688,1.278-0.871,2.041
			c-0.182,0.763-0.272,1.551-0.272,2.366c0,0.78,0.091,1.539,0.272,2.275c0.183,0.737,0.473,1.4,0.871,1.989
			s0.919,1.062,1.561,1.417c0.641,0.355,1.421,0.533,2.34,0.533c1.352,0,2.396-0.342,3.133-1.027
			c0.736-0.685,1.165-1.677,1.287-2.977h-4.108v-3.042h7.8V111.5h-2.6l-0.416-2.106C909.982,110.33,909.176,110.984,908.292,111.357
			z"/>
		<path fill="#FFFFFF" d="M921.084,111.5V99.696h-4.576v-2.782c0.642,0.018,1.261-0.03,1.859-0.143
			c0.598-0.112,1.135-0.312,1.611-0.598c0.477-0.286,0.88-0.663,1.209-1.131s0.547-1.048,0.65-1.742h2.938v18.2H921.084z"/>
		<path fill="#FFFFFF" d="M934.031,107.496v4.004h-4.082v-4.004H934.031z"/>
		<path fill="#FFFFFF" d="M965.207,77.228c2.208,0,4.264,0.353,6.168,1.056c1.904,0.704,3.553,1.76,4.944,3.168
			c1.392,1.408,2.479,3.168,3.264,5.28c0.784,2.112,1.177,4.592,1.177,7.44c0,2.496-0.32,4.8-0.96,6.912
			c-0.641,2.112-1.608,3.936-2.904,5.472c-1.296,1.536-2.912,2.744-4.849,3.624c-1.937,0.88-4.216,1.32-6.84,1.32h-14.784V77.228
			H965.207z M964.68,105.164c1.087,0,2.144-0.176,3.168-0.528c1.023-0.352,1.936-0.936,2.735-1.752c0.8-0.816,1.44-1.879,1.92-3.192
			c0.48-1.312,0.721-2.912,0.721-4.8c0-1.728-0.168-3.288-0.504-4.68s-0.889-2.583-1.656-3.576c-0.769-0.992-1.784-1.752-3.048-2.28
			c-1.265-0.528-2.825-0.792-4.681-0.792h-5.376v21.6H964.68z"/>
		<path fill="#FFFFFF" d="M991.367,105.548c1.024,0.992,2.496,1.488,4.416,1.488c1.376,0,2.56-0.344,3.553-1.032
			c0.991-0.688,1.6-1.416,1.823-2.184h6c-0.96,2.976-2.432,5.104-4.416,6.384c-1.984,1.28-4.384,1.92-7.199,1.92
			c-1.953,0-3.713-0.312-5.28-0.936c-1.568-0.624-2.896-1.512-3.984-2.664s-1.928-2.527-2.52-4.128
			c-0.593-1.6-0.889-3.36-0.889-5.28c0-1.855,0.304-3.583,0.912-5.184c0.607-1.6,1.472-2.983,2.593-4.152
			c1.119-1.167,2.455-2.088,4.008-2.76c1.552-0.672,3.271-1.008,5.16-1.008c2.111,0,3.951,0.408,5.52,1.224
			c1.567,0.816,2.856,1.913,3.864,3.288c1.008,1.376,1.735,2.944,2.184,4.704c0.448,1.76,0.607,3.6,0.48,5.52h-17.904
			C989.783,102.956,990.343,104.557,991.367,105.548z M999.071,92.492c-0.815-0.896-2.057-1.344-3.72-1.344
			c-1.088,0-1.992,0.185-2.712,0.552c-0.72,0.368-1.296,0.824-1.729,1.368c-0.432,0.544-0.736,1.121-0.912,1.728
			c-0.176,0.608-0.28,1.152-0.312,1.632h11.088C1000.455,94.7,999.888,93.388,999.071,92.492z"/>
		<path fill="#FFFFFF" d="M1007.831,91.244v-4.56h4.08v-1.92c0-2.208,0.688-4.016,2.063-5.424c1.376-1.408,3.456-2.112,6.24-2.112
			c0.607,0,1.216,0.024,1.824,0.072c0.607,0.048,1.2,0.089,1.776,0.12v5.088c-0.801-0.096-1.633-0.144-2.496-0.144
			c-0.929,0-1.593,0.216-1.992,0.648c-0.4,0.432-0.6,1.16-0.6,2.184v1.488h4.703v4.56h-4.703V111.5h-6.816V91.244H1007.831z"/>
		<path fill="#FFFFFF" d="M1025.398,82.844v-5.616h6.815v5.616H1025.398z M1032.214,86.684V111.5h-6.815V86.684H1032.214z"/>
		<path fill="#FFFFFF" d="M1042.871,86.684v3.456h0.144c0.864-1.44,1.984-2.488,3.36-3.144c1.375-0.656,2.784-0.984,4.224-0.984
			c1.824,0,3.319,0.248,4.488,0.744c1.168,0.497,2.088,1.185,2.76,2.064c0.672,0.881,1.144,1.953,1.416,3.216
			c0.271,1.264,0.408,2.664,0.408,4.2V111.5h-6.816V97.484c0-2.047-0.32-3.576-0.96-4.584c-0.641-1.008-1.775-1.512-3.407-1.512
			c-1.856,0-3.201,0.552-4.032,1.656c-0.833,1.104-1.248,2.92-1.248,5.448V111.5h-6.816V86.684H1042.871z"/>
		<path fill="#FFFFFF" d="M1063.846,82.844v-5.616h6.815v5.616H1063.846z M1070.661,86.684V111.5h-6.815V86.684H1070.661z"/>
		<path fill="#FFFFFF" d="M1088.47,86.684v4.56h-4.991v12.288c0,1.152,0.191,1.92,0.575,2.304c0.385,0.384,1.152,0.576,2.305,0.576
			c0.384,0,0.751-0.016,1.104-0.048c0.352-0.031,0.688-0.079,1.008-0.144v5.28c-0.575,0.096-1.216,0.16-1.92,0.192
			c-0.704,0.032-1.392,0.048-2.063,0.048c-1.057,0-2.057-0.072-3-0.216c-0.944-0.144-1.776-0.424-2.496-0.84
			c-0.72-0.416-1.289-1.008-1.704-1.776c-0.416-0.768-0.624-1.776-0.624-3.024v-14.64h-4.128v-4.56h4.128v-7.44h6.816v7.44H1088.47z
			"/>
		<path fill="#FFFFFF" d="M1090.726,82.844v-5.616h6.815v5.616H1090.726z M1097.541,86.684V111.5h-6.815V86.684H1097.541z"/>
		<path fill="#FFFFFF" d="M1101.861,93.716c0.607-1.615,1.471-2.992,2.592-4.128c1.119-1.135,2.464-2.016,4.032-2.64
			c1.567-0.624,3.327-0.936,5.279-0.936s3.721,0.312,5.305,0.936c1.584,0.624,2.936,1.504,4.056,2.64
			c1.12,1.136,1.983,2.513,2.592,4.128c0.607,1.616,0.912,3.417,0.912,5.4c0,1.984-0.305,3.776-0.912,5.376
			c-0.608,1.6-1.472,2.968-2.592,4.104c-1.12,1.136-2.472,2.008-4.056,2.616s-3.353,0.912-5.305,0.912s-3.712-0.305-5.279-0.912
			c-1.568-0.607-2.913-1.479-4.032-2.616c-1.121-1.136-1.984-2.504-2.592-4.104c-0.608-1.6-0.912-3.392-0.912-5.376
			C1100.949,97.132,1101.253,95.332,1101.861,93.716z M1108.053,102.02c0.192,0.944,0.52,1.792,0.984,2.544
			c0.464,0.752,1.08,1.352,1.848,1.8c0.769,0.449,1.729,0.672,2.88,0.672c1.152,0,2.12-0.224,2.904-0.672
			c0.784-0.448,1.408-1.047,1.872-1.8c0.464-0.751,0.792-1.6,0.984-2.544c0.191-0.943,0.288-1.912,0.288-2.904
			c0-0.992-0.097-1.968-0.288-2.928c-0.192-0.96-0.521-1.808-0.984-2.544c-0.464-0.736-1.088-1.336-1.872-1.8
			s-1.752-0.696-2.904-0.696c-1.151,0-2.111,0.232-2.88,0.696c-0.768,0.464-1.384,1.064-1.848,1.8
			c-0.465,0.736-0.792,1.584-0.984,2.544c-0.191,0.96-0.288,1.937-0.288,2.928C1107.765,100.108,1107.861,101.077,1108.053,102.02z"
			/>
		<path fill="#FFFFFF" d="M1136.325,86.684v3.456h0.144c0.864-1.44,1.984-2.488,3.36-3.144c1.375-0.656,2.784-0.984,4.224-0.984
			c1.824,0,3.319,0.248,4.488,0.744c1.168,0.497,2.088,1.185,2.76,2.064c0.672,0.881,1.144,1.953,1.416,3.216
			c0.271,1.264,0.408,2.664,0.408,4.2V111.5h-6.816V97.484c0-2.047-0.32-3.576-0.96-4.584c-0.641-1.008-1.775-1.512-3.407-1.512
			c-1.856,0-3.201,0.552-4.032,1.656c-0.833,1.104-1.248,2.92-1.248,5.448V111.5h-6.816V86.684H1136.325z"/>
	</g>
</g>
</svg>
