<?xml version="1.0" encoding="utf-8"?>
<!-- Generator: Adobe Illustrator 22.1.0, SVG Export Plug-In . SVG Version: 6.00 Build 0)  -->
<svg version="1.1" id="Layer_1" xmlns="http://www.w3.org/2000/svg" xmlns:xlink="http://www.w3.org/1999/xlink" x="0px" y="0px"
	 width="1600px" height="750px" viewBox="0 0 1600 750" enable-background="new 0 0 1600 750" xml:space="preserve">
<g id="g2">
	<path fill="#FFFFFF" d="M519.35,288.4l3.4-6.7l-0.8-0.4l-6,11.6l11.1-6.9l-0.6-0.8l-6.4,4l40.9-44.7h89.5v-1h-89.9L519.35,288.4z"
		/>
	<g>
		<path fill="#FFFFFF" d="M908.292,245.857c-0.884,0.373-1.777,0.559-2.678,0.559c-1.422,0-2.7-0.247-3.835-0.741
			c-1.136-0.494-2.094-1.174-2.873-2.041c-0.78-0.866-1.378-1.885-1.794-3.055s-0.624-2.431-0.624-3.783
			c0-1.386,0.208-2.673,0.624-3.861c0.416-1.187,1.014-2.223,1.794-3.107c0.779-0.884,1.737-1.577,2.873-2.08
			c1.135-0.502,2.413-0.754,3.835-0.754c0.953,0,1.876,0.143,2.769,0.429c0.893,0.286,1.698,0.707,2.418,1.261
			s1.313,1.239,1.781,2.054c0.468,0.815,0.754,1.751,0.858,2.808h-3.9c-0.243-1.04-0.711-1.82-1.404-2.34s-1.534-0.78-2.521-0.78
			c-0.919,0-1.699,0.178-2.34,0.533c-0.642,0.355-1.162,0.832-1.561,1.43c-0.398,0.598-0.688,1.278-0.871,2.041
			c-0.182,0.763-0.272,1.551-0.272,2.366c0,0.78,0.091,1.539,0.272,2.275c0.183,0.737,0.473,1.4,0.871,1.989
			s0.919,1.062,1.561,1.417c0.641,0.355,1.421,0.533,2.34,0.533c1.352,0,2.396-0.342,3.133-1.027
			c0.736-0.685,1.165-1.677,1.287-2.977h-4.108v-3.042h7.8V246h-2.6l-0.416-2.106C909.982,244.83,909.176,245.484,908.292,245.857z"
			/>
		<path fill="#FFFFFF" d="M915.91,231.895c0.277-0.893,0.693-1.672,1.248-2.34s1.252-1.187,2.093-1.56
			c0.841-0.373,1.807-0.559,2.899-0.559c0.832,0,1.625,0.13,2.379,0.39c0.754,0.26,1.417,0.633,1.988,1.118
			c0.572,0.486,1.027,1.083,1.365,1.794c0.338,0.711,0.507,1.508,0.507,2.392c0,0.919-0.147,1.708-0.441,2.366
			c-0.295,0.659-0.686,1.244-1.17,1.755c-0.485,0.512-1.036,0.975-1.651,1.391s-1.235,0.828-1.859,1.235
			c-0.624,0.408-1.23,0.845-1.819,1.313c-0.59,0.468-1.109,1.014-1.561,1.638h8.606V246H915.13c0-1.057,0.151-1.976,0.455-2.756
			c0.303-0.78,0.715-1.478,1.235-2.093c0.52-0.615,1.131-1.183,1.833-1.703c0.702-0.52,1.442-1.049,2.223-1.586
			c0.398-0.277,0.823-0.559,1.274-0.845c0.45-0.286,0.861-0.602,1.234-0.949c0.373-0.346,0.685-0.736,0.937-1.17
			c0.251-0.433,0.377-0.927,0.377-1.482c0-0.884-0.256-1.573-0.768-2.067c-0.511-0.494-1.166-0.741-1.963-0.741
			c-0.537,0-0.992,0.126-1.365,0.377c-0.372,0.251-0.672,0.581-0.896,0.988c-0.226,0.407-0.386,0.858-0.481,1.352
			c-0.095,0.494-0.143,0.984-0.143,1.469h-3.536C915.511,233.754,915.633,232.788,915.91,231.895z"/>
		<path fill="#FFFFFF" d="M934.031,241.996V246h-4.082v-4.004H934.031z"/>
		<path fill="#FFFFFF" d="M961.031,211.728l8.016,23.568h0.097l7.584-23.568h10.607V246h-7.056v-24.288h-0.096l-8.4,24.288h-5.808
			l-8.4-24.048h-0.096V246h-7.057v-34.272H961.031z"/>
		<path fill="#FFFFFF" d="M991.751,228.816c0.097-1.6,0.496-2.928,1.2-3.984c0.703-1.056,1.6-1.903,2.688-2.544
			c1.087-0.64,2.312-1.096,3.672-1.368c1.359-0.271,2.728-0.408,4.104-0.408c1.248,0,2.512,0.088,3.792,0.264
			c1.279,0.176,2.448,0.521,3.504,1.032c1.057,0.512,1.92,1.224,2.593,2.136c0.672,0.912,1.008,2.121,1.008,3.624v12.912
			c0,1.121,0.063,2.192,0.191,3.216c0.128,1.025,0.353,1.792,0.672,2.304h-6.911c-0.129-0.384-0.232-0.775-0.312-1.176
			c-0.08-0.4-0.137-0.808-0.168-1.224c-1.088,1.121-2.368,1.904-3.84,2.352c-1.473,0.448-2.977,0.672-4.512,0.672
			c-1.185,0-2.289-0.144-3.312-0.432c-1.024-0.288-1.92-0.736-2.688-1.344c-0.769-0.607-1.368-1.375-1.801-2.304
			c-0.432-0.928-0.647-2.032-0.647-3.312c0-1.408,0.247-2.568,0.744-3.48c0.495-0.912,1.135-1.64,1.92-2.184
			c0.783-0.543,1.68-0.952,2.688-1.224c1.009-0.272,2.023-0.488,3.048-0.648c1.024-0.16,2.032-0.288,3.024-0.384
			c0.991-0.096,1.872-0.24,2.64-0.432c0.769-0.192,1.376-0.472,1.824-0.84c0.448-0.368,0.655-0.904,0.624-1.608
			c0-0.736-0.12-1.32-0.359-1.752c-0.24-0.432-0.561-0.768-0.961-1.008c-0.4-0.24-0.863-0.399-1.392-0.48
			c-0.528-0.08-1.097-0.12-1.704-0.12c-1.344,0-2.399,0.288-3.168,0.864c-0.768,0.576-1.217,1.536-1.344,2.88H991.751z
			 M1007.495,233.856c-0.288,0.256-0.647,0.456-1.08,0.6c-0.432,0.144-0.896,0.264-1.392,0.36c-0.497,0.096-1.017,0.176-1.561,0.24
			c-0.544,0.064-1.088,0.144-1.632,0.24c-0.512,0.096-1.016,0.224-1.512,0.384s-0.929,0.376-1.296,0.648
			c-0.368,0.272-0.665,0.616-0.888,1.032c-0.225,0.417-0.337,0.944-0.337,1.584c0,0.608,0.112,1.121,0.337,1.536
			c0.223,0.417,0.527,0.744,0.911,0.984c0.385,0.24,0.832,0.408,1.345,0.504c0.511,0.096,1.039,0.144,1.584,0.144
			c1.344,0,2.383-0.223,3.12-0.672c0.735-0.448,1.279-0.984,1.632-1.608c0.352-0.624,0.567-1.255,0.647-1.896
			c0.08-0.64,0.12-1.152,0.12-1.536V233.856z"/>
		<path fill="#FFFFFF" d="M1024.127,239.832c0.304,0.528,0.696,0.96,1.176,1.296c0.48,0.336,1.032,0.584,1.656,0.744
			c0.624,0.161,1.271,0.24,1.943,0.24c0.48,0,0.984-0.055,1.513-0.168c0.527-0.112,1.008-0.288,1.439-0.528
			c0.433-0.24,0.792-0.56,1.08-0.96c0.288-0.4,0.433-0.904,0.433-1.512c0-1.023-0.681-1.792-2.04-2.304
			c-1.36-0.512-3.257-1.024-5.688-1.536c-0.992-0.224-1.96-0.487-2.904-0.792c-0.943-0.304-1.784-0.704-2.52-1.2
			c-0.736-0.496-1.328-1.12-1.776-1.872s-0.672-1.672-0.672-2.76c0-1.6,0.312-2.912,0.937-3.936
			c0.624-1.024,1.447-1.832,2.472-2.424c1.023-0.592,2.176-1.008,3.456-1.248c1.279-0.24,2.592-0.36,3.936-0.36
			c1.345,0,2.647,0.128,3.912,0.384c1.264,0.256,2.392,0.688,3.385,1.296c0.991,0.608,1.815,1.416,2.472,2.424
			c0.655,1.008,1.048,2.28,1.176,3.816h-6.479c-0.097-1.312-0.593-2.2-1.488-2.664c-0.896-0.463-1.952-0.696-3.168-0.696
			c-0.384,0-0.801,0.024-1.248,0.072c-0.448,0.048-0.856,0.152-1.225,0.312c-0.368,0.161-0.68,0.392-0.936,0.696
			c-0.257,0.305-0.384,0.712-0.384,1.224c0,0.608,0.224,1.104,0.672,1.488c0.447,0.384,1.032,0.696,1.752,0.936
			c0.72,0.24,1.544,0.456,2.472,0.648c0.928,0.192,1.872,0.4,2.832,0.624c0.992,0.225,1.96,0.497,2.904,0.816
			c0.943,0.32,1.783,0.744,2.52,1.272c0.736,0.528,1.328,1.184,1.776,1.968c0.448,0.785,0.672,1.752,0.672,2.904
			c0,1.632-0.328,3-0.983,4.104c-0.656,1.104-1.513,1.992-2.568,2.664c-1.056,0.672-2.265,1.145-3.624,1.416
			c-1.36,0.271-2.744,0.408-4.152,0.408c-1.439,0-2.849-0.144-4.224-0.432c-1.376-0.288-2.601-0.768-3.672-1.44
			c-1.072-0.672-1.952-1.56-2.641-2.664s-1.063-2.488-1.128-4.152h6.48C1023.671,238.672,1023.822,239.304,1024.127,239.832z"/>
		<path fill="#FFFFFF" d="M1056.598,221.184v4.56h-4.991v12.288c0,1.152,0.191,1.92,0.575,2.304
			c0.385,0.384,1.152,0.576,2.305,0.576c0.384,0,0.751-0.016,1.104-0.048c0.352-0.031,0.688-0.079,1.008-0.144V246
			c-0.575,0.096-1.216,0.16-1.92,0.192c-0.704,0.032-1.392,0.048-2.063,0.048c-1.057,0-2.057-0.072-3-0.216
			c-0.944-0.144-1.776-0.424-2.496-0.84c-0.72-0.416-1.289-1.008-1.704-1.776c-0.416-0.768-0.624-1.776-0.624-3.024v-14.64h-4.128
			v-4.56h4.128v-7.44h6.816v7.44H1056.598z"/>
		<path fill="#FFFFFF" d="M1065.958,240.048c1.024,0.992,2.496,1.488,4.416,1.488c1.376,0,2.56-0.344,3.553-1.032
			c0.991-0.688,1.6-1.416,1.823-2.184h6c-0.96,2.976-2.432,5.104-4.416,6.384c-1.984,1.28-4.384,1.92-7.199,1.92
			c-1.953,0-3.713-0.312-5.28-0.936c-1.568-0.624-2.896-1.512-3.984-2.664s-1.928-2.527-2.52-4.128
			c-0.593-1.6-0.889-3.36-0.889-5.28c0-1.855,0.304-3.583,0.912-5.184c0.607-1.6,1.472-2.983,2.593-4.152
			c1.119-1.167,2.455-2.088,4.008-2.76c1.552-0.672,3.271-1.008,5.16-1.008c2.111,0,3.951,0.408,5.52,1.224
			c1.567,0.816,2.856,1.913,3.864,3.288c1.008,1.376,1.735,2.944,2.184,4.704c0.448,1.76,0.607,3.6,0.48,5.52h-17.904
			C1064.374,237.456,1064.934,239.057,1065.958,240.048z M1073.662,226.992c-0.815-0.896-2.057-1.344-3.72-1.344
			c-1.088,0-1.992,0.185-2.712,0.552c-0.72,0.368-1.296,0.824-1.729,1.368c-0.432,0.544-0.736,1.121-0.912,1.728
			c-0.176,0.608-0.28,1.152-0.312,1.632h11.088C1075.046,229.2,1074.479,227.888,1073.662,226.992z"/>
		<path fill="#FFFFFF" d="M1091.494,221.184v4.608h0.096c0.319-0.768,0.752-1.48,1.296-2.136c0.544-0.655,1.168-1.215,1.872-1.68
			c0.703-0.463,1.456-0.824,2.256-1.08c0.8-0.256,1.632-0.384,2.496-0.384c0.448,0,0.943,0.08,1.488,0.24v6.336
			c-0.32-0.063-0.704-0.12-1.152-0.168s-0.88-0.072-1.296-0.072c-1.248,0-2.304,0.208-3.168,0.624
			c-0.864,0.416-1.56,0.984-2.088,1.704c-0.528,0.72-0.904,1.56-1.128,2.52c-0.225,0.96-0.336,2-0.336,3.12V246h-6.816v-24.816
			H1091.494z"/>
		<path fill="#FFFFFF" d="M1108.966,221.184v3.168h0.096c0.832-1.344,1.888-2.32,3.168-2.928c1.279-0.607,2.688-0.912,4.224-0.912
			c1.952,0,3.632,0.368,5.04,1.104c1.408,0.736,2.576,1.712,3.504,2.928c0.929,1.217,1.616,2.632,2.064,4.248
			c0.448,1.616,0.672,3.305,0.672,5.064c0,1.664-0.224,3.264-0.672,4.8c-0.448,1.536-1.128,2.897-2.04,4.08
			c-0.912,1.185-2.048,2.128-3.408,2.832s-2.952,1.056-4.775,1.056c-1.536,0-2.952-0.312-4.248-0.936s-2.36-1.543-3.192-2.76h-0.096
			v11.76h-6.816v-33.504H1108.966z M1117.821,240.864c0.752-0.448,1.36-1.032,1.824-1.752c0.464-0.72,0.792-1.56,0.984-2.52
			c0.191-0.96,0.288-1.936,0.288-2.928c0-0.992-0.104-1.968-0.312-2.928s-0.552-1.815-1.032-2.568
			c-0.479-0.751-1.096-1.36-1.848-1.824s-1.673-0.696-2.76-0.696c-1.121,0-2.057,0.232-2.809,0.696s-1.36,1.064-1.823,1.8
			c-0.465,0.736-0.792,1.584-0.984,2.544s-0.288,1.952-0.288,2.976c0,0.992,0.104,1.968,0.312,2.928
			c0.207,0.96,0.543,1.8,1.008,2.52c0.463,0.72,1.08,1.304,1.848,1.752c0.768,0.449,1.696,0.672,2.784,0.672
			C1116.134,241.536,1117.069,241.312,1117.821,240.864z"/>
		<path fill="#FFFFFF" d="M1137.62,211.728V246h-6.815v-34.272H1137.62z"/>
		<path fill="#FFFFFF" d="M1141.508,228.816c0.097-1.6,0.496-2.928,1.2-3.984c0.703-1.056,1.6-1.903,2.688-2.544
			c1.087-0.64,2.312-1.096,3.672-1.368c1.359-0.271,2.728-0.408,4.104-0.408c1.248,0,2.512,0.088,3.792,0.264
			c1.279,0.176,2.448,0.521,3.504,1.032c1.057,0.512,1.92,1.224,2.593,2.136c0.672,0.912,1.008,2.121,1.008,3.624v12.912
			c0,1.121,0.063,2.192,0.191,3.216c0.128,1.025,0.353,1.792,0.672,2.304h-6.911c-0.129-0.384-0.232-0.775-0.312-1.176
			c-0.08-0.4-0.137-0.808-0.168-1.224c-1.088,1.121-2.368,1.904-3.84,2.352c-1.473,0.448-2.977,0.672-4.512,0.672
			c-1.185,0-2.289-0.144-3.312-0.432c-1.024-0.288-1.92-0.736-2.688-1.344c-0.769-0.607-1.368-1.375-1.801-2.304
			c-0.432-0.928-0.647-2.032-0.647-3.312c0-1.408,0.247-2.568,0.744-3.48c0.495-0.912,1.135-1.64,1.92-2.184
			c0.783-0.543,1.68-0.952,2.688-1.224c1.009-0.272,2.023-0.488,3.048-0.648c1.024-0.16,2.032-0.288,3.024-0.384
			c0.991-0.096,1.872-0.24,2.64-0.432c0.769-0.192,1.376-0.472,1.824-0.84c0.448-0.368,0.655-0.904,0.624-1.608
			c0-0.736-0.12-1.32-0.359-1.752c-0.24-0.432-0.561-0.768-0.961-1.008c-0.4-0.24-0.863-0.399-1.392-0.48
			c-0.528-0.08-1.097-0.12-1.704-0.12c-1.344,0-2.399,0.288-3.168,0.864c-0.768,0.576-1.217,1.536-1.344,2.88H1141.508z
			 M1157.252,233.856c-0.288,0.256-0.647,0.456-1.08,0.6c-0.432,0.144-0.896,0.264-1.392,0.36c-0.497,0.096-1.017,0.176-1.561,0.24
			c-0.544,0.064-1.088,0.144-1.632,0.24c-0.512,0.096-1.016,0.224-1.512,0.384s-0.929,0.376-1.296,0.648
			c-0.368,0.272-0.665,0.616-0.888,1.032c-0.225,0.417-0.337,0.944-0.337,1.584c0,0.608,0.112,1.121,0.337,1.536
			c0.223,0.417,0.527,0.744,0.911,0.984c0.385,0.24,0.832,0.408,1.345,0.504c0.511,0.096,1.039,0.144,1.584,0.144
			c1.344,0,2.383-0.223,3.12-0.672c0.735-0.448,1.279-0.984,1.632-1.608c0.352-0.624,0.567-1.255,0.647-1.896
			c0.08-0.64,0.12-1.152,0.12-1.536V233.856z"/>
		<path fill="#FFFFFF" d="M1174.628,221.184v3.456h0.144c0.864-1.44,1.984-2.488,3.36-3.144c1.375-0.656,2.784-0.984,4.224-0.984
			c1.824,0,3.319,0.248,4.488,0.744c1.168,0.497,2.088,1.185,2.76,2.064c0.672,0.881,1.144,1.953,1.416,3.216
			c0.271,1.264,0.408,2.664,0.408,4.2V246h-6.816v-14.016c0-2.047-0.32-3.576-0.96-4.584c-0.641-1.008-1.775-1.512-3.407-1.512
			c-1.856,0-3.201,0.552-4.032,1.656c-0.833,1.104-1.248,2.92-1.248,5.448V246h-6.816v-24.816H1174.628z"/>
	</g>
</g>
</svg>
