<?xml version="1.0" encoding="utf-8"?>
<!-- Generator: Adobe Illustrator 22.1.0, SVG Export Plug-In . SVG Version: 6.00 Build 0)  -->
<svg version="1.1" id="Layer_1" xmlns="http://www.w3.org/2000/svg" xmlns:xlink="http://www.w3.org/1999/xlink" x="0px" y="0px"
	 width="1600px" height="750px" viewBox="0 0 1600 750" enable-background="new 0 0 1600 750" xml:space="preserve">
<g id="g3">
	<path fill="#FFFFFF" d="M629.6,462.9l3.4-6.7l-0.8-0.4l-6,11.6l11.1-6.9l-0.6-0.8l-6.4,4l40.9-44.7h89.5v-1h-89.9L629.6,462.9z"/>
	<g>
		<path fill="#FFFFFF" d="M908.292,420.357c-0.884,0.372-1.777,0.559-2.678,0.559c-1.422,0-2.7-0.247-3.835-0.741
			c-1.136-0.493-2.094-1.174-2.873-2.041c-0.78-0.866-1.378-1.885-1.794-3.055s-0.624-2.431-0.624-3.783
			c0-1.386,0.208-2.673,0.624-3.86s1.014-2.224,1.794-3.107c0.779-0.885,1.737-1.577,2.873-2.08
			c1.135-0.502,2.413-0.754,3.835-0.754c0.953,0,1.876,0.143,2.769,0.429s1.698,0.706,2.418,1.261s1.313,1.24,1.781,2.055
			s0.754,1.75,0.858,2.808h-3.9c-0.243-1.04-0.711-1.819-1.404-2.34s-1.534-0.78-2.521-0.78c-0.919,0-1.699,0.178-2.34,0.533
			c-0.642,0.355-1.162,0.832-1.561,1.43s-0.688,1.279-0.871,2.041c-0.182,0.764-0.272,1.552-0.272,2.366
			c0,0.78,0.091,1.538,0.272,2.274c0.183,0.738,0.473,1.4,0.871,1.99c0.398,0.589,0.919,1.062,1.561,1.416
			c0.641,0.355,1.421,0.533,2.34,0.533c1.352,0,2.396-0.342,3.133-1.027c0.736-0.684,1.165-1.676,1.287-2.977h-4.108v-3.042h7.8
			V420.5h-2.6l-0.416-2.105C909.982,419.33,909.176,419.984,908.292,420.357z"/>
		<path fill="#FFFFFF" d="M921.786,409.658c0.45-0.035,0.871-0.135,1.261-0.299c0.39-0.165,0.711-0.403,0.962-0.715
			c0.251-0.312,0.377-0.729,0.377-1.248c0-0.78-0.26-1.379-0.779-1.795c-0.521-0.416-1.118-0.623-1.795-0.623
			c-0.936,0-1.642,0.308-2.118,0.922c-0.478,0.616-0.707,1.392-0.689,2.328h-3.51c0.034-0.937,0.203-1.79,0.507-2.562
			c0.303-0.771,0.728-1.435,1.274-1.989c0.546-0.555,1.199-0.983,1.963-1.287c0.763-0.303,1.611-0.455,2.548-0.455
			c0.728,0,1.456,0.109,2.184,0.326c0.729,0.217,1.382,0.541,1.963,0.975s1.054,0.962,1.417,1.586
			c0.364,0.623,0.546,1.344,0.546,2.158c0,0.883-0.212,1.664-0.637,2.34s-1.062,1.135-1.911,1.378v0.052
			c1.006,0.226,1.794,0.711,2.366,1.456s0.858,1.638,0.858,2.678c0,0.954-0.187,1.804-0.56,2.548
			c-0.373,0.746-0.871,1.369-1.495,1.873c-0.624,0.502-1.343,0.883-2.157,1.144c-0.815,0.26-1.664,0.39-2.549,0.39
			c-1.022,0-1.954-0.147-2.795-0.441c-0.841-0.295-1.556-0.725-2.145-1.287c-0.59-0.563-1.045-1.252-1.365-2.067
			c-0.32-0.814-0.473-1.751-0.455-2.808h3.51c0.018,0.484,0.096,0.949,0.234,1.391s0.338,0.823,0.598,1.145
			c0.261,0.32,0.585,0.576,0.976,0.767c0.39,0.19,0.854,0.286,1.391,0.286c0.832,0,1.534-0.256,2.106-0.768
			c0.571-0.511,0.857-1.209,0.857-2.093c0-0.692-0.134-1.222-0.402-1.586c-0.27-0.364-0.611-0.628-1.027-0.793
			s-0.871-0.26-1.365-0.286c-0.494-0.025-0.966-0.039-1.417-0.039v-2.6C920.91,409.693,921.335,409.693,921.786,409.658z"/>
		<path fill="#FFFFFF" d="M934.031,416.496v4.004h-4.082v-4.004H934.031z"/>
		<path fill="#FFFFFF" d="M957.959,386.229V420.5h-7.536v-34.271H957.959z"/>
		<path fill="#FFFFFF" d="M969.287,395.684v3.36h0.096c0.896-1.279,1.976-2.271,3.24-2.976c1.264-0.704,2.712-1.057,4.345-1.057
			c1.567,0,3,0.305,4.296,0.912c1.296,0.608,2.279,1.68,2.951,3.217c0.736-1.088,1.736-2.049,3-2.881
			c1.265-0.832,2.761-1.248,4.488-1.248c1.312,0,2.527,0.16,3.648,0.48c1.119,0.32,2.079,0.832,2.88,1.535
			c0.8,0.705,1.424,1.625,1.872,2.761c0.447,1.136,0.672,2.505,0.672,4.104V420.5h-6.816v-14.064c0-0.831-0.032-1.615-0.096-2.352
			c-0.064-0.736-0.24-1.375-0.528-1.92c-0.288-0.544-0.712-0.976-1.271-1.296c-0.561-0.319-1.32-0.479-2.28-0.479
			s-1.736,0.184-2.328,0.551c-0.593,0.369-1.056,0.849-1.392,1.44c-0.336,0.593-0.561,1.265-0.672,2.017
			c-0.113,0.752-0.168,1.512-0.168,2.279V420.5h-6.816v-13.92c0-0.736-0.017-1.464-0.048-2.184
			c-0.032-0.721-0.168-1.385-0.408-1.992s-0.641-1.096-1.2-1.465c-0.56-0.367-1.384-0.551-2.472-0.551
			c-0.32,0-0.744,0.071-1.272,0.215c-0.527,0.145-1.04,0.416-1.535,0.816c-0.497,0.4-0.921,0.977-1.272,1.729
			c-0.353,0.752-0.528,1.736-0.528,2.951v14.4h-6.815v-24.816H969.287z"/>
		<path fill="#FFFFFF" d="M1011.432,395.684v3.168h0.096c0.832-1.344,1.888-2.319,3.168-2.928c1.279-0.607,2.688-0.912,4.224-0.912
			c1.952,0,3.632,0.369,5.04,1.104c1.408,0.736,2.576,1.712,3.504,2.928c0.929,1.217,1.616,2.632,2.064,4.248
			s0.672,3.305,0.672,5.063c0,1.664-0.224,3.265-0.672,4.801c-0.448,1.535-1.128,2.896-2.04,4.08s-2.048,2.128-3.408,2.832
			c-1.36,0.703-2.952,1.056-4.775,1.056c-1.536,0-2.952-0.312-4.248-0.937c-1.296-0.623-2.36-1.543-3.192-2.76h-0.096v11.76h-6.816
			v-33.504H1011.432z M1020.287,415.363c0.752-0.447,1.36-1.031,1.824-1.752c0.464-0.719,0.792-1.56,0.984-2.52
			c0.191-0.96,0.288-1.936,0.288-2.928s-0.104-1.969-0.312-2.928c-0.208-0.961-0.552-1.816-1.032-2.568
			c-0.479-0.752-1.096-1.359-1.848-1.824c-0.752-0.463-1.673-0.695-2.76-0.695c-1.121,0-2.057,0.232-2.809,0.695
			c-0.752,0.465-1.36,1.064-1.823,1.801c-0.465,0.736-0.792,1.584-0.984,2.543c-0.192,0.961-0.288,1.953-0.288,2.977
			c0,0.992,0.104,1.968,0.312,2.928c0.207,0.96,0.543,1.801,1.008,2.52c0.463,0.721,1.08,1.305,1.848,1.752
			c0.768,0.449,1.696,0.673,2.784,0.673C1018.6,416.036,1019.535,415.812,1020.287,415.363z"/>
		<path fill="#FFFFFF" d="M1040.086,386.229V420.5h-6.815v-34.271H1040.086z"/>
		<path fill="#FFFFFF" d="M1051.559,414.548c1.024,0.992,2.496,1.488,4.416,1.488c1.376,0,2.56-0.344,3.553-1.032
			c0.991-0.688,1.6-1.416,1.823-2.184h6c-0.96,2.976-2.432,5.104-4.416,6.384s-4.384,1.92-7.199,1.92
			c-1.953,0-3.713-0.312-5.28-0.937c-1.568-0.623-2.896-1.512-3.984-2.664c-1.088-1.151-1.928-2.527-2.52-4.127
			c-0.593-1.6-0.889-3.36-0.889-5.28c0-1.855,0.304-3.583,0.912-5.185c0.607-1.6,1.472-2.982,2.593-4.152
			c1.119-1.167,2.455-2.088,4.008-2.76c1.552-0.672,3.271-1.008,5.16-1.008c2.111,0,3.951,0.408,5.52,1.225
			c1.567,0.815,2.856,1.912,3.864,3.287c1.008,1.377,1.735,2.945,2.184,4.705s0.607,3.6,0.48,5.52h-17.904
			C1049.975,411.956,1050.534,413.557,1051.559,414.548z M1059.263,401.492c-0.815-0.896-2.057-1.344-3.72-1.344
			c-1.088,0-1.992,0.184-2.712,0.552s-1.296,0.824-1.729,1.368c-0.432,0.544-0.736,1.12-0.912,1.728
			c-0.176,0.608-0.28,1.152-0.312,1.632h11.088C1060.646,403.7,1060.079,402.389,1059.263,401.492z"/>
		<path fill="#FFFFFF" d="M1077.238,395.684v3.36h0.096c0.896-1.279,1.976-2.271,3.24-2.976c1.264-0.704,2.712-1.057,4.345-1.057
			c1.567,0,3,0.305,4.296,0.912c1.296,0.608,2.279,1.68,2.951,3.217c0.736-1.088,1.736-2.049,3-2.881
			c1.265-0.832,2.761-1.248,4.488-1.248c1.312,0,2.527,0.16,3.648,0.48c1.119,0.32,2.079,0.832,2.88,1.535
			c0.8,0.705,1.424,1.625,1.872,2.761c0.447,1.136,0.672,2.505,0.672,4.104V420.5h-6.816v-14.064c0-0.831-0.032-1.615-0.096-2.352
			c-0.064-0.736-0.24-1.375-0.528-1.92c-0.288-0.544-0.712-0.976-1.271-1.296c-0.561-0.319-1.32-0.479-2.28-0.479
			s-1.736,0.184-2.328,0.551c-0.593,0.369-1.056,0.849-1.392,1.44c-0.336,0.593-0.561,1.265-0.672,2.017
			c-0.113,0.752-0.168,1.512-0.168,2.279V420.5h-6.816v-13.92c0-0.736-0.017-1.464-0.048-2.184
			c-0.032-0.721-0.168-1.385-0.408-1.992s-0.641-1.096-1.2-1.465c-0.56-0.367-1.384-0.551-2.472-0.551
			c-0.32,0-0.744,0.071-1.272,0.215c-0.527,0.145-1.04,0.416-1.535,0.816c-0.497,0.4-0.921,0.977-1.272,1.729
			c-0.353,0.752-0.528,1.736-0.528,2.951v14.4h-6.815v-24.816H1077.238z"/>
		<path fill="#FFFFFF" d="M1120.197,414.548c1.024,0.992,2.496,1.488,4.416,1.488c1.376,0,2.56-0.344,3.553-1.032
			c0.991-0.688,1.6-1.416,1.823-2.184h6c-0.96,2.976-2.432,5.104-4.416,6.384s-4.384,1.92-7.199,1.92
			c-1.953,0-3.713-0.312-5.28-0.937c-1.568-0.623-2.896-1.512-3.984-2.664c-1.088-1.151-1.928-2.527-2.52-4.127
			c-0.593-1.6-0.889-3.36-0.889-5.28c0-1.855,0.304-3.583,0.912-5.185c0.607-1.6,1.472-2.982,2.593-4.152
			c1.119-1.167,2.455-2.088,4.008-2.76c1.552-0.672,3.271-1.008,5.16-1.008c2.111,0,3.951,0.408,5.52,1.225
			c1.567,0.815,2.856,1.912,3.864,3.287c1.008,1.377,1.735,2.945,2.184,4.705s0.607,3.6,0.48,5.52h-17.904
			C1118.613,411.956,1119.173,413.557,1120.197,414.548z M1127.901,401.492c-0.815-0.896-2.057-1.344-3.72-1.344
			c-1.088,0-1.992,0.184-2.712,0.552s-1.296,0.824-1.729,1.368c-0.432,0.544-0.736,1.12-0.912,1.728
			c-0.176,0.608-0.28,1.152-0.312,1.632h11.088C1129.285,403.7,1128.718,402.389,1127.901,401.492z"/>
		<path fill="#FFFFFF" d="M1145.733,395.684v3.457h0.144c0.864-1.44,1.984-2.488,3.36-3.145c1.375-0.656,2.784-0.984,4.224-0.984
			c1.824,0,3.319,0.248,4.488,0.744c1.168,0.496,2.088,1.185,2.76,2.064c0.672,0.881,1.144,1.952,1.416,3.216
			c0.271,1.265,0.408,2.664,0.408,4.2V420.5h-6.816v-14.016c0-2.048-0.32-3.576-0.96-4.584c-0.641-1.008-1.775-1.512-3.407-1.512
			c-1.856,0-3.201,0.551-4.032,1.655c-0.833,1.104-1.248,2.921-1.248,5.448V420.5h-6.816v-24.816H1145.733z"/>
		<path fill="#FFFFFF" d="M1180.148,395.684v4.561h-4.991v12.288c0,1.151,0.191,1.92,0.575,2.304
			c0.385,0.385,1.152,0.576,2.305,0.576c0.384,0,0.751-0.016,1.104-0.049c0.352-0.031,0.688-0.078,1.008-0.143v5.279
			c-0.575,0.096-1.216,0.16-1.92,0.191c-0.704,0.032-1.392,0.049-2.063,0.049c-1.057,0-2.057-0.072-3-0.217
			c-0.944-0.144-1.776-0.424-2.496-0.84c-0.72-0.415-1.289-1.008-1.704-1.775c-0.416-0.768-0.624-1.776-0.624-3.024v-14.64h-4.128
			v-4.561h4.128v-7.439h6.816v7.439H1180.148z"/>
		<path fill="#FFFFFF" d="M1181.924,403.316c0.097-1.6,0.496-2.928,1.2-3.984c0.703-1.057,1.6-1.903,2.688-2.544
			c1.087-0.64,2.312-1.096,3.672-1.368c1.359-0.271,2.728-0.408,4.104-0.408c1.248,0,2.512,0.089,3.792,0.264
			c1.279,0.177,2.448,0.521,3.504,1.033c1.057,0.512,1.92,1.224,2.593,2.135c0.672,0.912,1.008,2.121,1.008,3.625v12.912
			c0,1.12,0.063,2.191,0.191,3.215c0.128,1.025,0.353,1.793,0.672,2.305h-6.911c-0.129-0.384-0.232-0.775-0.312-1.176
			s-0.137-0.809-0.168-1.225c-1.088,1.121-2.368,1.904-3.84,2.353c-1.473,0.448-2.977,0.672-4.512,0.672
			c-1.185,0-2.289-0.144-3.312-0.433c-1.024-0.287-1.92-0.735-2.688-1.344c-0.769-0.607-1.368-1.375-1.801-2.304
			c-0.432-0.928-0.647-2.032-0.647-3.312c0-1.408,0.247-2.568,0.744-3.48c0.495-0.912,1.135-1.64,1.92-2.184
			c0.783-0.544,1.68-0.952,2.688-1.225c1.009-0.271,2.023-0.487,3.048-0.648c1.024-0.159,2.032-0.287,3.024-0.383
			c0.991-0.097,1.872-0.24,2.64-0.433c0.769-0.192,1.376-0.472,1.824-0.84s0.655-0.903,0.624-1.608c0-0.735-0.12-1.32-0.359-1.752
			c-0.24-0.432-0.561-0.768-0.961-1.008s-0.863-0.399-1.392-0.48c-0.528-0.079-1.097-0.119-1.704-0.119
			c-1.344,0-2.399,0.287-3.168,0.863c-0.768,0.576-1.217,1.537-1.344,2.881H1181.924z M1197.668,408.355
			c-0.288,0.257-0.647,0.457-1.08,0.601c-0.432,0.144-0.896,0.265-1.392,0.36c-0.497,0.096-1.017,0.176-1.561,0.24
			s-1.088,0.144-1.632,0.239c-0.512,0.097-1.016,0.224-1.512,0.384s-0.929,0.377-1.296,0.648c-0.368,0.271-0.665,0.616-0.888,1.031
			c-0.225,0.417-0.337,0.945-0.337,1.584c0,0.609,0.112,1.121,0.337,1.537c0.223,0.416,0.527,0.744,0.911,0.983
			c0.385,0.24,0.832,0.408,1.345,0.504c0.511,0.097,1.039,0.144,1.584,0.144c1.344,0,2.383-0.223,3.12-0.672
			c0.735-0.447,1.279-0.983,1.632-1.607c0.352-0.624,0.567-1.256,0.647-1.896c0.08-0.639,0.12-1.151,0.12-1.535V408.355z"/>
		<path fill="#FFFFFF" d="M1222.195,395.684v4.561h-4.991v12.288c0,1.151,0.191,1.92,0.575,2.304
			c0.385,0.385,1.152,0.576,2.305,0.576c0.384,0,0.751-0.016,1.104-0.049c0.352-0.031,0.688-0.078,1.008-0.143v5.279
			c-0.575,0.096-1.216,0.16-1.92,0.191c-0.704,0.032-1.392,0.049-2.063,0.049c-1.057,0-2.057-0.072-3-0.217
			c-0.944-0.144-1.776-0.424-2.496-0.84c-0.72-0.415-1.289-1.008-1.704-1.775c-0.416-0.768-0.624-1.776-0.624-3.024v-14.64h-4.128
			v-4.561h4.128v-7.439h6.816v7.439H1222.195z"/>
		<path fill="#FFFFFF" d="M1224.451,391.844v-5.615h6.815v5.615H1224.451z M1231.267,395.684V420.5h-6.815v-24.816H1231.267z"/>
		<path fill="#FFFFFF" d="M1235.587,402.716c0.607-1.615,1.471-2.991,2.592-4.128c1.119-1.135,2.464-2.016,4.032-2.64
			c1.567-0.624,3.327-0.937,5.279-0.937s3.721,0.312,5.305,0.937s2.936,1.505,4.056,2.64c1.12,1.137,1.983,2.513,2.592,4.128
			c0.607,1.616,0.912,3.417,0.912,5.4c0,1.984-0.305,3.776-0.912,5.376c-0.608,1.6-1.472,2.969-2.592,4.104
			c-1.12,1.137-2.472,2.009-4.056,2.616s-3.353,0.912-5.305,0.912s-3.712-0.305-5.279-0.912c-1.568-0.607-2.913-1.479-4.032-2.616
			c-1.121-1.135-1.984-2.504-2.592-4.104c-0.608-1.6-0.912-3.392-0.912-5.376C1234.675,406.133,1234.979,404.332,1235.587,402.716z
			 M1241.778,411.02c0.192,0.945,0.52,1.793,0.984,2.545c0.464,0.752,1.08,1.352,1.848,1.799c0.769,0.449,1.729,0.673,2.88,0.673
			c1.152,0,2.12-0.224,2.904-0.673c0.784-0.447,1.408-1.047,1.872-1.799s0.792-1.6,0.984-2.545c0.191-0.943,0.288-1.911,0.288-2.903
			c0-0.991-0.097-1.968-0.288-2.929c-0.192-0.959-0.521-1.807-0.984-2.543s-1.088-1.336-1.872-1.801
			c-0.784-0.463-1.752-0.695-2.904-0.695c-1.151,0-2.111,0.232-2.88,0.695c-0.768,0.465-1.384,1.064-1.848,1.801
			c-0.465,0.736-0.792,1.584-0.984,2.543c-0.191,0.961-0.288,1.938-0.288,2.929C1241.49,409.108,1241.587,410.076,1241.778,411.02z"
			/>
		<path fill="#FFFFFF" d="M1270.051,395.684v3.457h0.144c0.864-1.44,1.984-2.488,3.36-3.145c1.375-0.656,2.784-0.984,4.224-0.984
			c1.824,0,3.319,0.248,4.488,0.744c1.168,0.496,2.088,1.185,2.76,2.064c0.672,0.881,1.144,1.952,1.416,3.216
			c0.271,1.265,0.408,2.664,0.408,4.2V420.5h-6.816v-14.016c0-2.048-0.32-3.576-0.96-4.584c-0.641-1.008-1.775-1.512-3.407-1.512
			c-1.856,0-3.201,0.551-4.032,1.655c-0.833,1.104-1.248,2.921-1.248,5.448V420.5h-6.816v-24.816H1270.051z"/>
	</g>
</g>
</svg>
