<?xml version="1.0" encoding="utf-8"?>
<!-- Generator: Adobe Illustrator 22.1.0, SVG Export Plug-In . SVG Version: 6.00 Build 0)  -->
<svg version="1.1" id="Layer_1" xmlns="http://www.w3.org/2000/svg" xmlns:xlink="http://www.w3.org/1999/xlink" x="0px" y="0px"
	 width="1600px" height="750px" viewBox="0 0 1600 750" enable-background="new 0 0 1600 750" xml:space="preserve">
<g id="g4">
	<path fill="#FFFFFF" d="M735.6,622.4l3.4-6.7l-0.8-0.4l-6,11.6l11.1-6.9l-0.6-0.8l-6.4,4l40.9-44.7h89.5v-1h-89.9L735.6,622.4z"/>
	<g>
		<path fill="#FFFFFF" d="M908.292,579.857c-0.884,0.372-1.777,0.559-2.678,0.559c-1.422,0-2.7-0.247-3.835-0.741
			c-1.136-0.493-2.094-1.174-2.873-2.041c-0.78-0.866-1.378-1.885-1.794-3.055s-0.624-2.431-0.624-3.783
			c0-1.386,0.208-2.673,0.624-3.86s1.014-2.224,1.794-3.107c0.779-0.885,1.737-1.577,2.873-2.08
			c1.135-0.502,2.413-0.754,3.835-0.754c0.953,0,1.876,0.143,2.769,0.429s1.698,0.706,2.418,1.261s1.313,1.24,1.781,2.055
			s0.754,1.75,0.858,2.808h-3.9c-0.243-1.04-0.711-1.819-1.404-2.34s-1.534-0.78-2.521-0.78c-0.919,0-1.699,0.178-2.34,0.533
			c-0.642,0.355-1.162,0.832-1.561,1.43s-0.688,1.279-0.871,2.041c-0.182,0.764-0.272,1.552-0.272,2.366
			c0,0.78,0.091,1.538,0.272,2.274c0.183,0.738,0.473,1.4,0.871,1.99c0.398,0.589,0.919,1.062,1.561,1.416
			c0.641,0.355,1.421,0.533,2.34,0.533c1.352,0,2.396-0.342,3.133-1.027c0.736-0.684,1.165-1.676,1.287-2.977h-4.108v-3.042h7.8V580
			h-2.6l-0.416-2.105C909.982,578.83,909.176,579.484,908.292,579.857z"/>
		<path fill="#FFFFFF" d="M915,575.788v-3.38l7.904-10.608h3.302v10.946h2.418v3.042h-2.418V580h-3.51v-4.212H915z M922.618,566.428
			l-4.706,6.318h4.784v-6.318H922.618z"/>
		<path fill="#FFFFFF" d="M934.031,575.996V580h-4.082v-4.004H934.031z"/>
		<path fill="#FFFFFF" d="M950.087,555.88c0.769-2.191,1.872-4.104,3.312-5.735c1.439-1.633,3.208-2.912,5.304-3.84
			s4.456-1.393,7.08-1.393c2.656,0,5.023,0.465,7.104,1.393c2.079,0.928,3.84,2.207,5.279,3.84c1.44,1.631,2.544,3.544,3.312,5.735
			c0.768,2.192,1.151,4.568,1.151,7.128c0,2.496-0.384,4.824-1.151,6.984c-0.769,2.16-1.872,4.04-3.312,5.64
			c-1.439,1.601-3.2,2.856-5.279,3.769c-2.081,0.912-4.448,1.367-7.104,1.367c-2.624,0-4.984-0.455-7.08-1.367
			s-3.864-2.168-5.304-3.769c-1.44-1.6-2.544-3.479-3.312-5.64c-0.768-2.16-1.151-4.488-1.151-6.984
			C948.936,560.448,949.319,558.072,950.087,555.88z M956.976,567.208c0.336,1.36,0.871,2.585,1.607,3.672
			c0.736,1.089,1.696,1.96,2.88,2.616s2.624,0.984,4.32,0.984s3.136-0.328,4.32-0.984c1.184-0.656,2.144-1.527,2.88-2.616
			c0.735-1.087,1.271-2.312,1.608-3.672c0.336-1.36,0.504-2.76,0.504-4.2c0-1.504-0.168-2.959-0.504-4.367
			c-0.337-1.408-0.873-2.664-1.608-3.769c-0.736-1.104-1.696-1.983-2.88-2.64c-1.185-0.656-2.624-0.984-4.32-0.984
			s-3.137,0.328-4.32,0.984s-2.144,1.535-2.88,2.64s-1.271,2.36-1.607,3.769s-0.504,2.863-0.504,4.367
			C956.472,564.448,956.64,565.848,956.976,567.208z"/>
		<path fill="#FFFFFF" d="M992.328,555.184v3.168h0.096c0.832-1.344,1.888-2.319,3.168-2.928c1.279-0.607,2.688-0.912,4.224-0.912
			c1.952,0,3.632,0.369,5.04,1.104c1.408,0.736,2.576,1.712,3.504,2.928c0.929,1.217,1.616,2.632,2.064,4.248
			s0.672,3.305,0.672,5.063c0,1.664-0.224,3.265-0.672,4.801c-0.448,1.535-1.128,2.896-2.04,4.08s-2.048,2.128-3.408,2.832
			c-1.36,0.703-2.952,1.056-4.775,1.056c-1.536,0-2.952-0.312-4.248-0.937c-1.296-0.623-2.36-1.543-3.192-2.76h-0.096v11.76h-6.816
			v-33.504H992.328z M1001.184,574.863c0.752-0.447,1.36-1.031,1.824-1.752c0.464-0.719,0.792-1.56,0.984-2.52
			c0.191-0.96,0.288-1.936,0.288-2.928s-0.104-1.969-0.312-2.928c-0.208-0.961-0.552-1.816-1.032-2.568
			c-0.479-0.752-1.096-1.359-1.848-1.824c-0.752-0.463-1.673-0.695-2.76-0.695c-1.121,0-2.057,0.232-2.809,0.695
			c-0.752,0.465-1.36,1.064-1.823,1.801c-0.465,0.736-0.792,1.584-0.984,2.543c-0.192,0.961-0.288,1.953-0.288,2.977
			c0,0.992,0.104,1.968,0.312,2.928c0.207,0.96,0.543,1.801,1.008,2.52c0.463,0.721,1.08,1.305,1.848,1.752
			c0.768,0.449,1.696,0.673,2.784,0.673C999.496,575.536,1000.432,575.312,1001.184,574.863z"/>
		<path fill="#FFFFFF" d="M1021.271,574.048c1.024,0.992,2.496,1.488,4.416,1.488c1.376,0,2.56-0.344,3.553-1.032
			c0.991-0.688,1.6-1.416,1.823-2.184h6c-0.96,2.976-2.432,5.104-4.416,6.384s-4.384,1.92-7.199,1.92
			c-1.953,0-3.713-0.312-5.28-0.937c-1.568-0.623-2.896-1.512-3.984-2.664c-1.088-1.151-1.928-2.527-2.52-4.127
			c-0.593-1.6-0.889-3.36-0.889-5.28c0-1.855,0.304-3.583,0.912-5.185c0.607-1.6,1.472-2.982,2.593-4.152
			c1.119-1.167,2.455-2.088,4.008-2.76c1.552-0.672,3.271-1.008,5.16-1.008c2.111,0,3.951,0.408,5.52,1.225
			c1.567,0.815,2.856,1.912,3.864,3.287c1.008,1.377,1.735,2.945,2.184,4.705s0.607,3.6,0.48,5.52h-17.904
			C1019.687,571.456,1020.246,573.057,1021.271,574.048z M1028.975,560.992c-0.815-0.896-2.057-1.344-3.72-1.344
			c-1.088,0-1.992,0.184-2.712,0.552s-1.296,0.824-1.729,1.368c-0.432,0.544-0.736,1.12-0.912,1.728
			c-0.176,0.608-0.28,1.152-0.312,1.632h11.088C1030.358,563.2,1029.791,561.889,1028.975,560.992z"/>
		<path fill="#FFFFFF" d="M1046.807,555.184v3.457h0.144c0.864-1.44,1.984-2.488,3.36-3.145c1.375-0.656,2.784-0.984,4.224-0.984
			c1.824,0,3.319,0.248,4.488,0.744c1.168,0.496,2.088,1.185,2.76,2.064c0.672,0.881,1.144,1.952,1.416,3.216
			c0.271,1.265,0.408,2.664,0.408,4.2V580h-6.816v-14.016c0-2.048-0.32-3.576-0.96-4.584c-0.641-1.008-1.775-1.512-3.407-1.512
			c-1.856,0-3.201,0.551-4.032,1.655c-0.833,1.104-1.248,2.921-1.248,5.448V580h-6.816v-24.816H1046.807z"/>
		<path fill="#FFFFFF" d="M1067.782,551.344v-5.615h6.815v5.615H1067.782z M1074.598,555.184V580h-6.815v-24.816H1074.598z"/>
		<path fill="#FFFFFF" d="M1085.254,555.184v3.457h0.144c0.864-1.44,1.984-2.488,3.36-3.145c1.375-0.656,2.784-0.984,4.224-0.984
			c1.824,0,3.319,0.248,4.488,0.744c1.168,0.496,2.088,1.185,2.76,2.064c0.672,0.881,1.144,1.952,1.416,3.216
			c0.271,1.265,0.408,2.664,0.408,4.2V580h-6.816v-14.016c0-2.048-0.32-3.576-0.96-4.584c-0.641-1.008-1.775-1.512-3.407-1.512
			c-1.856,0-3.201,0.551-4.032,1.655c-0.833,1.104-1.248,2.921-1.248,5.448V580h-6.816v-24.816H1085.254z"/>
		<path fill="#FFFFFF" d="M1129.485,581.824c-0.272,1.279-0.856,2.472-1.752,3.576c-0.896,1.104-2.192,2.039-3.888,2.808
			c-1.697,0.769-3.969,1.151-6.816,1.151c-1.217,0-2.456-0.152-3.72-0.455c-1.265-0.305-2.417-0.776-3.456-1.416
			c-1.04-0.641-1.904-1.465-2.592-2.473c-0.688-1.008-1.08-2.216-1.177-3.623h6.769c0.319,1.279,0.943,2.167,1.872,2.664
			c0.928,0.495,1.999,0.743,3.216,0.743c1.92,0,3.319-0.575,4.2-1.728c0.88-1.152,1.303-2.609,1.271-4.368v-3.265h-0.096
			c-0.736,1.312-1.784,2.281-3.145,2.904c-1.36,0.624-2.792,0.936-4.296,0.936c-1.855,0-3.456-0.327-4.8-0.983
			c-1.344-0.655-2.448-1.552-3.312-2.688c-0.864-1.135-1.496-2.463-1.896-3.983c-0.4-1.52-0.6-3.128-0.6-4.824
			c0-1.6,0.231-3.144,0.695-4.632s1.145-2.8,2.04-3.936s2.008-2.041,3.337-2.713c1.327-0.672,2.855-1.008,4.584-1.008
			c1.632,0,3.063,0.305,4.296,0.912c1.231,0.608,2.263,1.633,3.096,3.072h0.096v-3.312h6.48v23.232
			C1129.894,579.408,1129.757,580.544,1129.485,581.824z M1120.149,573.568c0.735-0.385,1.344-0.896,1.824-1.536
			c0.479-0.64,0.84-1.368,1.08-2.185c0.239-0.815,0.359-1.672,0.359-2.568c0-1.023-0.096-1.991-0.288-2.903
			c-0.191-0.912-0.512-1.72-0.96-2.424s-1.04-1.264-1.775-1.681c-0.737-0.415-1.665-0.623-2.784-0.623
			c-0.96,0-1.784,0.191-2.472,0.576c-0.689,0.383-1.265,0.904-1.729,1.56c-0.464,0.656-0.8,1.408-1.008,2.256
			c-0.209,0.849-0.312,1.736-0.312,2.664c0,0.896,0.088,1.784,0.265,2.664c0.175,0.88,0.479,1.673,0.912,2.376
			c0.432,0.704,0.999,1.28,1.703,1.729c0.704,0.447,1.584,0.672,2.641,0.672C1118.565,574.145,1119.413,573.952,1120.149,573.568z"
			/>
	</g>
</g>
</svg>
