<?xml version="1.0" encoding="UTF-8"?>
<svg width="20px" height="25px" viewBox="0 0 20 25" version="1.1" xmlns="http://www.w3.org/2000/svg" xmlns:xlink="http://www.w3.org/1999/xlink">
    <g id="Single-Team+" stroke="none" stroke-width="1" fill="none" fill-rule="evenodd">
        <g id="Single-Team" transform="translate(-901.000000, -1472.000000)" fill="#515151" fill-rule="nonzero">
            <g id="Resume" transform="translate(901.000000, 1468.000000)">
                <g id="np_resume_1550414_000000" transform="translate(0.000000, 4.000000)">
                    <path d="M10,8.249375 C10.9106562,8.249375 11.7309687,7.70128125 12.0788437,6.8614375 C12.42675,6.020375 12.2338719,5.05234375 11.5905625,4.40903125 C10.9472531,3.76571875 9.97925,3.57284375 9.139375,3.92075 C8.2983125,4.269875 7.75021875,5.0901875 7.75021875,5.99959375 C7.75021875,6.59653125 7.98703437,7.16903125 8.40940625,7.59140625 C8.8305625,8.0125625 9.4030625,8.249375 9.99996875,8.249375 L10,8.249375 Z" id="Shape"></path>
                    <path d="M6.3440625,12.7503125 L13.6559375,12.7503125 C13.7255187,12.7612991 13.7950969,12.7381056 13.8451469,12.6880562 C13.893975,12.6392281 13.9171687,12.5696469 13.9061812,12.5000687 L13.9061812,12.3438187 C13.9147262,11.420975 13.5521812,10.5335062 12.8990875,9.8816625 C12.2472437,9.22981875 11.359775,8.8660375 10.4369312,8.87456875 L9.5629,8.87456875 C8.64005625,8.86602375 7.7525875,9.2297875 7.10074375,9.8816625 C6.44768125,10.5335062 6.08511875,11.420975 6.09365,12.3438187 L6.09365,12.5000687 C6.08266375,12.56965 6.10585687,12.6392281 6.15468437,12.6880562 C6.20473437,12.7381062 6.2743125,12.7613 6.34389375,12.7503125 L6.3440625,12.7503125 Z" id="Shape"></path>
                    <path d="M16.374375,0.0940625 L3.6253125,0.0940625 C1.73321875,0.1111525 0.20375,1.63946875 0.1878125,3.5315625 L0.1878125,21.4684375 C0.203681875,23.3605313 1.73321875,24.88875 3.6253125,24.9059375 L16.374375,24.9059375 C18.2664687,24.8888475 19.7959375,23.3605313 19.811875,21.4684375 L19.811875,3.5315625 C19.7960056,1.63946875 18.2664687,0.11125 16.374375,0.0940625 Z M17.936875,21.4684375 C17.9210056,22.3241562 17.2313125,23.0150625 16.374375,23.0309375 L3.6253125,23.0309375 C2.768375,23.0150684 2.0786875,22.3241562 2.0628125,21.4684375 L2.0628125,3.5315625 C2.07868188,2.67584375 2.768375,1.9849375 3.6253125,1.9690625 L16.374375,1.9690625 C17.2313125,1.98493156 17.921,2.67584375 17.936875,3.5315625 L17.936875,21.4684375 Z" id="Shape"></path>
                    <path d="M14.875625,15.2184375 L5.4371875,15.2184375 C5.18694375,15.2098925 4.9428125,15.3063281 4.76459375,15.4833312 C4.58759063,15.6615531 4.49115625,15.9044875 4.4997,16.155925 C4.4997,16.6734875 4.9196375,17.093425 5.4372,17.093425 L14.8756375,17.093425 C15.3932,17.093425 15.8131375,16.6734875 15.8131375,16.155925 C15.8216825,15.9044594 15.7252469,15.66155 15.5482437,15.4833312 C15.3700219,15.3063281 15.1258687,15.2098937 14.87565,15.2184375 L14.875625,15.2184375 Z" id="Shape"></path>
                    <path d="M14.875625,18.9684375 L5.4371875,18.9684375 C5.18694375,18.9598925 4.9428125,19.0563281 4.76459375,19.2333312 C4.58759063,19.4115531 4.49115625,19.6544875 4.4997,19.905925 C4.4997,20.4234875 4.9196375,20.843425 5.4372,20.843425 L14.8756375,20.843425 C15.3932,20.843425 15.8131375,20.4234875 15.8131375,19.905925 C15.8216825,19.6544594 15.7252469,19.41155 15.5482437,19.2333312 C15.3700219,19.0563281 15.1258687,18.9598937 14.87565,18.9684375 L14.875625,18.9684375 Z" id="Shape"></path>
                </g>
            </g>
        </g>
    </g>
</svg>
