<?xml version="1.0" encoding="UTF-8"?>
<svg width="22px" height="22px" viewBox="0 0 22 22" version="1.1" xmlns="http://www.w3.org/2000/svg" xmlns:xlink="http://www.w3.org/1999/xlink">
    <!-- Generator: Sketch 51.2 (57519) - http://www.bohemiancoding.com/sketch -->
    <title>Search Icon/Black</title>
    <desc>Created with Sketch.</desc>
    <defs></defs>
    <g id="Symbols" stroke="none" stroke-width="1" fill="none" fill-rule="evenodd">
        <g id="Header/Nassal/Mobile" transform="translate(-211.000000, -25.000000)" fill="#231F20" fill-rule="nonzero">
            <g id="Group">
                <g transform="translate(144.000000, 20.000000)">
                    <g id="Search-Icon/Black" transform="translate(67.000000, 5.000000)">
                        <path d="M21.616914,19.8311885 L14.9859926,13.1992654 C16.0058518,11.8602095 16.5797522,10.1385662 16.5797522,8.28898566 C16.5797522,3.69793681 12.8816912,0 8.29048824,0 C3.69928527,0 0,3.69916109 0,8.29020994 C0,12.8812588 3.69806095,16.5791956 8.28926392,16.5791956 C10.1389066,16.5791956 11.7960248,16.0053145 13.1997085,14.9854895 L19.8318543,21.6174126 C20.0865222,21.872072 20.4057546,22 20.7249963,22 C21.0442379,22 21.3622553,21.872072 21.6181383,21.6174126 C22.1274864,21.106888 22.1274864,20.3417132 21.6169425,19.8312191 L21.616914,19.8311885 Z M8.29048824,14.029021 C5.10174474,14.029021 2.55148453,11.4788464 2.55148453,8.29020994 C2.55148453,5.10157348 5.10174474,2.55139888 8.29048824,2.55139888 C11.4792317,2.55139888 14.029492,5.10157348 14.029492,8.29020994 C14.029492,11.4776221 11.478038,14.029021 8.29048824,14.029021 Z" id="Shape"></path>
                    </g>
                </g>
            </g>
        </g>
    </g>
</svg>