<?xml version="1.0" encoding="UTF-8"?>
<svg width="20px" height="20px" viewBox="0 0 20 20" version="1.1" xmlns="http://www.w3.org/2000/svg" xmlns:xlink="http://www.w3.org/1999/xlink">
    <g id="Symbols" stroke="none" stroke-width="1" fill="none" fill-rule="evenodd">
        <g id="Header/Fusion/Mobile" transform="translate(-114.000000, -26.000000)" fill="#231F20" fill-rule="nonzero">
            <g id="Group">
                <g transform="translate(114.000000, 20.000000)">
                    <path d="M16.8750122,6 C15.1489564,6 13.7500244,7.39892439 13.7500244,9.1249707 C13.7500244,9.29342537 13.7732178,9.45212389 13.7988523,9.61324738 L5.37107277,13.8222704 C4.80223124,13.2339009 4.00754685,12.8750293 3.12498779,12.8750293 C1.39893204,12.8750293 0,14.2739537 0,16 C0,17.7260463 1.39893204,19.1249707 3.12498779,19.1249707 C4.00754685,19.1249707 4.80223124,18.7563179 5.37107277,18.1679484 L13.7988523,22.3769715 C13.7732178,22.5381012 13.7500244,22.7065621 13.7500244,22.8750293 C13.7500244,24.6010756 15.1489564,26 16.8750122,26 C18.601068,26 20,24.6010756 20,22.8750293 C20,21.148983 18.601068,19.7500586 16.8750122,19.7500586 C15.9900157,19.7500586 15.1977688,20.1162739 14.6289272,20.7070809 L6.21083511,16.4980578 C6.23769063,16.3332656 6.24989746,16.1721234 6.24989746,16 C6.24989746,15.8315453 6.2364697,15.6630969 6.21083511,15.5019422 L14.6289272,11.2929191 C15.1977688,11.8812886 15.9924532,12.2499414 16.8750122,12.2499414 C18.601068,12.2499414 20,10.851017 20,9.1249707 C20,7.39892439 18.601068,6 16.8750122,6 Z" id="Shape"></path>
                </g>
            </g>
        </g>
    </g>
</svg>
