<svg version="1.1" id="Layer_1" xmlns="http://www.w3.org/2000/svg" xmlns:xlink="http://www.w3.org/1999/xlink" x="0px" y="0px"
   width="1600px" height="750px" viewBox="0 0 1600 750" enable-background="new 0 0 1600 750" xml:space="preserve">
<path fill="#FFFFFF" d="M789.776,458.508h4.928l4.676,7.896l4.647-7.896h4.9l-7.42,12.32v7.672h-4.396v-7.784L789.776,458.508z"/>
<path fill="#FFFFFF" d="M806.465,468.126c0.354-0.942,0.857-1.745,1.512-2.408c0.652-0.662,1.438-1.176,2.352-1.54
  c0.914-0.363,1.941-0.546,3.08-0.546s2.17,0.183,3.094,0.546c0.924,0.364,1.713,0.878,2.366,1.54
  c0.653,0.663,1.157,1.466,1.513,2.408c0.354,0.942,0.531,1.993,0.531,3.15s-0.178,2.202-0.531,3.136
  c-0.355,0.934-0.859,1.731-1.513,2.394c-0.653,0.663-1.442,1.172-2.366,1.526s-1.955,0.532-3.094,0.532s-2.166-0.178-3.08-0.532
  s-1.699-0.863-2.352-1.526c-0.654-0.662-1.158-1.46-1.512-2.394c-0.355-0.934-0.533-1.979-0.533-3.136
  S806.109,469.068,806.465,468.126z M810.076,472.97c0.111,0.551,0.303,1.046,0.574,1.484c0.27,0.438,0.63,0.789,1.078,1.05
  c0.447,0.262,1.008,0.393,1.68,0.393s1.236-0.131,1.693-0.393c0.458-0.261,0.822-0.611,1.093-1.05s0.462-0.934,0.573-1.484
  c0.113-0.55,0.168-1.115,0.168-1.693c0-0.579-0.055-1.148-0.168-1.708c-0.111-0.561-0.303-1.055-0.573-1.484
  c-0.271-0.429-0.635-0.779-1.093-1.05c-0.457-0.271-1.021-0.406-1.693-0.406s-1.232,0.136-1.68,0.406
  c-0.448,0.271-0.809,0.621-1.078,1.05c-0.271,0.43-0.463,0.924-0.574,1.484c-0.111,0.56-0.168,1.129-0.168,1.708
  C809.908,471.854,809.965,472.42,810.076,472.97z"/>
<path fill="#FFFFFF" d="M832.588,478.5v-2.016h-0.084c-0.504,0.84-1.158,1.446-1.96,1.819c-0.803,0.373-1.624,0.561-2.464,0.561
  c-1.064,0-1.938-0.141-2.618-0.42c-0.682-0.28-1.218-0.677-1.61-1.19c-0.392-0.513-0.668-1.139-0.826-1.876s-0.237-1.554-0.237-2.45
  v-8.903h3.976v8.176c0,1.194,0.187,2.086,0.561,2.674c0.373,0.588,1.035,0.882,1.988,0.882c1.082,0,1.865-0.322,2.352-0.966
  c0.484-0.644,0.729-1.703,0.729-3.178v-7.588h3.975V478.5H832.588z"/>
<path fill="#FFFFFF" d="M849.639,464.024v1.96h0.057c0.522-0.747,1.152-1.325,1.89-1.736c0.737-0.41,1.582-0.616,2.534-0.616
  c0.914,0,1.75,0.178,2.506,0.532s1.33,0.979,1.723,1.876c0.429-0.635,1.012-1.194,1.75-1.68c0.736-0.485,1.609-0.729,2.617-0.729
  c0.766,0,1.475,0.094,2.129,0.28c0.652,0.187,1.213,0.485,1.68,0.896c0.467,0.411,0.83,0.948,1.092,1.61
  c0.262,0.663,0.393,1.461,0.393,2.394v9.688h-3.977v-8.204c0-0.485-0.02-0.942-0.057-1.372c-0.037-0.429-0.14-0.802-0.308-1.12
  c-0.168-0.317-0.415-0.569-0.741-0.756c-0.328-0.187-0.771-0.28-1.33-0.28c-0.561,0-1.014,0.108-1.358,0.322
  c-0.346,0.215-0.616,0.495-0.812,0.84c-0.197,0.346-0.328,0.738-0.393,1.177c-0.065,0.438-0.098,0.882-0.098,1.329v8.064h-3.977
  v-8.12c0-0.429-0.01-0.854-0.027-1.273c-0.02-0.421-0.099-0.808-0.238-1.162c-0.141-0.354-0.374-0.64-0.7-0.854
  c-0.327-0.214-0.808-0.322-1.442-0.322c-0.187,0-0.434,0.042-0.742,0.126c-0.308,0.084-0.606,0.243-0.896,0.477
  c-0.29,0.233-0.536,0.569-0.741,1.008c-0.207,0.438-0.309,1.013-0.309,1.722v8.4h-3.977v-14.476H849.639z"/>
<path fill="#FFFFFF" d="M870.555,461.784v-3.276h3.977v3.276H870.555z M874.531,464.024V478.5h-3.977v-14.476H874.531z"/>
<path fill="#FFFFFF" d="M890.645,479.564c-0.158,0.746-0.499,1.441-1.021,2.086c-0.523,0.644-1.279,1.189-2.268,1.638
  c-0.99,0.448-2.315,0.672-3.977,0.672c-0.709,0-1.433-0.089-2.17-0.266c-0.737-0.178-1.41-0.453-2.016-0.826
  c-0.607-0.374-1.111-0.854-1.512-1.442c-0.402-0.588-0.631-1.293-0.687-2.114h3.948c0.186,0.747,0.551,1.265,1.092,1.555
  c0.541,0.289,1.166,0.434,1.876,0.434c1.12,0,1.937-0.336,2.45-1.008c0.513-0.672,0.76-1.521,0.742-2.548v-1.904h-0.057
  c-0.43,0.766-1.041,1.33-1.834,1.694s-1.629,0.546-2.506,0.546c-1.083,0-2.016-0.191-2.8-0.574
  c-0.784-0.382-1.429-0.905-1.933-1.567c-0.504-0.663-0.873-1.438-1.105-2.324c-0.234-0.887-0.35-1.824-0.35-2.814
  c0-0.933,0.135-1.834,0.406-2.702c0.27-0.867,0.666-1.633,1.189-2.296c0.522-0.662,1.171-1.189,1.945-1.582
  c0.775-0.392,1.666-0.588,2.674-0.588c0.953,0,1.788,0.178,2.507,0.532c0.718,0.354,1.32,0.952,1.806,1.792h0.057v-1.932h3.779
  v13.552C890.883,478.155,890.803,478.817,890.645,479.564z M885.199,474.748c0.43-0.224,0.783-0.522,1.064-0.896
  c0.279-0.373,0.489-0.798,0.629-1.273c0.141-0.477,0.211-0.976,0.211-1.498c0-0.598-0.057-1.162-0.168-1.694
  c-0.112-0.532-0.299-1.003-0.561-1.414c-0.262-0.41-0.607-0.737-1.036-0.979s-0.971-0.364-1.624-0.364
  c-0.56,0-1.041,0.112-1.441,0.336c-0.402,0.225-0.738,0.527-1.008,0.91c-0.271,0.383-0.467,0.821-0.588,1.316
  c-0.122,0.494-0.183,1.013-0.183,1.554c0,0.522,0.052,1.041,0.153,1.554c0.104,0.514,0.281,0.976,0.533,1.386
  c0.252,0.411,0.582,0.747,0.994,1.009c0.41,0.262,0.924,0.392,1.539,0.392C884.275,475.084,884.77,474.972,885.199,474.748z"/>
<path fill="#FFFFFF" d="M897.351,458.508v7.532h0.084c0.505-0.84,1.148-1.451,1.933-1.834c0.783-0.383,1.549-0.574,2.295-0.574
  c1.064,0,1.938,0.145,2.619,0.435c0.681,0.289,1.218,0.69,1.609,1.203c0.393,0.514,0.668,1.14,0.826,1.877s0.238,1.554,0.238,2.449
  v8.904h-3.977v-8.176c0-1.194-0.187-2.086-0.56-2.674c-0.374-0.589-1.036-0.883-1.988-0.883c-1.083,0-1.866,0.322-2.353,0.967
  c-0.484,0.644-0.728,1.703-0.728,3.178v7.588h-3.976v-19.992H897.351z"/>
<path fill="#FFFFFF" d="M917.23,464.024v2.659h-2.912v7.168c0,0.673,0.112,1.12,0.336,1.345c0.225,0.224,0.672,0.336,1.344,0.336
  c0.225,0,0.439-0.01,0.645-0.028s0.401-0.046,0.588-0.084v3.08c-0.336,0.056-0.709,0.093-1.119,0.112
  c-0.412,0.019-0.812,0.027-1.205,0.027c-0.615,0-1.199-0.042-1.75-0.126s-1.035-0.247-1.455-0.489
  c-0.42-0.243-0.752-0.589-0.994-1.036c-0.243-0.448-0.364-1.036-0.364-1.765v-8.54h-2.408v-2.659h2.408v-4.341h3.976v4.341H917.23z"
  />
<path fill="#FFFFFF" d="M929.494,458.508v7.28h0.057c0.484-0.746,1.143-1.292,1.974-1.638c0.83-0.346,1.694-0.519,2.59-0.519
  c0.728,0,1.446,0.149,2.156,0.448c0.709,0.299,1.349,0.756,1.918,1.372s1.031,1.404,1.386,2.366c0.354,0.961,0.532,2.104,0.532,3.43
  s-0.178,2.469-0.532,3.43c-0.354,0.962-0.816,1.75-1.386,2.366s-1.209,1.073-1.918,1.372c-0.71,0.299-1.429,0.448-2.156,0.448
  c-1.063,0-2.017-0.168-2.856-0.504s-1.475-0.905-1.903-1.708h-0.056v1.848h-3.78v-19.992H929.494z M935.935,469.512
  c-0.131-0.56-0.337-1.054-0.616-1.483s-0.63-0.771-1.05-1.022c-0.421-0.252-0.929-0.378-1.526-0.378
  c-0.578,0-1.082,0.126-1.512,0.378s-0.784,0.593-1.064,1.022c-0.279,0.43-0.485,0.924-0.615,1.483
  c-0.131,0.561-0.196,1.148-0.196,1.765c0,0.598,0.065,1.176,0.196,1.735c0.13,0.561,0.336,1.055,0.615,1.484
  c0.28,0.43,0.635,0.77,1.064,1.021s0.934,0.379,1.512,0.379c0.598,0,1.105-0.127,1.526-0.379c0.42-0.252,0.771-0.592,1.05-1.021
  s0.485-0.924,0.616-1.484c0.13-0.56,0.196-1.138,0.196-1.735C936.131,470.66,936.064,470.072,935.935,469.512z"/>
<path fill="#FFFFFF" d="M946.182,475.028c0.598,0.578,1.457,0.868,2.576,0.868c0.803,0,1.494-0.201,2.072-0.603
  s0.934-0.826,1.064-1.274h3.5c-0.561,1.736-1.42,2.979-2.576,3.725c-1.158,0.747-2.559,1.12-4.2,1.12
  c-1.139,0-2.165-0.183-3.08-0.546c-0.915-0.364-1.689-0.883-2.324-1.555s-1.124-1.474-1.47-2.407s-0.518-1.96-0.518-3.08
  c0-1.083,0.177-2.091,0.531-3.024s0.858-1.74,1.512-2.422c0.654-0.682,1.434-1.218,2.338-1.61c0.906-0.392,1.909-0.588,3.011-0.588
  c1.231,0,2.306,0.238,3.22,0.714c0.914,0.477,1.666,1.116,2.254,1.918c0.588,0.803,1.013,1.718,1.274,2.744
  c0.261,1.027,0.354,2.101,0.28,3.22h-10.444C945.258,473.516,945.584,474.449,946.182,475.028z M950.676,467.412
  c-0.476-0.522-1.199-0.784-2.17-0.784c-0.635,0-1.162,0.107-1.582,0.322s-0.756,0.48-1.008,0.798s-0.43,0.653-0.531,1.008
  c-0.104,0.354-0.164,0.672-0.183,0.952h6.468C951.483,468.7,951.152,467.935,950.676,467.412z"/>
<path fill="#FFFFFF" d="M964.214,468.476c0.056-0.933,0.289-1.708,0.7-2.323c0.41-0.616,0.933-1.11,1.567-1.484
  c0.635-0.373,1.349-0.639,2.142-0.798c0.794-0.158,1.592-0.238,2.395-0.238c0.729,0,1.465,0.052,2.212,0.154
  s1.429,0.304,2.044,0.602c0.616,0.299,1.12,0.714,1.512,1.246c0.393,0.532,0.588,1.237,0.588,2.114v7.532
  c0,0.653,0.037,1.278,0.113,1.876c0.074,0.598,0.205,1.045,0.391,1.344h-4.031c-0.074-0.224-0.136-0.452-0.182-0.686
  c-0.047-0.233-0.08-0.472-0.099-0.715c-0.635,0.654-1.382,1.111-2.239,1.372c-0.859,0.262-1.736,0.393-2.633,0.393
  c-0.69,0-1.334-0.084-1.932-0.252s-1.12-0.43-1.568-0.784c-0.447-0.354-0.798-0.803-1.05-1.344
  c-0.252-0.542-0.378-1.186-0.378-1.933c0-0.821,0.145-1.498,0.434-2.029c0.289-0.532,0.662-0.957,1.121-1.274
  c0.457-0.317,0.979-0.556,1.567-0.714s1.181-0.284,1.778-0.378c0.597-0.094,1.185-0.168,1.764-0.225
  c0.578-0.056,1.092-0.14,1.54-0.252c0.448-0.111,0.802-0.274,1.063-0.489s0.383-0.527,0.364-0.938c0-0.429-0.069-0.77-0.21-1.021
  c-0.14-0.253-0.326-0.448-0.561-0.589c-0.232-0.14-0.504-0.232-0.812-0.279s-0.64-0.07-0.993-0.07c-0.785,0-1.4,0.168-1.849,0.504
  s-0.71,0.896-0.784,1.68H964.214z M973.397,471.416c-0.168,0.149-0.378,0.266-0.63,0.35s-0.523,0.154-0.812,0.21
  c-0.289,0.057-0.592,0.104-0.91,0.141c-0.316,0.037-0.635,0.084-0.951,0.14c-0.299,0.056-0.593,0.131-0.883,0.225
  c-0.289,0.093-0.541,0.219-0.756,0.378c-0.215,0.158-0.387,0.359-0.518,0.602c-0.131,0.243-0.195,0.551-0.195,0.924
  c0,0.355,0.064,0.654,0.195,0.896s0.309,0.434,0.532,0.573c0.224,0.141,0.485,0.238,0.784,0.295
  c0.299,0.056,0.605,0.084,0.924,0.084c0.783,0,1.391-0.131,1.82-0.393c0.429-0.261,0.746-0.574,0.951-0.938
  c0.205-0.364,0.332-0.732,0.379-1.106c0.046-0.373,0.069-0.672,0.069-0.896V471.416z"/>
<path fill="#FFFFFF" d="M990.926,458.508V478.5h-3.977v-19.992H990.926z"/>
<path fill="#FFFFFF" d="M993.473,461.784v-3.276h3.977v3.276H993.473z M997.449,464.024V478.5h-3.977v-14.476H997.449z"/>
<path fill="#FFFFFF" d="M1007.837,464.024v2.659h-2.912v7.168c0,0.673,0.112,1.12,0.337,1.345c0.223,0.224,0.672,0.336,1.344,0.336
  c0.224,0,0.438-0.01,0.644-0.028c0.205-0.019,0.401-0.046,0.588-0.084v3.08c-0.336,0.056-0.71,0.093-1.12,0.112
  c-0.41,0.019-0.812,0.027-1.203,0.027c-0.617,0-1.2-0.042-1.75-0.126c-0.551-0.084-1.037-0.247-1.457-0.489
  c-0.42-0.243-0.751-0.589-0.994-1.036c-0.242-0.448-0.363-1.036-0.363-1.765v-8.54h-2.408v-2.659h2.408v-4.341h3.976v4.341H1007.837
  z"/>
<path fill="#FFFFFF" d="M1016.992,464.024v2.659h-2.912v7.168c0,0.673,0.113,1.12,0.337,1.345c0.224,0.224,0.672,0.336,1.344,0.336
  c0.224,0,0.438-0.01,0.644-0.028s0.402-0.046,0.588-0.084v3.08c-0.336,0.056-0.709,0.093-1.119,0.112
  c-0.411,0.019-0.812,0.027-1.204,0.027c-0.616,0-1.2-0.042-1.75-0.126c-0.551-0.084-1.036-0.247-1.456-0.489
  c-0.42-0.243-0.752-0.589-0.994-1.036c-0.242-0.448-0.363-1.036-0.363-1.765v-8.54h-2.408v-2.659h2.408v-4.341h3.975v4.341H1016.992
  z"/>
<path fill="#FFFFFF" d="M1022.285,458.508V478.5h-3.977v-19.992H1022.285z"/>
<path fill="#FFFFFF" d="M1028.977,475.028c0.598,0.578,1.456,0.868,2.576,0.868c0.803,0,1.493-0.201,2.072-0.603
  c0.578-0.401,0.933-0.826,1.063-1.274h3.5c-0.56,1.736-1.419,2.979-2.576,3.725c-1.157,0.747-2.558,1.12-4.2,1.12
  c-1.139,0-2.165-0.183-3.08-0.546c-0.914-0.364-1.689-0.883-2.324-1.555s-1.124-1.474-1.469-2.407
  c-0.346-0.934-0.519-1.96-0.519-3.08c0-1.083,0.177-2.091,0.532-3.024c0.354-0.934,0.857-1.74,1.512-2.422
  c0.653-0.682,1.433-1.218,2.338-1.61c0.905-0.392,1.908-0.588,3.01-0.588c1.232,0,2.306,0.238,3.221,0.714
  c0.914,0.477,1.666,1.116,2.254,1.918c0.588,0.803,1.012,1.718,1.273,2.744c0.262,1.027,0.354,2.101,0.28,3.22h-10.444
  C1028.053,473.516,1028.379,474.449,1028.977,475.028z M1033.471,467.412c-0.477-0.522-1.199-0.784-2.17-0.784
  c-0.635,0-1.162,0.107-1.582,0.322s-0.756,0.48-1.008,0.798s-0.43,0.653-0.532,1.008s-0.164,0.672-0.183,0.952h6.469
  C1034.277,468.7,1033.946,467.935,1033.471,467.412z"/>
<path fill="#FFFFFF" d="M1051.264,458.508V478.5h-3.976v-19.992H1051.264z"/>
<path fill="#FFFFFF" d="M1053.784,468.126c0.354-0.942,0.858-1.745,1.512-2.408c0.653-0.662,1.438-1.176,2.353-1.54
  c0.914-0.363,1.941-0.546,3.08-0.546c1.138,0,2.17,0.183,3.094,0.546c0.924,0.364,1.712,0.878,2.365,1.54
  c0.654,0.663,1.158,1.466,1.513,2.408s0.532,1.993,0.532,3.15s-0.178,2.202-0.532,3.136s-0.858,1.731-1.513,2.394
  c-0.653,0.663-1.441,1.172-2.365,1.526s-1.956,0.532-3.094,0.532c-1.139,0-2.166-0.178-3.08-0.532
  c-0.915-0.354-1.699-0.863-2.353-1.526c-0.653-0.662-1.157-1.46-1.512-2.394s-0.532-1.979-0.532-3.136
  S1053.43,469.068,1053.784,468.126z M1057.396,472.97c0.111,0.551,0.303,1.046,0.574,1.484c0.27,0.438,0.629,0.789,1.077,1.05
  c0.448,0.262,1.009,0.393,1.681,0.393s1.236-0.131,1.693-0.393c0.457-0.261,0.821-0.611,1.092-1.05s0.463-0.934,0.574-1.484
  c0.112-0.55,0.168-1.115,0.168-1.693c0-0.579-0.056-1.148-0.168-1.708c-0.111-0.561-0.304-1.055-0.574-1.484
  c-0.271-0.429-0.635-0.779-1.092-1.05s-1.021-0.406-1.693-0.406s-1.232,0.136-1.681,0.406s-0.808,0.621-1.077,1.05
  c-0.271,0.43-0.463,0.924-0.574,1.484c-0.112,0.56-0.168,1.129-0.168,1.708C1057.229,471.854,1057.284,472.42,1057.396,472.97z"/>
<path fill="#FFFFFF" d="M1073.453,474.902c0.178,0.308,0.406,0.56,0.687,0.756c0.28,0.195,0.603,0.341,0.966,0.434
  c0.364,0.094,0.742,0.141,1.135,0.141c0.279,0,0.573-0.033,0.881-0.099c0.309-0.065,0.588-0.168,0.841-0.308
  c0.252-0.141,0.462-0.326,0.63-0.561c0.168-0.232,0.252-0.526,0.252-0.882c0-0.597-0.396-1.045-1.189-1.344
  c-0.795-0.299-1.9-0.598-3.318-0.896c-0.579-0.13-1.145-0.284-1.694-0.462c-0.551-0.177-1.04-0.41-1.47-0.699
  c-0.43-0.29-0.775-0.653-1.036-1.093c-0.262-0.438-0.392-0.975-0.392-1.609c0-0.934,0.182-1.698,0.545-2.296
  c0.365-0.598,0.846-1.068,1.443-1.414c0.597-0.346,1.269-0.588,2.016-0.729c0.746-0.14,1.512-0.21,2.296-0.21
  s1.544,0.075,2.282,0.225c0.736,0.149,1.395,0.401,1.974,0.756c0.578,0.354,1.06,0.826,1.442,1.414
  c0.382,0.588,0.611,1.33,0.686,2.226h-3.78c-0.056-0.766-0.345-1.283-0.868-1.554c-0.522-0.271-1.139-0.406-1.848-0.406
  c-0.225,0-0.467,0.014-0.729,0.042s-0.499,0.089-0.713,0.182c-0.215,0.094-0.397,0.229-0.547,0.406
  c-0.149,0.178-0.224,0.416-0.224,0.714c0,0.355,0.13,0.645,0.392,0.868s0.603,0.406,1.022,0.546c0.42,0.141,0.9,0.267,1.442,0.378
  c0.541,0.112,1.092,0.234,1.651,0.364c0.579,0.131,1.144,0.29,1.694,0.476c0.551,0.188,1.04,0.435,1.47,0.742
  c0.429,0.309,0.774,0.691,1.036,1.148s0.393,1.021,0.393,1.693c0,0.952-0.192,1.75-0.574,2.395
  c-0.383,0.644-0.883,1.162-1.498,1.554c-0.616,0.393-1.321,0.668-2.114,0.826c-0.794,0.158-1.601,0.238-2.422,0.238
  c-0.841,0-1.661-0.084-2.464-0.252s-1.518-0.448-2.143-0.84c-0.625-0.393-1.139-0.91-1.539-1.555
  c-0.402-0.644-0.621-1.451-0.658-2.422h3.779C1073.188,474.226,1073.275,474.594,1073.453,474.902z"/>
<path fill="#FFFFFF" d="M1092.396,464.024v2.659h-2.912v7.168c0,0.673,0.112,1.12,0.337,1.345c0.223,0.224,0.672,0.336,1.344,0.336
  c0.224,0,0.438-0.01,0.644-0.028c0.205-0.019,0.401-0.046,0.588-0.084v3.08c-0.336,0.056-0.71,0.093-1.12,0.112
  c-0.41,0.019-0.812,0.027-1.203,0.027c-0.617,0-1.2-0.042-1.75-0.126c-0.551-0.084-1.037-0.247-1.457-0.489
  c-0.42-0.243-0.751-0.589-0.994-1.036c-0.242-0.448-0.363-1.036-0.363-1.765v-8.54h-2.408v-2.659h2.408v-4.341h3.976v4.341H1092.396
  z"/>
<path fill="#FFFFFF" d="M1098.191,474.188v4.312c0,0.635-0.117,1.218-0.351,1.75s-0.546,0.994-0.938,1.386
  c-0.392,0.393-0.854,0.714-1.385,0.966c-0.533,0.252-1.098,0.425-1.695,0.519v-2.017c0.281-0.056,0.547-0.168,0.799-0.336
  s0.471-0.368,0.658-0.602c0.186-0.233,0.326-0.495,0.42-0.784c0.093-0.289,0.13-0.583,0.111-0.882h-2.016v-4.312H1098.191z"/>
<path fill="#FFFFFF" d="M1115.719,464.024v2.659h-2.912v7.168c0,0.673,0.113,1.12,0.337,1.345c0.224,0.224,0.672,0.336,1.344,0.336
  c0.224,0,0.438-0.01,0.644-0.028s0.402-0.046,0.588-0.084v3.08c-0.336,0.056-0.709,0.093-1.119,0.112
  c-0.411,0.019-0.812,0.027-1.204,0.027c-0.616,0-1.2-0.042-1.75-0.126c-0.551-0.084-1.036-0.247-1.456-0.489
  c-0.42-0.243-0.752-0.589-0.994-1.036c-0.242-0.448-0.363-1.036-0.363-1.765v-8.54h-2.408v-2.659h2.408v-4.341h3.975v4.341H1115.719
  z"/>
<path fill="#FFFFFF" d="M1120.703,464.024v2.688h0.057c0.186-0.448,0.438-0.863,0.756-1.246c0.316-0.382,0.681-0.709,1.092-0.979
  c0.41-0.271,0.85-0.48,1.316-0.63c0.466-0.149,0.951-0.225,1.455-0.225c0.262,0,0.551,0.047,0.868,0.141v3.695
  c-0.187-0.037-0.411-0.069-0.672-0.098c-0.262-0.028-0.514-0.042-0.756-0.042c-0.728,0-1.345,0.121-1.849,0.364
  c-0.504,0.242-0.91,0.573-1.218,0.993c-0.308,0.421-0.527,0.91-0.657,1.471c-0.131,0.56-0.197,1.167-0.197,1.819v6.524h-3.975
  v-14.476H1120.703z"/>
<path fill="#FFFFFF" d="M1132.463,482.812c-0.766,0.505-1.83,0.757-3.192,0.757c-0.411,0-0.817-0.015-1.218-0.042
  c-0.402-0.028-0.808-0.062-1.219-0.099v-3.275c0.373,0.037,0.756,0.074,1.148,0.111s0.784,0.047,1.176,0.028
  c0.523-0.056,0.91-0.262,1.162-0.616s0.379-0.747,0.379-1.176c0-0.317-0.057-0.616-0.168-0.896l-5.068-13.579h4.228l3.276,9.911
  h0.056l3.164-9.911h4.116l-6.049,16.268C1133.824,481.468,1133.228,482.308,1132.463,482.812z"/>
<path fill="#FFFFFF" d="M1161.709,479.564c-0.159,0.746-0.5,1.441-1.022,2.086c-0.522,0.644-1.278,1.189-2.269,1.638
  c-0.989,0.448-2.314,0.672-3.976,0.672c-0.71,0-1.433-0.089-2.17-0.266c-0.737-0.178-1.409-0.453-2.017-0.826
  c-0.605-0.374-1.11-0.854-1.512-1.442s-0.629-1.293-0.686-2.114h3.947c0.188,0.747,0.551,1.265,1.093,1.555
  c0.541,0.289,1.167,0.434,1.876,0.434c1.12,0,1.937-0.336,2.449-1.008c0.514-0.672,0.762-1.521,0.742-2.548v-1.904h-0.056
  c-0.429,0.766-1.04,1.33-1.834,1.694s-1.628,0.546-2.506,0.546c-1.083,0-2.017-0.191-2.8-0.574
  c-0.784-0.382-1.428-0.905-1.932-1.567c-0.504-0.663-0.873-1.438-1.106-2.324s-0.351-1.824-0.351-2.814
  c0-0.933,0.136-1.834,0.406-2.702c0.271-0.867,0.668-1.633,1.19-2.296c0.522-0.662,1.171-1.189,1.946-1.582
  c0.773-0.392,1.666-0.588,2.674-0.588c0.951,0,1.787,0.178,2.506,0.532s1.32,0.952,1.806,1.792h0.056v-1.932h3.781v13.552
  C1161.947,478.155,1161.867,478.817,1161.709,479.564z M1156.263,474.748c0.429-0.224,0.784-0.522,1.063-0.896
  c0.28-0.373,0.49-0.798,0.631-1.273c0.14-0.477,0.209-0.976,0.209-1.498c0-0.598-0.056-1.162-0.168-1.694
  c-0.111-0.532-0.299-1.003-0.56-1.414c-0.262-0.41-0.606-0.737-1.036-0.979s-0.971-0.364-1.624-0.364
  c-0.56,0-1.04,0.112-1.442,0.336c-0.4,0.225-0.736,0.527-1.008,0.91c-0.271,0.383-0.467,0.821-0.588,1.316
  c-0.121,0.494-0.182,1.013-0.182,1.554c0,0.522,0.051,1.041,0.154,1.554c0.102,0.514,0.279,0.976,0.531,1.386
  c0.252,0.411,0.584,0.747,0.994,1.009s0.924,0.392,1.54,0.392C1155.338,475.084,1155.833,474.972,1156.263,474.748z"/>
<path fill="#FFFFFF" d="M1164.522,468.126c0.354-0.942,0.858-1.745,1.512-2.408c0.653-0.662,1.438-1.176,2.353-1.54
  c0.914-0.363,1.941-0.546,3.08-0.546c1.138,0,2.17,0.183,3.094,0.546c0.924,0.364,1.712,0.878,2.365,1.54
  c0.654,0.663,1.158,1.466,1.513,2.408s0.532,1.993,0.532,3.15s-0.178,2.202-0.532,3.136s-0.858,1.731-1.513,2.394
  c-0.653,0.663-1.441,1.172-2.365,1.526s-1.956,0.532-3.094,0.532c-1.139,0-2.166-0.178-3.08-0.532
  c-0.915-0.354-1.699-0.863-2.353-1.526c-0.653-0.662-1.157-1.46-1.512-2.394s-0.532-1.979-0.532-3.136
  S1164.168,469.068,1164.522,468.126z M1168.135,472.97c0.111,0.551,0.303,1.046,0.574,1.484c0.27,0.438,0.629,0.789,1.077,1.05
  c0.448,0.262,1.009,0.393,1.681,0.393s1.236-0.131,1.693-0.393c0.457-0.261,0.821-0.611,1.092-1.05s0.463-0.934,0.574-1.484
  c0.112-0.55,0.168-1.115,0.168-1.693c0-0.579-0.056-1.148-0.168-1.708c-0.111-0.561-0.304-1.055-0.574-1.484
  c-0.271-0.429-0.635-0.779-1.092-1.05s-1.021-0.406-1.693-0.406s-1.232,0.136-1.681,0.406s-0.808,0.621-1.077,1.05
  c-0.271,0.43-0.463,0.924-0.574,1.484c-0.112,0.56-0.168,1.129-0.168,1.708C1167.967,471.854,1168.022,472.42,1168.135,472.97z"/>
<path fill="#FFFFFF" d="M1180.958,461.784v-3.276h3.976v3.276H1180.958z M1184.934,464.024V478.5h-3.976v-14.476H1184.934z"/>
<path fill="#FFFFFF" d="M1191.15,464.024v2.016h0.084c0.504-0.84,1.156-1.451,1.959-1.834s1.625-0.574,2.465-0.574
  c1.063,0,1.936,0.145,2.617,0.435c0.682,0.289,1.219,0.69,1.61,1.203c0.392,0.514,0.667,1.14,0.826,1.877
  c0.158,0.737,0.237,1.554,0.237,2.449v8.904h-3.975v-8.176c0-1.194-0.188-2.086-0.561-2.674c-0.373-0.589-1.036-0.883-1.988-0.883
  c-1.082,0-1.867,0.322-2.352,0.967c-0.486,0.644-0.729,1.703-0.729,3.178v7.588h-3.976v-14.476H1191.15z"/>
<path fill="#FFFFFF" d="M1216.951,479.564c-0.158,0.746-0.499,1.441-1.021,2.086c-0.523,0.644-1.279,1.189-2.268,1.638
  c-0.99,0.448-2.315,0.672-3.977,0.672c-0.709,0-1.433-0.089-2.17-0.266c-0.737-0.178-1.41-0.453-2.016-0.826
  c-0.607-0.374-1.111-0.854-1.512-1.442c-0.402-0.588-0.631-1.293-0.687-2.114h3.948c0.186,0.747,0.551,1.265,1.092,1.555
  c0.541,0.289,1.166,0.434,1.876,0.434c1.12,0,1.937-0.336,2.45-1.008c0.513-0.672,0.76-1.521,0.742-2.548v-1.904h-0.057
  c-0.43,0.766-1.041,1.33-1.834,1.694s-1.629,0.546-2.506,0.546c-1.083,0-2.016-0.191-2.8-0.574
  c-0.784-0.382-1.429-0.905-1.933-1.567c-0.504-0.663-0.873-1.438-1.105-2.324c-0.234-0.887-0.35-1.824-0.35-2.814
  c0-0.933,0.135-1.834,0.406-2.702c0.27-0.867,0.666-1.633,1.189-2.296c0.522-0.662,1.171-1.189,1.945-1.582
  c0.775-0.392,1.666-0.588,2.674-0.588c0.953,0,1.788,0.178,2.507,0.532c0.718,0.354,1.32,0.952,1.806,1.792h0.057v-1.932h3.779
  v13.552C1217.189,478.155,1217.109,478.817,1216.951,479.564z M1211.506,474.748c0.43-0.224,0.783-0.522,1.064-0.896
  c0.279-0.373,0.489-0.798,0.629-1.273c0.141-0.477,0.211-0.976,0.211-1.498c0-0.598-0.057-1.162-0.168-1.694
  c-0.112-0.532-0.299-1.003-0.561-1.414c-0.262-0.41-0.607-0.737-1.036-0.979s-0.971-0.364-1.624-0.364
  c-0.56,0-1.041,0.112-1.441,0.336c-0.402,0.225-0.738,0.527-1.008,0.91c-0.271,0.383-0.467,0.821-0.588,1.316
  c-0.122,0.494-0.183,1.013-0.183,1.554c0,0.522,0.052,1.041,0.153,1.554c0.104,0.514,0.281,0.976,0.533,1.386
  c0.252,0.411,0.582,0.747,0.994,1.009c0.41,0.262,0.924,0.392,1.539,0.392C1210.582,475.084,1211.076,474.972,1211.506,474.748z"/>
<path fill="#FFFFFF" d="M1230.741,458.508v7.532h0.084c0.505-0.84,1.148-1.451,1.933-1.834c0.783-0.383,1.549-0.574,2.295-0.574
  c1.064,0,1.938,0.145,2.619,0.435c0.681,0.289,1.218,0.69,1.609,1.203c0.393,0.514,0.668,1.14,0.826,1.877s0.238,1.554,0.238,2.449
  v8.904h-3.977v-8.176c0-1.194-0.187-2.086-0.56-2.674c-0.374-0.589-1.036-0.883-1.988-0.883c-1.083,0-1.866,0.322-2.353,0.967
  c-0.484,0.644-0.728,1.703-0.728,3.178v7.588h-3.976v-19.992H1230.741z"/>
<path fill="#FFFFFF" d="M1242.754,468.126c0.354-0.942,0.857-1.745,1.512-2.408c0.652-0.662,1.438-1.176,2.352-1.54
  c0.914-0.363,1.941-0.546,3.08-0.546s2.17,0.183,3.094,0.546c0.924,0.364,1.713,0.878,2.366,1.54
  c0.653,0.663,1.157,1.466,1.513,2.408c0.354,0.942,0.531,1.993,0.531,3.15s-0.178,2.202-0.531,3.136
  c-0.355,0.934-0.859,1.731-1.513,2.394c-0.653,0.663-1.442,1.172-2.366,1.526s-1.955,0.532-3.094,0.532s-2.166-0.178-3.08-0.532
  s-1.699-0.863-2.352-1.526c-0.654-0.662-1.158-1.46-1.512-2.394c-0.355-0.934-0.533-1.979-0.533-3.136
  S1242.398,469.068,1242.754,468.126z M1246.365,472.97c0.111,0.551,0.303,1.046,0.574,1.484c0.27,0.438,0.63,0.789,1.078,1.05
  c0.447,0.262,1.008,0.393,1.68,0.393s1.236-0.131,1.693-0.393c0.458-0.261,0.822-0.611,1.093-1.05s0.462-0.934,0.573-1.484
  c0.113-0.55,0.168-1.115,0.168-1.693c0-0.579-0.055-1.148-0.168-1.708c-0.111-0.561-0.303-1.055-0.573-1.484
  c-0.271-0.429-0.635-0.779-1.093-1.05c-0.457-0.271-1.021-0.406-1.693-0.406s-1.232,0.136-1.68,0.406
  c-0.448,0.271-0.809,0.621-1.078,1.05c-0.271,0.43-0.463,0.924-0.574,1.484c-0.111,0.56-0.168,1.129-0.168,1.708
  C1246.197,471.854,1246.254,472.42,1246.365,472.97z"/>
<path fill="#FFFFFF" d="M1262.941,464.024v1.96h0.056c0.522-0.747,1.152-1.325,1.89-1.736c0.737-0.41,1.582-0.616,2.534-0.616
  c0.915,0,1.75,0.178,2.506,0.532c0.757,0.354,1.33,0.979,1.722,1.876c0.43-0.635,1.013-1.194,1.75-1.68
  c0.738-0.485,1.61-0.729,2.619-0.729c0.765,0,1.474,0.094,2.127,0.28c0.654,0.187,1.213,0.485,1.68,0.896
  c0.467,0.411,0.831,0.948,1.093,1.61c0.261,0.663,0.392,1.461,0.392,2.394v9.688h-3.976v-8.204c0-0.485-0.019-0.942-0.056-1.372
  c-0.038-0.429-0.141-0.802-0.309-1.12c-0.168-0.317-0.416-0.569-0.742-0.756s-0.77-0.28-1.33-0.28c-0.56,0-1.012,0.108-1.357,0.322
  c-0.346,0.215-0.616,0.495-0.812,0.84c-0.195,0.346-0.326,0.738-0.392,1.177s-0.099,0.882-0.099,1.329v8.064h-3.976v-8.12
  c0-0.429-0.009-0.854-0.028-1.273c-0.018-0.421-0.098-0.808-0.237-1.162s-0.374-0.64-0.7-0.854
  c-0.326-0.214-0.808-0.322-1.441-0.322c-0.188,0-0.435,0.042-0.742,0.126c-0.309,0.084-0.607,0.243-0.896,0.477
  s-0.537,0.569-0.742,1.008s-0.308,1.013-0.308,1.722v8.4h-3.976v-14.476H1262.941z"/>
<path fill="#FFFFFF" d="M1288,475.028c0.598,0.578,1.457,0.868,2.576,0.868c0.803,0,1.494-0.201,2.072-0.603
  s0.934-0.826,1.064-1.274h3.5c-0.561,1.736-1.42,2.979-2.576,3.725c-1.158,0.747-2.559,1.12-4.2,1.12
  c-1.139,0-2.165-0.183-3.08-0.546c-0.915-0.364-1.689-0.883-2.324-1.555s-1.124-1.474-1.47-2.407s-0.518-1.96-0.518-3.08
  c0-1.083,0.177-2.091,0.531-3.024s0.858-1.74,1.512-2.422c0.654-0.682,1.434-1.218,2.338-1.61c0.906-0.392,1.909-0.588,3.011-0.588
  c1.231,0,2.306,0.238,3.22,0.714c0.914,0.477,1.666,1.116,2.254,1.918c0.588,0.803,1.013,1.718,1.274,2.744
  c0.261,1.027,0.354,2.101,0.28,3.22h-10.444C1287.076,473.516,1287.402,474.449,1288,475.028z M1292.494,467.412
  c-0.476-0.522-1.199-0.784-2.17-0.784c-0.635,0-1.162,0.107-1.582,0.322s-0.756,0.48-1.008,0.798s-0.43,0.653-0.531,1.008
  c-0.104,0.354-0.164,0.672-0.183,0.952h6.468C1293.302,468.7,1292.971,467.935,1292.494,467.412z"/>
<path fill="#FFFFFF" d="M1303.681,474.188v4.312h-4.396v-4.312H1303.681z"/>
<path fill="#FFFFFF" d="M792.304,401.672v-18.72L836.08,324.2h18.288v60.624h13.392v16.848h-13.392V425h-19.44v-23.328H792.304z
   M834.496,349.832l-26.064,34.992h26.496v-34.992H834.496z"/>
<path fill="#FFFFFF" d="M873.16,349.472c1.967-6.671,4.631-12.023,7.992-16.056c3.359-4.032,7.271-6.912,11.736-8.64
  c4.463-1.729,9.19-2.593,14.184-2.593c5.087,0,9.863,0.864,14.328,2.593c4.464,1.728,8.398,4.607,11.808,8.64
  c3.407,4.032,6.095,9.385,8.063,16.056c1.967,6.674,2.953,14.904,2.953,24.696c0,10.08-0.986,18.504-2.953,25.272
  c-1.969,6.768-4.656,12.168-8.063,16.199c-3.409,4.032-7.344,6.912-11.808,8.641c-4.465,1.728-9.241,2.592-14.328,2.592
  c-4.993,0-9.721-0.864-14.184-2.592c-4.465-1.729-8.377-4.608-11.736-8.641c-3.361-4.031-6.025-9.432-7.992-16.199
  c-1.969-6.769-2.952-15.192-2.952-25.272C870.208,364.376,871.191,356.146,873.16,349.472z M890.943,384.608
  c0.191,4.081,0.793,8.017,1.801,11.808c1.008,3.794,2.614,7.033,4.824,9.72c2.207,2.689,5.375,4.032,9.504,4.032
  c4.223,0,7.463-1.343,9.72-4.032c2.255-2.687,3.888-5.926,4.896-9.72c1.009-3.791,1.607-7.727,1.801-11.808
  c0.191-4.08,0.287-7.561,0.287-10.44c0-1.728-0.023-3.816-0.071-6.264c-0.05-2.448-0.241-4.969-0.576-7.561
  c-0.337-2.592-0.816-5.159-1.44-7.704c-0.625-2.542-1.561-4.823-2.808-6.84c-1.249-2.016-2.833-3.647-4.752-4.896
  c-1.921-1.247-4.272-1.872-7.056-1.872c-2.785,0-5.112,0.625-6.984,1.872c-1.871,1.248-3.408,2.88-4.607,4.896
  c-1.201,2.017-2.138,4.298-2.809,6.84c-0.672,2.545-1.152,5.112-1.439,7.704c-0.289,2.592-0.457,5.112-0.504,7.561
  c-0.05,2.447-0.072,4.536-0.072,6.264C890.656,377.048,890.75,380.528,890.943,384.608z"/>
<path fill="#FFFFFF" d="M946.672,401.672v-18.72l43.776-58.752h18.288v60.624h13.392v16.848h-13.392V425h-19.439v-23.328H946.672z
   M988.864,349.832l-26.063,34.992h26.496v-34.992H988.864z"/>
<path fill="#FFFFFF" d="M1052.8,402.824V425h-22.608v-22.176H1052.8z"/>
</svg>
